/* XPM */
static char *door41649772230[] = {
/* columns rows colors chars-per-pixel */
"32 32 250 2 ",
"   c None",
".  c #474B49",
"X  c #474C49",
"o  c #4C504C",
"O  c #4F534E",
"+  c #50554F",
"@  c #535550",
"#  c #535651",
"$  c #535652",
"%  c #535853",
"&  c #565A55",
"*  c #575B55",
"=  c #565B56",
"-  c #565B57",
";  c #585B57",
":  c #585C57",
">  c #575D59",
",  c #595C59",
"<  c #595D59",
"1  c #5A5D58",
"2  c #595E59",
"3  c #5A5E58",
"4  c #595F5B",
"5  c #5C5E58",
"6  c #5C5F5A",
"7  c #5B6058",
"8  c #5B605A",
"9  c #5C6059",
"0  c #5F6059",
"q  c #5D625A",
"w  c #5D615C",
"e  c #5C625C",
"r  c #5C625D",
"t  c #5E625C",
"y  c #5F635D",
"u  c #5D635E",
"i  c #5E635F",
"p  c #5F645C",
"a  c #61635D",
"s  c #61655D",
"d  c #62645C",
"f  c #60645E",
"g  c #60655E",
"h  c #60655F",
"j  c #62655E",
"k  c #61665F",
"l  c #62665F",
"z  c #62675F",
"x  c #63675F",
"c  c #65665D",
"v  c #636561",
"b  c #626660",
"n  c #636660",
"m  c #626760",
"M  c #626661",
"N  c #626761",
"B  c #646760",
"V  c #646762",
"C  c #626860",
"Z  c #646860",
"A  c #656960",
"S  c #656861",
"D  c #666960",
"F  c #666961",
"G  c #646962",
"H  c #656962",
"J  c #656963",
"K  c #666963",
"L  c #666A62",
"P  c #676A62",
"I  c #676B62",
"U  c #666A63",
"Y  c #676B63",
"T  c #676C63",
"R  c #666A64",
"E  c #676A64",
"W  c #666A65",
"Q  c #666B65",
"!  c #676B65",
"~  c #666C65",
"^  c #686B63",
"/  c #686D64",
"(  c #686C65",
")  c #686D65",
"_  c #6A6D64",
"`  c #696D66",
"'  c #6A6D66",
"]  c #6A6D67",
"[  c #686E66",
"{  c #696E66",
"}  c #696E67",
"|  c #6B6E66",
" . c #6A6E67",
".. c #6C6D65",
"X. c #6C6F66",
"o. c #6A6D68",
"O. c #696F68",
"+. c #6A6F68",
"@. c #6A6E69",
"#. c #6C6F68",
"$. c #6C7167",
"%. c #6F7067",
"&. c #6E7167",
"*. c #6F7167",
"=. c #6D7267",
"-. c #6B7069",
";. c #6C7068",
":. c #6D7068",
">. c #6C7168",
",. c #6D7168",
"<. c #6C7069",
"1. c #6E7068",
"2. c #6E7268",
"3. c #6F7268",
"4. c #6E7269",
"5. c #6E7369",
"6. c #6C716A",
"7. c #6D716A",
"8. c #6D726B",
"9. c #6E736A",
"0. c #6F736A",
"q. c #6F726B",
"w. c #6E736B",
"e. c #6F746B",
"r. c #6B706C",
"t. c #6E746C",
"y. c #6F746E",
"u. c #71736A",
"i. c #71726B",
"p. c #70736B",
"a. c #70746A",
"s. c #71756B",
"d. c #72746A",
"f. c #72756B",
"g. c #74766B",
"h. c #71746C",
"j. c #71746D",
"k. c #70756D",
"l. c #72756C",
"z. c #70766D",
"x. c #72766C",
"c. c #73766D",
"v. c #73776D",
"b. c #71746E",
"n. c #71756E",
"m. c #73766E",
"M. c #72776E",
"N. c #73776E",
"B. c #72776F",
"V. c #73776F",
"C. c #74776E",
"Z. c #73786E",
"A. c #73796E",
"S. c #73786F",
"D. c #74786D",
"F. c #76786C",
"G. c #74786E",
"H. c #75786E",
"J. c #75786F",
"K. c #74796F",
"L. c #76796F",
"P. c #777A6F",
"I. c #727670",
"U. c #747670",
"Y. c #737A70",
"T. c #747970",
"R. c #757970",
"E. c #757971",
"W. c #767970",
"Q. c #757A70",
"!. c #757A71",
"~. c #767A70",
"^. c #767A71",
"/. c #757A72",
"(. c #757B72",
"). c #767A72",
"_. c #767B72",
"`. c #767A73",
"'. c #777A73",
"]. c #757C72",
"[. c #767C73",
"{. c #777C73",
"}. c #767B74",
"|. c #777B74",
" X c #777B75",
".X c #777C74",
"XX c #787A70",
"oX c #787B71",
"OX c #797B71",
"+X c #787972",
"@X c #787B72",
"#X c #787B73",
"$X c #797C71",
"%X c #787C72",
"&X c #797C72",
"*X c #787C73",
"=X c #797C73",
"-X c #797D73",
";X c #7A7D73",
":X c #7A7E73",
">X c #7C7E73",
",X c #7C7F73",
"<X c #7D7F73",
"1X c #787C74",
"2X c #787D74",
"3X c #797D74",
"4X c #797D75",
"5X c #7A7D74",
"6X c #7B7D74",
"7X c #787E74",
"8X c #797E74",
"9X c #797E75",
"0X c #7A7E74",
"qX c #7B7E74",
"wX c #7A7E75",
"eX c #7B7E75",
"rX c #7B7F75",
"tX c #787D76",
"yX c #7A7F76",
"uX c #7B7F76",
"iX c #7A7F77",
"pX c #7D7F74",
"aX c #7C7F75",
"sX c #7D7F76",
"dX c #7B7F78",
"fX c #7D8076",
"gX c #7D8077",
"hX c #7E8176",
"jX c #7F8176",
"kX c #7F8177",
"lX c #7F8277",
"zX c #7D8078",
"xX c #7F8078",
"cX c #7F8178",
"vX c #7C8278",
"bX c #7D8278",
"nX c #7D8279",
"mX c #7E8279",
"MX c #808378",
"NX c #80847A",
"BX c #80857A",
"VX c #81857A",
"CX c #80847B",
"ZX c #81857B",
"AX c #83857B",
"SX c #83877B",
"DX c #81847C",
"FX c #80857D",
"GX c #868A7E",
"HX c #868981",
/* pixels */
"                          zXuXuXuXuXI.                          ",
"                        l.zXgXMXgX1.-.,                         ",
"                          v.$XuXuX#.J                           ",
"                        w { @XR.@XR.J v                         ",
"            @X%.  zX$XY.z w R.R.@X$Xo.uX}.R.-.  6XsX            ",
"        l.@X$Xv.{ R.uXY.~ w uXuXuXl.J }.y.y.o.uXHXAX@X          ",
"        e.l.R.R.v.G e.=.              o.e.{ Z.SXAXAXuX          ",
"          G Z.K.R.G                         R.fXgXZ.T           ",
"        6Xl.B ^ d                             , x Z.[.a         ",
"      ..@X$X{                                   d gXAXu.        ",
"      d =.K.x.                                    y.Z.T @       ",
"    %.v.u.G                                         d -.G       ",
"    =.x.=.0                                         c =...      ",
"    G { B                                           5 G G d     ",
"d R.R.}.b.                                          r.}.dXzXl., ",
"-..XgXR.1.                                            uXuXzX$X, ",
"G [.uXfXu.                                            mXuX$XZ.= ",
": v i C v                                             1.G C 8 X ",
"    v y.d                                             o.J @     ",
"    .XHX$X                                            AXY.d     ",
"    { >XF.                                            R.-.d     ",
"    G x.G                                           R.-.i :     ",
"    B v >                                           > r r i     ",
"~ mXDXDXl.                                            .XR.fXfX, ",
"{ uX6XXX_                                             R.x.MXfX7 ",
"~ fXMXv.G                                             DX>X>XK.: ",
"i x.=.G w                                             y.1.u.x X ",
"  O w { d                                             ~ ~ #     ",
"    { }.K.                                            vXK.d     ",
"    u.Y.u.                                            [.Z.Z.    ",
"    1.-.d                                             Z.fXR.    ",
"    % % o                                           & > r =     "
};
