/* XPM */
static char *door21649772230[] = {
/* columns rows colors chars-per-pixel */
"32 32 130 2 ",
"   c None",
".  c #5B2F1E",
"X  c #5F331D",
"o  c #61311F",
"O  c #69371F",
"+  c #693722",
"@  c #6D3B23",
"#  c #733B24",
"$  c #783F23",
"%  c #763E28",
"&  c #5F4327",
"*  c #57442C",
"=  c #5E4428",
"-  c #58493C",
";  c #614527",
":  c #624628",
">  c #664929",
",  c #684B2A",
"<  c #734127",
"1  c #7C4326",
"2  c #7E4328",
"3  c #784D2C",
"4  c #604831",
"5  c #7D4F32",
"6  c #6F533D",
"7  c #7C553C",
"8  c #4A4F4A",
"9  c #5B4E40",
"0  c #4D514C",
"q  c #50544F",
"w  c #5F564A",
"e  c #545751",
"r  c #565A55",
"t  c #5A5D56",
"y  c #575D59",
"u  c #5A5D59",
"i  c #6D5141",
"p  c #695C4C",
"a  c #735945",
"s  c #7B5D41",
"d  c #5D625C",
"f  c #62655E",
"g  c #6B655F",
"h  c #69685D",
"j  c #73695D",
"k  c #626661",
"l  c #656A63",
"z  c #696D65",
"x  c #6B6E6A",
"c  c #7F6D63",
"v  c #6E7167",
"b  c #6D716A",
"n  c #72756C",
"m  c #74786F",
"M  c #727672",
"N  c #7B7674",
"B  c #767B72",
"V  c #7A7D74",
"C  c #797F78",
"Z  c #844627",
"A  c #884E25",
"S  c #84452B",
"D  c #8A472C",
"F  c #854A2C",
"G  c #8E4B2D",
"H  c #934D2E",
"J  c #8D542C",
"K  c #8D5B2E",
"L  c #95552D",
"P  c #915B2E",
"I  c #99592C",
"U  c #8D4C31",
"Y  c #8A5531",
"T  c #855638",
"R  c #925431",
"E  c #9D5334",
"W  c #945C30",
"Q  c #9D5C33",
"!  c #9C5F3A",
"~  c #A35635",
"^  c #A35B33",
"/  c #B05F3C",
"(  c #9A6333",
")  c #A36335",
"_  c #AB6635",
"`  c #A16438",
"'  c #AC6539",
"]  c #A36938",
"[  c #AC6B3A",
"{  c #B56B33",
"}  c #B3643B",
"|  c #B36C3C",
" . c #BC6E3D",
".. c #AE713C",
"X. c #BB7236",
"o. c #B3713D",
"O. c #BB733C",
"+. c #C07739",
"@. c #C1793E",
"#. c #8D6949",
"$. c #9C6F47",
"%. c #916848",
"&. c #966F55",
"*. c #BD6A42",
"=. c #B67340",
"-. c #BB7441",
";. c #BE7942",
":. c #BA7C4B",
">. c #C47543",
",. c #C87744",
"<. c #C37B43",
"1. c #CC7D46",
"2. c #C77D48",
"3. c #CD7D48",
"4. c #7E8176",
"5. c #7D8178",
"6. c #82847B",
"7. c #868A7E",
"8. c #918276",
"9. c #A4866C",
"0. c #B8967E",
"q. c #C68043",
"w. c #CB8146",
"e. c #CD8149",
"r. c #D2844A",
"t. c #D48A4B",
"y. c #D98A4E",
"u. c #DA914E",
"i. c #878A82",
"p. c #8B8B8C",
/* pixels */
"                          5.V V V V n                           ",
"                        n 5.6.6.6.v x u                         ",
"                          m B V V z l                           ",
"                        d z B m V M l k                         ",
"            B v   5.V B k d B M V B l V B B v   V 6.            ",
"        n B V m x B V B z d V 5.V M l B B b z V 7.6.B           ",
"        n m m m n z b c p 6 %.#.#.7 6 p l l v 6.6.6.V           ",
"          z m m B f 7 ( | ] | [ [ ) ) K 3 9 m V 6.m l           ",
"        V m f z p 5 } -.w.;.o.[ [ [ X.I J     u f n V f         ",
"      z V V l - Y ( >.1.t.:.=.[ [ [ O._ L       d 4.6.n         ",
"      h v B p R -.=.r.y.u.<.=.=.=.[ | _ I         b m l e       ",
"    v m n l T ' e.;.y.y.u.<.>.=.=.[ X.{ I           f v l       ",
"    v n n p ` *.t.<.r.y.t.<.2.;.=...O.{ I           k b v       ",
"    l b l : ' -.t.w.y.t.t.q.e.;.O.o.X.X.I           y l l d     ",
"f B B V l : | 2.u.w.y.r.t.q.r.:.O...+.X.I           M C C C n r ",
"x V V m f , -.r.u.w.t.e.t.q.r.<.O.o.q.X.I             C C &.B t ",
"l B V V g , @.3.y.w.r.e.t.<.r.;.o...q.O.E             5.V V m r ",
"y k f l f , @.r.t.w.3.1.t.2.2.-.o.] q.0.&.            b l f d 0 ",
"    l x t ; @.r.t.q.w.1.r.;.,.-.=.( &.p.8.            x l 0     ",
"    V i.z : @.r.t.<.1.w.r.<.,.O...( 9.M 6.            6.B f     ",
"    z 4.z > @.3.t.@.1.e.r.<.1.;.o.K c x k             B b f     ",
"    l n f > @.3.t.<.3.e.t.<.1.=.o.W i N a           B b d r     ",
"    f d 0 : @.w.r.<.r.r.r.;.2.O...W F < S           y d d d     ",
"l 5.6.5.l > @.1.r.@.3.3.r.O.>.| [ P H Z Z             B B V 4.d ",
"x V 4.B f ; O.1.1.o.3.3.1.|  .) Q J H H Z             B n 6.V t ",
"b V 4.n f ; O.>.;.[ >.,.>._ ' E U A H D 1             6.4.4.m d ",
"d n v l r ; O.+.| ) *.*. .) ~ H F 1 G Z #             b v n h 0 ",
"  0 d l r &  ./ ' R / / } R H % # @ Z 1 O             l z r     ",
"    z B z ; } ~ Q R E E E U S # + X $ +               5.m f     ",
"    b B l ; ^ H U 2 D D U S # o X                     B m m     ",
"    x v d & L 2 2 % % @                               m V B     ",
"    e r 8 * A O                                       y d r     "
};
