/* XPM */
static char *door31649772230[] = {
/* columns rows colors chars-per-pixel */
"32 32 99 2 ",
"   c None",
".  c #5C311F",
"X  c #533D25",
"o  c #673722",
"O  c #683722",
"+  c #693922",
"@  c #743E26",
"#  c #5B4227",
"$  c #5D4329",
"%  c #594834",
"&  c #59493B",
"*  c #61472C",
"=  c #634A2E",
"-  c #764326",
";  c #7D4227",
":  c #7F4B25",
">  c #76492E",
",  c #7F4F2E",
"<  c #6A4C36",
"1  c #4B4D47",
"2  c #4C4E48",
"3  c #4D514D",
"4  c #50534F",
"5  c #5F554A",
"6  c #525651",
"7  c #555A55",
"8  c #5A5B54",
"9  c #575C59",
"0  c #5B5E5A",
"q  c #7A5C41",
"w  c #705C4F",
"e  c #5D625C",
"r  c #7D654C",
"t  c #6D6354",
"y  c #62655D",
"u  c #66685F",
"i  c #7B6650",
"p  c #766D5F",
"a  c #636661",
"s  c #656A63",
"d  c #696D65",
"f  c #6B6F68",
"g  c #786D69",
"h  c #6E7167",
"j  c #6D716A",
"k  c #72756C",
"l  c #74786E",
"z  c #737670",
"x  c #767A72",
"c  c #7A7D74",
"v  c #7C797B",
"b  c #834D27",
"n  c #854B2B",
"m  c #8B4C2B",
"M  c #85502E",
"N  c #8C5329",
"B  c #92572C",
"V  c #9A5B2D",
"C  c #8E5733",
"Z  c #845A3D",
"A  c #935430",
"S  c #975D36",
"D  c #9A5C33",
"F  c #985F38",
"G  c #8F603D",
"H  c #9B6036",
"J  c #9B6139",
"K  c #A26234",
"L  c #AC6635",
"P  c #AD6937",
"I  c #A3663D",
"U  c #AA6639",
"Y  c #A7693A",
"T  c #AB6B3B",
"R  c #B16D3B",
"E  c #B5723B",
"W  c #B9743D",
"Q  c #C0773F",
"!  c #C2783F",
"~  c #916647",
"^  c #936D4C",
"/  c #866B55",
"(  c #906B50",
")  c #A76B40",
"_  c #AB6D41",
"`  c #B57342",
"'  c #BB7744",
"]  c #BD7846",
"[  c #BE7A49",
"{  c #AD7B59",
"}  c #847163",
"|  c #C27942",
" . c #C27D4B",
".. c #7E8176",
"X. c #7D8178",
"o. c #81857B",
"O. c #868A7E",
"+. c #878A82",
"@. c #928883",
/* pixels */
"                          X.c c c c k                           ",
"                        k X.o.o...k f 9                         ",
"                          l c c c f s                           ",
"                        e d x l x x s a                         ",
"            x h   X.c x a 0 x x c x d c c x j   c o.            ",
"        k x c l h c ..l d e c c x l s x z j j c O.o.c           ",
"        h l l x l s j g r q ^ i       f j f x o.o.o.c           ",
"          d l l l 8 < _ ` T |               x c } l a           ",
"        c k u d 5 > C [ ] T  .                0 f z c y         ",
"      f x ..h % , K J  .] _  .                  a X.X.k         ",
"      u h c t H P U J [ ] T  .                    j x d 6       ",
"    h l k d G E E T F  . ._  .                      e h s       ",
"    h k k t T | W T H  .[ _  .                      a j f       ",
"    s j u % T W E R J  .[ ) {                       0 s s y     ",
"y x x x d $ T E E E J [ ] J /                       j x X.X.k 8 ",
"h c c l s = E ' W P H  .] ~ } @.                      X.X.} x 8 ",
"s x c c u * W | E U F  .| ( g v                       X.c c l 7 ",
"9 a a s e * E ! R U J  .] Z w                         j s a e 2 ",
"    a f 8 $ P ! P T J  .] D _                         f s 6     ",
"    c +.h $ P ! T R I [ [ T |                         o.x y     ",
"    d ..h # L ! R E U [ ' T ]                         x j y     ",
"    s k y # L ! R R I [ [ T ]                       x j e 7     ",
"    y 0 3 # L ! T T J [ ] T '                       9 e e e     ",
"s X.o.X.d $ L ! P K J ` ] T `                         x x c ..8 ",
"f c ..x u $ L W K B S ` ] Y K                         x k o.c 8 ",
"j c X.z y $ K L D n C ` ` B                           X.....c 8 ",
"e j h s 8 o V V n @ M Y                               j k j s 1 ",
"  4 e d e X B m - o -                                 d d 7     ",
"    f x d # N ; + .                                   X.l u     ",
"    j z d # b @ O                                     x k l     ",
"    h j e X :                                         x c x     ",
"    6 6 3                                           7 0 e 7     "
};
