/* XPM */
static char *door11649772230[] = {
/* columns rows colors chars-per-pixel */
"32 32 136 2 ",
"   c None",
".  c #61331E",
"X  c #5A3A2A",
"o  c #653721",
"O  c #673822",
"+  c #6D3A23",
"@  c #753D26",
"#  c #7A3F27",
"$  c #7A3F29",
"%  c #54463A",
"&  c #51483C",
"*  c #5B4E3E",
"=  c #66402D",
"-  c #774026",
";  c #7C4126",
":  c #72472D",
">  c #7D4229",
",  c #604631",
"<  c #6D4A35",
"1  c #6A4F3E",
"2  c #704630",
"3  c #764B32",
"4  c #794B34",
"5  c #754F38",
"6  c #70503C",
"7  c #7C5539",
"8  c #4C4E4B",
"9  c #4F534F",
"0  c #5F5445",
"q  c #50554F",
"w  c #5C554B",
"e  c #535451",
"r  c #565B55",
"t  c #5A5C56",
"y  c #5A5E58",
"u  c #655743",
"i  c #6B5343",
"p  c #615748",
"a  c #655A4D",
"s  c #6B5B4A",
"d  c #745442",
"f  c #645F54",
"g  c #6D5D51",
"h  c #705E51",
"j  c #5D625C",
"k  c #72614C",
"l  c #78604D",
"z  c #62655D",
"x  c #6D665B",
"c  c #756652",
"v  c #786853",
"b  c #636761",
"n  c #696766",
"m  c #656A62",
"M  c #696D65",
"N  c #6C6F69",
"B  c #706D62",
"V  c #6C7067",
"C  c #6D7169",
"Z  c #707167",
"A  c #72756C",
"S  c #74786F",
"D  c #727670",
"F  c #757B72",
"G  c #7A7D74",
"H  c #7C7C7E",
"J  c #82442A",
"K  c #89462C",
"L  c #864A2B",
"P  c #8B4A2D",
"I  c #914F2F",
"U  c #92522E",
"Y  c #935C2D",
"T  c #844F30",
"R  c #8C4830",
"E  c #924B32",
"W  c #845536",
"Q  c #8B5634",
"!  c #865A37",
"~  c #845638",
"^  c #875D39",
"/  c #8A5E39",
"(  c #925635",
")  c #9A5232",
"_  c #975934",
"`  c #9C5A33",
"'  c #A05636",
"]  c #A45B36",
"[  c #A55E39",
"{  c #AB5E39",
"}  c #A26136",
"|  c #AD6437",
" . c #AD6B37",
".. c #A5643A",
"X. c #AC643A",
"o. c #AE6B3B",
"O. c #B3663C",
"+. c #B46A3D",
"@. c #BA6C3E",
"#. c #AF743B",
"$. c #B5723E",
"%. c #B9703E",
"&. c #BC7A3F",
"*. c #C37C3E",
"=. c #835C45",
"-. c #90634A",
";. c #806452",
":. c #9B7250",
">. c #BD6C41",
",. c #BB7342",
"<. c #BC7C42",
"1. c #AF7951",
"2. c #807467",
"3. c #C06F41",
"4. c #C37543",
"5. c #C97745",
"6. c #C57C44",
"7. c #CC7D46",
"8. c #CD7E49",
"9. c #7E8176",
"0. c #7E8279",
"q. c #B88054",
"w. c #81857A",
"e. c #868A7F",
"r. c #C68244",
"t. c #CB8346",
"y. c #C48048",
"u. c #CE8249",
"i. c #CE8949",
"p. c #D2844A",
"a. c #D5894C",
"s. c #D98C4D",
"d. c #DA914E",
"f. c #DC8D50",
"g. c #DD9151",
"h. c #878A81",
/* pixels */
"                          0.G G G G D                           ",
"                        A 0.w.w.9.Z N y                         ",
"                          F F G G N m                           ",
"                        j M F S G F n b                         ",
"            F Z   0.F F b j F D F G N G F F A   w.2.            ",
"        A F G S M G 9.D N j G G F A m F D D Z G h.w.F           ",
"        C S S F D m Z x u 1 =.=.-.d d g m N F w.h.0.G           ",
"          M S S F w < ( ) [ ..` >.>.>.[ ~ i S G 0.F M           ",
"        G A z V w : _ +.+.,.,.,.8.8.5.4...[ 4 t M D G z         ",
"      N F 9.x & T } X.6.5.u.p.6.f.a.p.p.,.4.o.4 z 0.w.A         ",
"      z Z F a T X.$.$.p.p.a.a.r.g.f.p.a.6.u.6.+.W M A m e       ",
"    Z S A z 3 | 6.6.6.a.a.s.a.r.f.p.p.p.6.i.t.4.X.1 x A N       ",
"    M A A d ` ,.7.r.r.a.s.a.a.t.f.p.p.p.r.t.t.6.@./ M S A       ",
"    M N z 7 @.7.p.u.t.s.a.a.u.t.f.p.p.a.i.a.p.7.4.X.p n M z     ",
"z S F G C / t.u.a.a.i.s.a.p.p.i.f.a.f.f.i.a.a.p.u.$.s D G G A r ",
"C G G F m / u.u.s.p.i.f.p.p.u.t.a.d.f.a.t.s.p.p.p.*.c G G G F y ",
"b G G 9.M / *.p.a.u.i.s.u.p.u.t.d.f.a.p.t.d.p.u.p.t.v 0.9.9.A j ",
"r b j b z _ 8.7.p.u.t.a.8.u.u.r.a.a.f.p.y.d.u.u.t.t.s C j b j 8 ",
"    z C t ! 7.p.p.u.t.a.8.8.8.t.a.p.p.p.8.a.7.7.u.r.1 C M q     ",
"    9.e.V / 7.p.u.8.t.p.8.t.t.r.a.8.8.8.6.i.5.7.7.*.c 0.S j     ",
"    V 9.V / t.p.p.7.r.p.8.u.p.7.p.7.8.8.7.i.,.1.q.&.c F V j     ",
"    M C j / *.8.u.7.t.p.8.8.u.*.p.7.8.8.r.t.~ x S #.k C j r     ",
"    b j 9 ^ 8.8.u.6.r.a.8.u.u.r.a.7.p.p.r.r.v n H :.* j j j     ",
"M 0.w.0.m / 7.6.7.6.6.a.p.u.p.6.a.7.8.p.6.<.h 8 w h w F D 9.G j ",
"N F 9.S z ^ 7.5.5.4.<.a.8.8.8.,.p.5.8.t.$.&.i B n = w S A 9.9.t ",
"M 9.9.S z / 5.4.>.>.$.8.5.7.7.%.t.4.5.5.o.&.Q 7 ! Y s 0.9.9.A j ",
"j C C b r W *.O.O...o.5.3.4.3.o.6.O.@.@.} %.O.+.|  .0 S V A z 8 ",
"  q j M t 4 { { { ' ..3.O.O.O...*.] { | `  .) _ I ` * m V t     ",
"    C F N 3 ) ) ) I ' { ' { { _ { ' ' ' U ] L L J Y a 9.A j     ",
"    C D n : K K K # P ) I E ) I ' K P P > L ; ; J L a F S V     ",
"    C C b O @ # @ @ J R J K K K E # # # + ; ; ; - ; a D 9.A     ",
"    e e 8 X + + O o @ $ @ # @ @ J @ + + . + O . . . & r j r     "
};
