/* XPM */
static char *flame21649924360[] = {
/* columns rows colors chars-per-pixel */
"32 32 188 2 ",
"   c None",
".  c #002560",
"X  c #002660",
"o  c #002861",
"O  c #002862",
"+  c #002863",
"@  c #002963",
"#  c #002B66",
"$  c #012C66",
"%  c #002C67",
"&  c #022D67",
"*  c #022E68",
"=  c #01306C",
"-  c #02316C",
";  c #03326C",
":  c #00316E",
">  c #01336F",
",  c #03336E",
"<  c #04356F",
"1  c #003470",
"2  c #013471",
"3  c #043570",
"4  c #053772",
"5  c #033975",
"6  c #053974",
"7  c #043B77",
"8  c #073F7B",
"9  c #08407B",
"0  c #08427E",
"q  c #08437E",
"w  c #094682",
"e  c #084885",
"r  c #0A4985",
"t  c #0A4B87",
"y  c #074D8C",
"u  c #0A4C88",
"i  c #0E4E88",
"p  c #114B83",
"a  c #0B508C",
"s  c #0C508C",
"d  c #0C528E",
"f  c #0D528E",
"g  c #0C528F",
"h  c #0E528E",
"j  c #0F548F",
"k  c #135189",
"l  c #1A5589",
"z  c #0D5490",
"x  c #0D5491",
"c  c #0C5592",
"v  c #0F5793",
"b  c #0C5694",
"n  c #0F5B98",
"m  c #105994",
"M  c #165D97",
"N  c #1E5C91",
"B  c #1C5F95",
"V  c #1E5F95",
"C  c #105B98",
"Z  c #115F9C",
"A  c #11609C",
"S  c #1F679D",
"D  c #23689C",
"F  c #256A9E",
"G  c #2A6C9D",
"H  c #1163A0",
"J  c #1266A3",
"K  c #1467A4",
"L  c #1A66A0",
"P  c #1B6CA6",
"I  c #156AA8",
"U  c #156BA8",
"Y  c #156BA9",
"T  c #1875B3",
"R  c #1F76B0",
"E  c #1E79B4",
"W  c #236EA4",
"Q  c #2C7CAF",
"!  c #2F7CAE",
"~  c #3A7FAA",
"^  c #3C7FA9",
"/  c #2780B8",
"(  c #3F85B0",
")  c #368BBD",
"_  c #398DBD",
"`  c #3B8DBE",
"'  c #3F91BF",
"]  c #4887AF",
"[  c #4188B2",
"{  c #4189B3",
"}  c #498FB7",
"|  c #4091BE",
" . c #4B95BC",
".. c #4A96BE",
"X. c #4A97BF",
"o. c #5398BC",
"O. c #619BB9",
"+. c #378FC1",
"@. c #4595C1",
"#. c #4A98C0",
"$. c #4E9BC1",
"%. c #5AA5C7",
"&. c #56A7CC",
"*. c #6CA9C1",
"=. c #65ACC9",
"-. c #76ADC3",
";. c #65B1CF",
":. c #6BB1CD",
">. c #72BAD3",
",. c #73BED7",
"<. c #77BED5",
"1. c #7CBCD1",
"2. c #7EC5DB",
"3. c #82CADD",
"4. c #8BCEDE",
"5. c #91D2DE",
"6. c #96D4DF",
"7. c #8CD2E2",
"8. c #95D7E3",
"9. c #9BD7E4",
"0. c #96D9E5",
"q. c #9AD8E5",
"w. c #9EE0E8",
"e. c #A4E4E9",
"r. c #ADEBEC",
"t. c #AFEDEE",
"y. c #B5E6E9",
"u. c #BFE5E8",
"i. c #B1E9EC",
"p. c #B0EEEF",
"a. c #B9ECEC",
"s. c #B6F1EF",
"d. c #B7F3F1",
"f. c #B9F2F0",
"g. c #B8F3F1",
"h. c #BCF2F1",
"j. c #B9F4F2",
"k. c #BAF5F2",
"l. c #BFF9F3",
"z. c #C1F4F3",
"x. c #C2FBF5",
"c. c #C8FFF6",
"v. c #C9FFF7",
"b. c #CBFFF7",
"n. c #CEFFF7",
"m. c #CBFFF8",
"M. c #CCFFF8",
"N. c #CEFFF8",
"B. c #CFFFF8",
"V. c #DCF5F7",
"C. c #D3F9F6",
"Z. c #D3FBF7",
"A. c #DAF8F7",
"S. c #D0FFF8",
"D. c #D5FFF8",
"F. c #D7FFF9",
"G. c #D7FFFA",
"H. c #DBFCF9",
"J. c #D9FFF9",
"K. c #DBFFF9",
"L. c #DBFFFA",
"P. c #DCFFFA",
"I. c #DFFFFA",
"U. c #E0FFFA",
"Y. c #E3FFFA",
"T. c #E4FFFB",
"R. c #E5FFFB",
"E. c #E6FEFB",
"W. c #E6FFFB",
"Q. c #E7FFFB",
"!. c #E9FFFB",
"~. c #ECFEFB",
"^. c #ECFFFC",
"/. c #EFFFFE",
"(. c #F1FFFD",
"). c #F2FFFD",
"_. c #F1FFFE",
"`. c #F3FFFE",
"'. c #F6FFFE",
"]. c #F7FFFE",
"[. c #F9FFFF",
"{. c #FAFFFE",
"}. c #FBFFFE",
"|. c #FBFFFF",
" X c #FCFFFF",
".X c #FDFFFF",
"XX c #FEFFFF",
"oX c white",
/* pixels */
"                                                                ",
"                                                                ",
"                                                                ",
"                                                                ",
"                              9 A x                             ",
"                            & f Y Y 9                           ",
"                            n E T K q                           ",
"                          t R 3.,./ b                           ",
"                      O & . V d.m.0.[                           ",
"                      & x B *.l.c.N.5.p                         ",
"                        M 7.N.n.n.I.z.G                         ",
"                        [ l.I.'.`.oX!.6.} a                     ",
"                4       +.f.T.oXoXoXU.b.k.$.f                   ",
"              Z U q     ^ a.`.oXoXoX`.D.b.t.F                   ",
"                f ;     -.~.oXoXoXoXoX[.D.e.N                   ",
"                  O ; F i.[.oXoXoXoXoXoXy.~                     ",
"                    J ! f.T.oXoXoXoXoX/.1.5                     ",
"                    u ;.b.J.oXoXoXoXoXT.s.o.                    ",
"                    [ q.N./.oXoXoXoXoX[.I.k.X.                  ",
"                  1  .x.D.[.oXoXoXoXoXoX'.S.>.w                 ",
"                  & S r.J.oXoXoXoXoXoXoXoX9.' P u               ",
"                  = 6 %.C.[.oXoXoXoXoXoX'.o.; <                 ",
"                O 1 > =.m.T.oXoXoXoXoX[.H.] .                   ",
"                O X ; X.4.8.T.oXoXoXoXC.3.) h                   ",
"                O O   m i ` V.oX}.}.[.q.' _ L                   ",
"                  O     t @.h.J.A.V.z.&.Q z ;                   ",
"                        4 x :.p.>...l   n K f                   ",
"                            k W f 7 ;     t                     ",
"                            # #                                 ",
"                                                                ",
"                                                                ",
"                                                                "
};
