/* XPM */
static char *flame141649924362[] = {
/* columns rows colors chars-per-pixel */
"32 32 190 2 ",
"   c None",
".  c #002560",
"X  c #002660",
"o  c #002761",
"O  c #002862",
"+  c #002963",
"@  c #012A64",
"#  c #012B65",
"$  c #012D67",
"%  c #022D68",
"&  c #012E69",
"*  c #022E68",
"=  c #002E6A",
"-  c #05326B",
";  c #01316C",
":  c #01316D",
">  c #00326F",
",  c #03336E",
"<  c #02336F",
"1  c #05356F",
"2  c #033570",
"3  c #033671",
"4  c #023672",
"5  c #043570",
"6  c #053771",
"7  c #063671",
"8  c #063B76",
"9  c #093B75",
"0  c #023C79",
"q  c #053D79",
"w  c #073E79",
"e  c #063F7C",
"r  c #04407C",
"t  c #0C4078",
"y  c #08417C",
"u  c #0A4985",
"i  c #0B4A86",
"p  c #0B4B87",
"a  c #0D4F8A",
"s  c #134C83",
"d  c #0C508C",
"f  c #0C528F",
"g  c #13538C",
"h  c #10548E",
"j  c #0C5390",
"k  c #0D5390",
"l  c #0B5593",
"z  c #0E5490",
"x  c #0E5591",
"c  c #165991",
"v  c #155892",
"b  c #11609D",
"n  c #12619E",
"m  c #17629D",
"M  c #1A6198",
"N  c #1F659B",
"B  c #1D679E",
"V  c #236194",
"C  c #21669B",
"Z  c #31719F",
"A  c #1567A3",
"S  c #1468A5",
"D  c #1868A2",
"F  c #1C6DA6",
"G  c #116EAE",
"H  c #156FAD",
"J  c #1776B5",
"K  c #216EA5",
"L  c #256FA5",
"P  c #2370A6",
"I  c #2670A5",
"U  c #2F76A7",
"Y  c #2374AB",
"T  c #2774A9",
"R  c #2E7DAF",
"E  c #377FAD",
"W  c #3A7FAB",
"Q  c #277BB2",
"!  c #267DB4",
"~  c #277EB5",
"^  c #257EB7",
"/  c #2F7FB2",
"(  c #417AA1",
")  c #417EA6",
"_  c #2B80B5",
"`  c #3581B1",
"'  c #3783B2",
"]  c #3587B9",
"[  c #4382A9",
"{  c #4485AD",
"}  c #4B8AAE",
"|  c #478AB1",
" . c #5397B9",
".. c #559ABD",
"X. c #5F9DBA",
"o. c #539DC1",
"O. c #519DC3",
"+. c #4EA2CA",
"@. c #51A0C7",
"#. c #5DA4C5",
"$. c #5CA4C6",
"%. c #55A7CC",
"&. c #54A7CD",
"*. c #71B6CF",
"=. c #68B4D2",
"-. c #6CB5D1",
";. c #6FB8D2",
":. c #6FB8D3",
">. c #70BDD7",
",. c #81C9DC",
"<. c #82C8DD",
"1. c #82CADE",
"2. c #89CCDB",
"3. c #89CEDF",
"4. c #94D4DF",
"5. c #8BD1E1",
"6. c #8DD2E1",
"7. c #94D7E3",
"8. c #93D7E4",
"9. c #9AD5E1",
"0. c #99D7E4",
"q. c #95D8E3",
"w. c #97D8E5",
"e. c #9DDDE6",
"r. c #9EDCE6",
"t. c #A3E3E9",
"y. c #A4E4EA",
"u. c #A6E5EA",
"i. c #ABE8EC",
"p. c #ACEAEC",
"a. c #ACEBED",
"s. c #AFEDEE",
"d. c #B3EEEF",
"f. c #B6EEEF",
"g. c #B5F2F1",
"h. c #BBF3F1",
"j. c #B9F4F1",
"k. c #C0EEF0",
"l. c #C0F4F0",
"z. c #CAF1F2",
"x. c #C8F3F4",
"c. c #C9F4F4",
"v. c #CEF7F5",
"b. c #C6F9F4",
"n. c #C3FCF5",
"m. c #C6FEF5",
"M. c #C7FEF6",
"N. c #C8FBF5",
"B. c #CCFAF6",
"V. c #C9FEF6",
"C. c #C8FFF6",
"Z. c #CEFFF7",
"A. c #CCFFF8",
"S. c #CFFFF8",
"D. c #CEFFF9",
"F. c #D1F9F6",
"G. c #D2F8F6",
"H. c #D1FAF7",
"J. c #D2FBF7",
"K. c #D1FFF8",
"L. c #D0FFF9",
"P. c #D2FFF9",
"I. c #D6FFF9",
"U. c #DDFFF9",
"Y. c #DCFFFA",
"T. c #DDFFFA",
"R. c #E0F9F8",
"E. c #E1FFFA",
"W. c #E1FFFB",
"Q. c #E5FFFB",
"!. c #E6FFFB",
"~. c #E7FFFB",
"^. c #E9FFFC",
"/. c #EBFFFC",
"(. c #ECFFFC",
"). c #EFFFFC",
"_. c #EEFFFD",
"`. c #EFFFFD",
"'. c #F0FFFD",
"]. c #F1FFFD",
"[. c #F3FFFD",
"{. c #F4FFFE",
"}. c #F7FFFE",
"|. c #F9FDFE",
" X c #F8FFFE",
".X c #FAFFFE",
"XX c #FAFFFF",
"oX c #FCFFFF",
"OX c #FDFFFF",
"+X c white",
/* pixels */
"                                                                ",
"                              O O                               ",
"                                O O                             ",
"                                                                ",
"                              5 8                               ",
"                              d b                               ",
"                            - P S 2                             ",
"                          . t *.-.g                             ",
"                          * q Z g. .I                           ",
"                            0 X.L.B.a.O.a                       ",
"                          k Q q.W.W.A.u./                       ",
"                          r ( l.Y.I.r.{                         ",
"                        9 N E z./.Z.;.M C x                     ",
"                        L t.x.|.).K.3.u.s...s                   ",
"                      e ~ a.!.+X+X|.F.m.A.n.#.>                 ",
"                        F r.].+X+X+X~.m.7.=.T                   ",
"                  *     #.R.+X+X+X+X}.b.%.G k                   ",
"                  O   ` 9.].+X+X+X+X|.b.+.^ h                   ",
"                # 2 U p._.+X+X+X+X+X+XB.<.<.c                   ",
"                > ` 4.Z.}.+X+X+X+X+X+X].L.8.c .                 ",
"                M 3.L.V.Y.+X+X+X+X+X+X+X!.p.T >                 ",
"                i >.h.V._.+X+X+X+X+X+X+X+XF.}                   ",
"                  B ` d.|.+X+X+X+X+X+X|._.h.[                   ",
"                    f @.x.].+X+X+X+X+X}.0._ 5                   ",
"                    b J &.F.+X+X+X+X+X_.w.] 1                   ",
"                    a H ~ 2.F._._.^.Y.h.O.K                     ",
"              O       p 1 V a.d.<.5.>.| 5                       ",
"                          5 ) R A D l * . O # O                 ",
"                                  * @ . O # x w                 ",
"                                    O       y >                 ",
"                                                                ",
"                                                                "
};
