/* XPM */
static char *flame131649924362[] = {
/* columns rows colors chars-per-pixel */
"32 32 193 2 ",
"   c None",
".  c #002560",
"X  c #002660",
"o  c #002661",
"O  c #002761",
"+  c #002862",
"@  c #012A64",
"#  c #002A65",
"$  c #012C67",
"%  c #022E68",
"&  c #012F6A",
"*  c #00306B",
"=  c #02306B",
"-  c #02326D",
";  c #00326F",
":  c #01336F",
">  c #03346F",
",  c #013572",
"<  c #043671",
"1  c #053772",
"2  c #003876",
"3  c #053C77",
"4  c #063C77",
"5  c #0D3F77",
"6  c #043D79",
"7  c #073F7A",
"8  c #01407F",
"9  c #06407C",
"0  c #07407C",
"q  c #094580",
"w  c #094681",
"e  c #0A4682",
"r  c #0E4680",
"t  c #094985",
"y  c #0A4984",
"u  c #0B4A85",
"i  c #0C4E8A",
"p  c #114B83",
"a  c #134E86",
"s  c #0B518D",
"d  c #0D518E",
"f  c #0D528E",
"g  c #0C528F",
"h  c #0F538E",
"j  c #13528A",
"k  c #1C578C",
"l  c #0D5592",
"z  c #0E5692",
"x  c #0F5793",
"c  c #0F5894",
"v  c #0D5E9D",
"b  c #1D5D92",
"n  c #105B98",
"m  c #105E9B",
"M  c #215485",
"N  c #10609E",
"B  c #10619E",
"V  c #1A659E",
"C  c #206499",
"Z  c #22699E",
"A  c #166FAD",
"S  c #146FAE",
"D  c #196FAB",
"F  c #1C72AD",
"G  c #1374B5",
"H  c #1776B5",
"J  c #1F77B1",
"K  c #216BA2",
"L  c #276EA1",
"P  c #256EA2",
"I  c #256EA3",
"U  c #246EA4",
"Y  c #296EA0",
"T  c #2570A5",
"R  c #2371A8",
"E  c #2F78A9",
"W  c #3E78A0",
"Q  c #327EAE",
"!  c #267EB5",
"~  c #287CB2",
"^  c #3A82AF",
"/  c #2880B7",
"(  c #2983BA",
")  c #2985BD",
"_  c #3484B5",
"`  c #3B88B6",
"'  c #3E8AB7",
"]  c #4086B0",
"[  c #4D92B7",
"{  c #4892BB",
"}  c #4B97BF",
"|  c #60A0BE",
" . c #3791C2",
".. c #469BC7",
"X. c #539FC4",
"o. c #54A1C6",
"O. c #5DA6C6",
"+. c #54A4C9",
"@. c #59A8CC",
"#. c #5FAECF",
"$. c #64ACCA",
"%. c #66B0CE",
"&. c #69B3CF",
"*. c #74B3C9",
"=. c #65B3D2",
"-. c #6BB7D3",
";. c #68B6D4",
":. c #6BB7D4",
">. c #6BB6D5",
",. c #70B8D2",
"<. c #72BED7",
"1. c #77C0D8",
"2. c #79C0D9",
"3. c #81C5D8",
"4. c #81C8DC",
"5. c #82CADD",
"6. c #8ECDD9",
"7. c #89CCDC",
"8. c #8DCFDD",
"9. c #93CBDA",
"0. c #91D1DD",
"q. c #8CD2E1",
"w. c #8DD3E2",
"e. c #99D6E3",
"r. c #98D7E4",
"t. c #9CD9E3",
"y. c #98D8E4",
"u. c #99DAE5",
"i. c #A0DFE8",
"p. c #A6E2E6",
"a. c #A8E7EB",
"s. c #ADEBED",
"d. c #B0EAEC",
"f. c #B7F2F0",
"g. c #B7F3F1",
"h. c #B8F1F0",
"j. c #B9F3F0",
"k. c #BFF1F0",
"l. c #BBF4F2",
"z. c #BBF5F2",
"x. c #BFF9F3",
"c. c #BFF9F4",
"v. c #C7F2F3",
"b. c #C3F7F3",
"n. c #C3FBF4",
"m. c #C4F9F4",
"M. c #C4FAF4",
"N. c #C7FBF5",
"B. c #CDF8F4",
"V. c #C8FFF6",
"C. c #C9FFF6",
"Z. c #CAFFF7",
"A. c #CBFFF7",
"S. c #CAFFF8",
"D. c #CBFFF8",
"F. c #CDFFF8",
"G. c #D1F2F5",
"H. c #D3F4F5",
"J. c #D3F9F6",
"K. c #D0FFF7",
"L. c #D2FFF8",
"P. c #D3FFF8",
"I. c #D6FFF9",
"U. c #DDF8F8",
"Y. c #D9FFF9",
"T. c #DDFFFA",
"R. c #E0FFFA",
"E. c #E1FFFA",
"W. c #E4FFFB",
"Q. c #E5FFFB",
"!. c #E6FFFB",
"~. c #E2FFFC",
"^. c #E5FFFC",
"/. c #E8FFFC",
"(. c #ECFFFC",
"). c #EDFFFC",
"_. c #EDFFFD",
"`. c #EEFFFC",
"'. c #EEFFFD",
"]. c #F1FFFD",
"[. c #F2FFFD",
"{. c #F2FFFE",
"}. c #F3FFFE",
"|. c #F7FFFE",
" X c #F8FFFE",
".X c #F9FFFE",
"XX c #F9FFFF",
"oX c #FAFFFE",
"OX c #FBFFFE",
"+X c #FCFFFF",
"@X c #FDFFFF",
"#X c #FEFFFF",
"$X c white",
/* pixels */
"                                                                ",
"                              . .                               ",
"                              0 4 >                             ",
"                            1 y x s                             ",
"                            @ & x f                             ",
"                            . & N f                             ",
"                            # I ..j                             ",
"                          w c @.3.0                             ",
"                          m ( a.0.b                             ",
"                          0 R s.S.*.5 ;                         ",
"                          . a t.W.B.6.{                         ",
"                            E k.$X].W.d.I                       ",
"                          _ >.(.$X$X^.h.Z                       ",
"                        ` -.r.OX$X$XW.x.+.l                     ",
"                        [ l.K.].$XOXK.C.l.o.u                   ",
"                      j 7.^.OX$X$X$XW.C.l.:.F 0                 ",
"                      w o.J.$X$X$X$XW.C.1.G N                   ",
"                        Z G.$X$X$X$XOXT.5.=.^                   ",
"                % & 2 T 9.OX$X$X$X$X$X(.M.h.Q                   ",
"                7 K $.e.(.$X$X$X$X$X$X(.C.c.W                   ",
"                V w.F.(.$X$X$X$X$X$X$X$XY.w.C .                 ",
"                ~ p.F.T.OX$X$X$X$X$X$X$XH. .v                   ",
"                  M | i.(.$X$X$X$X$X$XOXT.t.' >                 ",
"                    q $.I.|.$X$X$X$X$XW.b.M.=.6                 ",
"                    y ( <.U.$X$X$X$XOXP.5.#.U =                 ",
"                    n H ) v.OXOX].].Y.C.>.F f                   ",
"                      A J ,.m.N.t.<.g.8.P                       ",
"                      w ; p O.} ~ G ] k                         ",
"                              , f   = ;                         ",
"                                      $     @ .                 ",
"                                                                ",
"                                                                "
};
