/* XPM */
static char *flame41649924361[] = {
/* columns rows colors chars-per-pixel */
"32 32 182 2 ",
"   c None",
".  c #002560",
"X  c #002660",
"o  c #002761",
"O  c #002862",
"+  c #002A66",
"@  c #012B66",
"#  c #022D67",
"$  c #012D68",
"%  c #022E68",
"&  c #022F69",
"*  c #012F6B",
"=  c #042F68",
"-  c #02306A",
";  c #01306C",
":  c #02316C",
">  c #03336E",
",  c #013571",
"<  c #043772",
"1  c #043A76",
"2  c #053B77",
"3  c #0D3E76",
"4  c #073D78",
"5  c #063E79",
"6  c #073F7B",
"7  c #07407C",
"8  c #06437F",
"9  c #0A447F",
"0  c #074683",
"q  c #084581",
"w  c #0A4681",
"e  c #084783",
"r  c #094985",
"t  c #0A4B86",
"y  c #0B4C88",
"u  c #0B4F8C",
"i  c #134C83",
"p  c #184C80",
"a  c #114F89",
"s  c #0C528F",
"d  c #14558D",
"f  c #1B558A",
"g  c #075190",
"h  c #0D5592",
"j  c #0F5692",
"k  c #0F5995",
"l  c #0C5997",
"z  c #0C5A98",
"x  c #0E5A98",
"c  c #0F5E9D",
"v  c #155790",
"b  c #185A91",
"n  c #1B5C92",
"m  c #1E5E93",
"M  c #1E5F94",
"N  c #13629E",
"B  c #15629D",
"V  c #256597",
"C  c #21699E",
"Z  c #31709D",
"A  c #1366A3",
"S  c #1967A1",
"D  c #1A66A0",
"F  c #156AA7",
"G  c #1E6EA7",
"H  c #1F6EA7",
"J  c #1C70AB",
"K  c #1C74AF",
"L  c #1E7BB6",
"P  c #216CA3",
"I  c #226EA4",
"U  c #286DA0",
"Y  c #2473A9",
"T  c #2E7AAC",
"R  c #377DAA",
"E  c #377DAB",
"W  c #307CAE",
"Q  c #247BB3",
"!  c #257CB4",
"~  c #3080B2",
"^  c #3884B2",
"/  c #3F8AB6",
"(  c #398FBF",
")  c #4B87AB",
"_  c #498FB5",
"`  c #4C95BE",
"'  c #4298C5",
"]  c #4B98C1",
"[  c #529EC3",
"{  c #57A2C6",
"}  c #53A3C9",
"|  c #54A6CD",
" . c #58AACE",
".. c #6AB0CB",
"X. c #6CB4CF",
"o. c #6EB6D1",
"O. c #6FBAD5",
"+. c #6FBBD7",
"@. c #75B8D0",
"#. c #76BBD2",
"$. c #70BAD7",
"%. c #71BCD7",
"&. c #78BDD6",
"*. c #78C2D9",
"=. c #79C2D9",
"-. c #7AC2D9",
";. c #80C5D9",
":. c #80C8DD",
">. c #8DCCDA",
",. c #8BCFDD",
"<. c #8CCEDD",
"1. c #91D2DE",
"2. c #95D0DC",
"3. c #94D5DF",
"4. c #92D6E3",
"5. c #97DBE6",
"6. c #9ADCE6",
"7. c #9CDDE6",
"8. c #9DDEE7",
"9. c #9CDFE7",
"0. c #9EDEE6",
"q. c #9FE1E9",
"w. c #AEE5E6",
"e. c #A4E3E9",
"r. c #A9E8EB",
"t. c #B1EAED",
"y. c #B0EDED",
"u. c #B1EDEE",
"i. c #B2EFEF",
"p. c #B7F2F0",
"a. c #BDF2F1",
"s. c #BCF3F1",
"d. c #BAF4F2",
"f. c #C7F2F3",
"g. c #C4F9F3",
"h. c #C1FAF4",
"j. c #C6F9F4",
"k. c #C7FAF5",
"l. c #CCF9F5",
"z. c #C8FDF5",
"x. c #C8FCF6",
"c. c #C9FFF7",
"v. c #CCFCF6",
"b. c #CFFEF7",
"n. c #CBFFF8",
"m. c #CDFFF8",
"M. c #CFFFF8",
"N. c #CFFFF9",
"B. c #D1F3F5",
"V. c #D0F8F6",
"C. c #D5FAF7",
"Z. c #D0FFF8",
"A. c #D1FFF8",
"S. c #D7FEF8",
"D. c #DAF9F8",
"F. c #D8FFF9",
"G. c #D9FFFA",
"H. c #DDFFF9",
"J. c #E0FFFA",
"K. c #E0FFFB",
"L. c #E3FFFB",
"P. c #E4FFFB",
"I. c #E5FFFB",
"U. c #E6FFFB",
"Y. c #E6FFFC",
"T. c #E7FFFC",
"R. c #E8FFFC",
"E. c #EBFFFC",
"W. c #EDFFFC",
"Q. c #EFFFFC",
"!. c #EFFFFE",
"~. c #F1FFFD",
"^. c #F2FFFD",
"/. c #F2FFFE",
"(. c #F6FFFE",
"). c #F8FFFE",
"_. c #F9FFFE",
"`. c #FAFFFE",
"'. c #FCFFFE",
"]. c #FDFFFF",
"[. c #FEFFFF",
"{. c white",
/* pixels */
"                                                                ",
"                                                                ",
"                                                                ",
"                              O                                 ",
"                            O . # >                             ",
"                            % a D F t                           ",
"                            3 #.5.} y                           ",
"                        % 6 x *.M.y.T                           ",
"                        < K ' *.h.n...                          ",
"                        i { 8.k.z.n.o.g x                       ",
"                        = Z d.E.W.Z.6.+.O.E                     ",
"                O O       _ l.^.{.(.L.M.p.T                     ",
"                O O     v 2.^.{.{.{.{.H.*.u                     ",
"                      j [ g.^.{.{.{.{.D.` ,                     ",
"                      M y.M.(.{.{.{.`.s.U +                     ",
"                    q H :.k.`.{.{.{.{.S.<.n                     ",
"                    6 Q 6.b.`.{.{.{.`.^.G.3.] q                 ",
"                    1 Y 6.L.{.{.{.{.{.{.I.c.q.P                 ",
"                  % d >.Z.W.{.{.{.{.{.{.S.r.^ q                 ",
"                  % _ a.(.{.{.{.{.{.{.{.V. .j                   ",
"                    e &.T.`.{.{.{.{.{.{.B.~ 0                   ",
"                    d 4.c.G.{.{.{.{.{.^.t.! 6 .                 ",
"                  . p w.M.E.{.{.{.{.{.T.e.E >                   ",
"                    % ) z.`.{.{.{.{.{.H.,.C %                   ",
"                    t J $.C.{.{.'.'.'.v.| x                     ",
"                    # s L $.B.I.^.U.f.a.-.D                     ",
"                    - k A c X.1.@.0.( B V B                     ",
"                        4 2 H b 7 I B                           ",
"                                    -                           ",
"                                                                ",
"                                                                ",
"                                                                "
};
