/* XPM */
static char *flame71649924361[] = {
/* columns rows colors chars-per-pixel */
"32 32 193 2 ",
"   c None",
".  c #00255F",
"X  c #00265F",
"o  c #002560",
"O  c #002561",
"+  c #002660",
"@  c #002761",
"#  c #002862",
"$  c #002B67",
"%  c #022D68",
"&  c #012E69",
"*  c #022E68",
"=  c #022E69",
"-  c #022F6A",
";  c #02306B",
":  c #03306B",
">  c #01326D",
",  c #03326C",
"<  c #00326F",
"1  c #033570",
"2  c #023571",
"3  c #013673",
"4  c #043671",
"5  c #043974",
"6  c #053A75",
"7  c #053A76",
"8  c #033B78",
"9  c #043C78",
"0  c #073F7A",
"q  c #07407B",
"w  c #05407C",
"e  c #07417C",
"r  c #07427D",
"t  c #05417E",
"y  c #08417D",
"u  c #064380",
"i  c #094580",
"p  c #094784",
"a  c #0F4A83",
"s  c #0B4A85",
"d  c #0A4B87",
"f  c #0B4C88",
"g  c #0B4D89",
"h  c #0B4D8A",
"j  c #124A81",
"k  c #134E85",
"l  c #144F87",
"z  c #09508E",
"x  c #0A518F",
"c  c #0E518C",
"v  c #13548E",
"b  c #0E5490",
"n  c #0F5A97",
"m  c #0D5998",
"M  c #0F5B98",
"N  c #0F5C99",
"B  c #0C5C9B",
"V  c #175D96",
"C  c #185D95",
"Z  c #105D9A",
"A  c #105F9C",
"S  c #115F9C",
"D  c #1F6195",
"F  c #15609A",
"G  c #13629E",
"H  c #286797",
"J  c #2B6C9B",
"K  c #1967A2",
"L  c #1068A7",
"P  c #1968A3",
"I  c #1C6CA6",
"U  c #226BA1",
"Y  c #236CA0",
"T  c #226DA3",
"R  c #2470A6",
"E  c #2870A3",
"W  c #2871A5",
"Q  c #2371A8",
"!  c #2374AC",
"~  c #2A75A8",
"^  c #2B78AB",
"/  c #277DB4",
"(  c #447EA4",
")  c #2E86BA",
"_  c #2A85BC",
"`  c #2B85BC",
"'  c #3D8AB7",
"]  c #388EBF",
"[  c #4D8BAF",
"{  c #468EB7",
"}  c #498FB6",
"|  c #428FBA",
" . c #4590B9",
".. c #4792BB",
"X. c #4994BD",
"o. c #4C95BC",
"O. c #5096BA",
"+. c #4598C4",
"@. c #4B98C0",
"#. c #4A9BC4",
"$. c #4C9FC8",
"%. c #4EA1CA",
"&. c #54A3C8",
"*. c #5DA7C8",
"=. c #57A8CD",
"-. c #59AACE",
";. c #5FABCC",
":. c #64A9C7",
">. c #66ADCA",
",. c #79B9CE",
"<. c #6CB7D2",
"1. c #6FB8D3",
"2. c #70BBD5",
"3. c #72BED7",
"4. c #75BCD4",
"5. c #76BFD7",
"6. c #7ABED7",
"7. c #78C2D9",
"8. c #79C3DA",
"9. c #7CC2DA",
"0. c #7EC6DC",
"q. c #7FC7DC",
"w. c #83C7DA",
"e. c #8AC8D8",
"r. c #92D5E2",
"t. c #92D6E3",
"y. c #95D4E0",
"u. c #95D9E4",
"i. c #9DDFE8",
"p. c #A4E0E8",
"a. c #A6E5EA",
"s. c #A9E5EA",
"d. c #ACEAEC",
"f. c #AEEBED",
"g. c #B3EBEE",
"h. c #B7ECEE",
"j. c #BDEAEF",
"k. c #B7F3F1",
"l. c #BAF1F1",
"z. c #BEF3F2",
"x. c #BCF4F2",
"c. c #BEF4F2",
"v. c #BFF4F2",
"b. c #C1EEF1",
"n. c #C2F1F1",
"m. c #C6F1F2",
"M. c #C0F9F3",
"N. c #C0F9F4",
"B. c #C3F8F4",
"V. c #C3F9F4",
"C. c #C2FBF4",
"Z. c #C7FFF6",
"A. c #C9FFF6",
"S. c #C9FFF7",
"D. c #CAFFF7",
"F. c #CEFFF8",
"G. c #D3F3F6",
"H. c #D0F9F6",
"J. c #D1FAF6",
"K. c #D2FBF7",
"L. c #D4F9F6",
"P. c #D0FFF7",
"I. c #D0FFF8",
"U. c #D1FFF8",
"Y. c #D3FFF8",
"T. c #D2FFF9",
"R. c #DAFBF9",
"E. c #D9FFF9",
"W. c #D9FFFA",
"Q. c #DCFFF9",
"!. c #DCFFFA",
"~. c #DFFFFA",
"^. c #E5FFFB",
"/. c #E6FFFC",
"(. c #E9FFFB",
"). c #EDFFFC",
"_. c #EEFFFC",
"`. c #F0FFFD",
"'. c #F1FFFD",
"]. c #F2FFFD",
"[. c #F3FFFD",
"{. c #F4FFFD",
"}. c #F5FFFD",
"|. c #F4FFFE",
" X c #F6FFFE",
".X c #F7FFFE",
"XX c #FAFFFE",
"oX c #FAFFFF",
"OX c #FBFFFF",
"+X c #FCFFFF",
"@X c #FDFFFF",
"#X c #FEFFFF",
"$X c white",
/* pixels */
"                                                                ",
"                                                                ",
"                                > 0                             ",
"                            # : Z A                             ",
"                            s p Q o.                            ",
"                            M / 5.] c                           ",
"                            k w.w.%.P h y                       ",
"                            W -.=.7.+.^ 6                       ",
"                          B  .f.f.a.0.R -                       ",
"                        q l e.D.D.S.k.T $                       ",
"                        6 T n.^.!.Y.v.@.0                       ",
"                        > T l. X@X).F.<.b                       ",
"                        L $.V.(.@X@X!.u.Q B 0                   ",
"                    - . a y.(.@X@XOXF.Z.;.M                     ",
"                  - 4 - [ L.@X@X@X@XQ.M.#.t                     ",
"                      E b.@X@X@X@X@XOXJ.8.C                     ",
"                      2.^. X@X@X@X@X@X[.g.~                     ",
"                    > X.x._.@X@X@X@X@XOX6.                      ",
"                      F 8.].@X@X@X@X@X(.4.A                     ",
"                      *.s.[.@X@X@X@X@XQ.d.` t -                 ",
"                    v t.F.].@X@X@X@X@X].B.| 6 A i               ",
"                  u } V.K.[.@X@X@X@X@X@XR.( O b h               ",
"                  b 3.Y. X@X@X@X@X@X@X@XG.H                     ",
"                  4 ..z.OX@X@X@X@X@X@X@Xj.H                     ",
"                  : K t.c.F.].@X@X@X].K.&.r                     ",
"                  - G { H O.c.OX@XOXm.1.I 4 O                   ",
"                  O         ,.p.h.!.i.C                         ",
"                            ' ` ` >.:.j O                       ",
"                            0 d q 3 0 h   # #                   ",
"                    # #       . .           #                   ",
"                      #                                         ",
"                                                                "
};
