/* XPM */
static char *flame151649924362[] = {
/* columns rows colors chars-per-pixel */
"32 32 191 2 ",
"   c None",
".  c #00245E",
"X  c #002660",
"o  c #002761",
"O  c #002862",
"+  c #002864",
"@  c #002A65",
"#  c #002B65",
"$  c #002A66",
"%  c #002B66",
"&  c #012D67",
"*  c #022D67",
"=  c #012D68",
"-  c #002F6A",
";  c #002E6B",
":  c #02306A",
">  c #03316B",
",  c #03316C",
"<  c #03326C",
"1  c #03336E",
"2  c #04346F",
"3  c #09336A",
"4  c #0E396F",
"5  c #013976",
"6  c #053B77",
"7  c #063B76",
"8  c #073D78",
"9  c #073F7A",
"0  c #07437F",
"q  c #08417C",
"w  c #10447B",
"e  c #084480",
"r  c #094580",
"t  c #094682",
"y  c #0A4783",
"u  c #064887",
"i  c #0A4984",
"p  c #094A87",
"a  c #084C8A",
"s  c #114C85",
"d  c #114F88",
"f  c #0C518E",
"g  c #0D538F",
"h  c #145088",
"j  c #16548C",
"k  c #1B5488",
"l  c #0E5490",
"z  c #0D5794",
"x  c #0C5795",
"c  c #0F5794",
"v  c #175A92",
"b  c #165C95",
"n  c #165D96",
"m  c #1D5D93",
"M  c #185E97",
"N  c #1C5F96",
"B  c #105D99",
"V  c #105D9A",
"C  c #1E6095",
"Z  c #1C6096",
"A  c #1B659E",
"S  c #256294",
"D  c #236497",
"F  c #286B9D",
"G  c #1263A0",
"H  c #1366A3",
"J  c #136AA8",
"K  c #166EAC",
"L  c #1670AD",
"P  c #1E72AB",
"I  c #1B71AC",
"U  c #1471B1",
"Y  c #1772B0",
"T  c #1F77B1",
"R  c #216EA6",
"E  c #2D74A5",
"W  c #2277AF",
"Q  c #2779AF",
"!  c #2E7AAB",
"~  c #2D7BAE",
"^  c #2F7CAE",
"/  c #297EB5",
"(  c #417AA0",
")  c #3E82AC",
"_  c #2D81B5",
"`  c #2E84B9",
"'  c #2E85BA",
"]  c #3184B7",
"[  c #3E8BB7",
"{  c #388DBE",
"}  c #488FB7",
"|  c #4891B9",
" . c #4F98BE",
".. c #5293B8",
"X. c #5599BC",
"o. c #5F9EBB",
"O. c #69A5BF",
"+. c #4094C2",
"@. c #4B9FC9",
"#. c #529FC4",
"$. c #4EA1C9",
"%. c #53A6CC",
"&. c #5CADD0",
"*. c #68A9C3",
"=. c #62ABCA",
"-. c #67AECB",
";. c #72ADC3",
":. c #6CB0CA",
">. c #6BB2CD",
",. c #7BB5CA",
"<. c #67B5D3",
"1. c #67B5D4",
"2. c #81B6C6",
"3. c #81C7DA",
"4. c #8ACCDB",
"5. c #8CCCDA",
"6. c #8FCFDB",
"7. c #8ECFDE",
"8. c #90CEDB",
"9. c #90D1DE",
"0. c #93D4DF",
"q. c #94D4DF",
"w. c #90D3E1",
"e. c #92D3E1",
"r. c #91D5E3",
"t. c #93D7E3",
"y. c #95D5E0",
"u. c #94D9E4",
"i. c #96DAE5",
"p. c #99D9E5",
"a. c #9CDAE6",
"s. c #9EDFE7",
"d. c #A0E0E8",
"f. c #AFEBEC",
"g. c #B2EDEE",
"h. c #B2EDEF",
"j. c #B0EEEE",
"k. c #B8EFEF",
"l. c #B6F2F0",
"z. c #B7F3F1",
"x. c #B9F0F0",
"c. c #BDF4F2",
"v. c #C1EEF1",
"b. c #C0F4F2",
"n. c #C8F2F3",
"m. c #CFF2F3",
"M. c #C1FBF4",
"N. c #CFFBF6",
"B. c #CFFBF7",
"V. c #C9FFF5",
"C. c #C8FFF6",
"Z. c #C9FFF6",
"A. c #C8FFF7",
"S. c #C9FFF7",
"D. c #CBFFF7",
"F. c #CEFFF7",
"G. c #CBFFF8",
"H. c #CFFFF9",
"J. c #D1F9F6",
"K. c #D3FBF7",
"L. c #D0FFF7",
"P. c #D1FFF9",
"I. c #D2FFF8",
"U. c #D2FFF9",
"Y. c #D3FFF9",
"T. c #D4FFF9",
"R. c #DBFFF9",
"E. c #DDFFFA",
"W. c #E2FFFA",
"Q. c #E3FFFB",
"!. c #E4FFFB",
"~. c #E6FFFB",
"^. c #E6FFFC",
"/. c #EBFEFB",
"(. c #E9FFFC",
"). c #EBFFFC",
"_. c #EDFFFC",
"`. c #EEFEFC",
"'. c #EFFFFC",
"]. c #EEFFFD",
"[. c #F0FFFC",
"{. c #F0FFFD",
"}. c #F1FFFD",
"|. c #F8FFFE",
" X c #F9FFFE",
".X c #FAFFFE",
"XX c #FBFFFE",
"oX c #FCFFFF",
"OX c #FDFFFF",
"+X c #FEFFFF",
"@X c white",
/* pixels */
"                                                                ",
"                                                                ",
"                                                                ",
"                                O                               ",
"                              1 O                               ",
"                              V p                               ",
"                              w  .W                             ",
"                            O j 4.$.I m                         ",
"                          c f / s.s.t.=.                        ",
"                            u >.G.A.t.`                         ",
"                            5 ,.Y.l.^ -                         ",
"                        1 P ..m.Y.l.S 3 D                       ",
"                        - [ c.OX'.Y.;.2.f.X.                    ",
"                          } J.'.[.F.M.A.G.s.C                   ",
"                  O o   ' a. X X XW.A.A.5.!                     ",
"                  o > J :.E.OXOXOXOXT.8.k                       ",
"                    0 _ v.OXOXOXOXOX[.e.T Q                     ",
"                    $ o.^.OXOXOXOXOXOXn.@.1.b                   ",
"              * 7 a C 0.!.OXOXOXOXOXOX[.k.&.b                   ",
"              - A <.u.A.L.OXOXOXOXOXOXOX[.J.-.                  ",
"                h y.H.A.E.OXOXOXOXOXOXOXOX!.*.                  ",
"                  ) q.F. XOXOXOXOXOXOXOX Xb.E $                 ",
"                    R p.[.OXOXOXOXOXOXOXE.e.M                   ",
"                    c %.k.`.OXOXOXOXOXOXL.9.N                   ",
"                    r ] +.h.(.OXOXOXOX(.h.O.4                   ",
"              > l     r r #.L.!.(.^.J.7.^ 7 . O                 ",
"              1 H f     o s 5.h.3.u.| h $ q y                   ",
"                q           ( F v { U G * r K p                 ",
"                              * $ z U r O 8 L V                 ",
"                                            8 2                 ",
"                                                                ",
"                                                                "
};
