/* XPM */
static char *flame161649924362[] = {
/* columns rows colors chars-per-pixel */
"32 32 195 2 ",
"   c None",
".  c #002761",
"X  c #002862",
"o  c #002963",
"O  c #012A64",
"+  c #002B65",
"@  c #002B66",
"#  c #002C67",
"$  c #002C68",
"%  c #022E68",
"&  c #022F69",
"*  c #02306B",
"=  c #03326D",
"-  c #00326F",
";  c #04336E",
":  c #04346F",
">  c #013471",
",  c #023773",
"<  c #053671",
"1  c #053873",
"2  c #033A77",
"3  c #053974",
"4  c #063A75",
"5  c #073F7A",
"6  c #06437F",
"7  c #08417D",
"8  c #09447F",
"9  c #084480",
"0  c #094581",
"q  c #094681",
"w  c #0A4783",
"e  c #084784",
"r  c #0A4883",
"t  c #0A4884",
"y  c #0A4984",
"u  c #084986",
"i  c #0B4B86",
"p  c #094C8A",
"a  c #0E4F89",
"s  c #0C4F8B",
"d  c #104C85",
"f  c #124E87",
"g  c #0A528F",
"h  c #0C508C",
"j  c #0C518D",
"k  c #1A5186",
"l  c #12558E",
"z  c #0E5591",
"x  c #0E5693",
"c  c #0A5796",
"v  c #0E5895",
"b  c #125791",
"n  c #1E5C91",
"m  c #185F97",
"M  c #165E98",
"N  c #115F9C",
"B  c #17619B",
"V  c #11609D",
"C  c #12629E",
"Z  c #12629F",
"A  c #19629B",
"S  c #1F679D",
"D  c #22659A",
"F  c #29699A",
"G  c #286B9D",
"H  c #376C96",
"J  c #1363A0",
"K  c #1265A3",
"L  c #146BA9",
"P  c #1770AE",
"I  c #1771AF",
"U  c #1E77B2",
"Y  c #1A7AB8",
"T  c #1F7CB8",
"R  c #226BA0",
"E  c #226BA1",
"W  c #246EA3",
"Q  c #2371A7",
"!  c #2E75A5",
"~  c #2F7FB2",
"^  c #2D82B6",
"/  c #2780B8",
"(  c #2C83B9",
")  c #3684B3",
"_  c #3788B8",
"`  c #328ABD",
"'  c #388BBB",
"]  c #3F8BB8",
"[  c #398EBE",
"{  c #4484AB",
"}  c #4386AF",
"|  c #4488B1",
" . c #4C90B5",
".. c #4393BE",
"X. c #4990B8",
"o. c #4D94BA",
"O. c #5799B9",
"+. c #3C93C3",
"@. c #4092C0",
"#. c #4A99C1",
"$. c #4D9AC2",
"%. c #4F9DC4",
"&. c #509FC6",
"*. c #51A1C7",
"=. c #66A5C1",
"-. c #6CB3CE",
";. c #6FB5CE",
":. c #71B6CE",
">. c #75B6CD",
",. c #68B5D3",
"<. c #6FB5D2",
"1. c #70B9D2",
"2. c #72BAD3",
"3. c #75BAD2",
"4. c #77BFD6",
"5. c #70BDD8",
"6. c #90C2CE",
"7. c #80C5D8",
"8. c #86CDDF",
"9. c #90D1DF",
"0. c #93D3DF",
"q. c #8BD0E0",
"w. c #8FD1E0",
"e. c #90D4E1",
"r. c #95D5E0",
"t. c #93D7E4",
"y. c #96D9E4",
"u. c #96DAE4",
"i. c #96DAE5",
"p. c #9BDDE6",
"a. c #A2DFE4",
"s. c #A1DDE7",
"d. c #A3DFE8",
"f. c #A2E2E8",
"g. c #A5E4EA",
"h. c #B3EDEC",
"j. c #B1EEEE",
"k. c #B5EDEF",
"l. c #B6EEEF",
"z. c #B7F1EF",
"x. c #BDF3F1",
"c. c #B8F4F1",
"v. c #B9F4F1",
"b. c #B9F5F2",
"n. c #BEF4F2",
"m. c #C0F3F2",
"M. c #C9F3F4",
"N. c #C0FAF4",
"B. c #C1FAF4",
"V. c #C2FBF4",
"C. c #C2FBF5",
"Z. c #C6F9F4",
"A. c #C4FAF5",
"S. c #CAFAF5",
"D. c #CFF8F6",
"F. c #C8FCF6",
"G. c #C9FFF6",
"H. c #CAFFF6",
"J. c #CAFFF7",
"K. c #CBFFF7",
"L. c #CEFFF7",
"P. c #CBFFF8",
"I. c #CCFFF8",
"U. c #D0FFF7",
"Y. c #D2FFF7",
"T. c #D1FFF8",
"R. c #D5FEF8",
"E. c #D4FFF8",
"W. c #D5FFF8",
"Q. c #D4FFF9",
"!. c #D9FFF9",
"~. c #DBFFF9",
"^. c #DBFFFA",
"/. c #DCFFF9",
"(. c #E1FEFA",
"). c #E2FFFA",
"_. c #E3FFFA",
"`. c #E3FFFB",
"'. c #E6FFFB",
"]. c #EBFEFB",
"[. c #ECFFFC",
"{. c #ECFFFD",
"}. c #EFFFFC",
"|. c #EFFFFD",
" X c #F5FFFD",
".X c #F7FFFE",
"XX c #F8FFFE",
"oX c #F9FFFE",
"OX c #FAFFFE",
"+X c #FBFFFE",
"@X c #FBFFFF",
"#X c #FCFFFF",
"$X c #FDFFFF",
"%X c #FEFFFF",
"&X c white",
/* pixels */
"                                                                ",
"                                                                ",
"                                                                ",
"                              . X                               ",
"                              < O                               ",
"                                A h                             ",
"                              , &.^ l                           ",
"                          & 3 B +.8.q.|                         ",
"                            2 ..y.G.9.`                         ",
"                              =.P.z.F                           ",
"                          K D e.I.k.n &                         ",
"                        & V 5.Q.E.n.X.} $.t                     ",
"                          G k.).E.G.g.v.c.] ,                   ",
"                    O     6.|. X).G.K.G.k.{ O                   ",
"                  q : l -.Y.+X&X&X/.V.>.)                       ",
"                    e ' s.|.&X&X&X+X`.<.c g                     ",
"                      ! M.&X&X&X&X&X+Xm.4.+.6                   ",
"                t x   O.D.+X&X&X&X&X&X).P.t.M                   ",
"              3 V U o.r.W.+X&X&X&X&X&X|.Q.V. .                  ",
"                d 7.V.G.I.+X&X&X&X&X&X&X+XW.2.                  ",
"                  :.V.I.{.&X&X&X&X&X&X&X+XA.&.                  ",
"                  f 2.I.+X&X&X&X&X&X&X&X+Xs.W # .               ",
"                  - ~ v.`.&X&X&X&X&X&X&X`.e.B                   ",
"                    D f.x.].&X&X&X&X&X&X/.s.k                   ",
"                      R [ l. X+X&X&X+X{.F.:.7                   ",
"              r J z   # h *.n.!.!.).F.w.#.R * X                 ",
"              8 P V       p 3.y.p.y.,./ t v q                   ",
"                5           H Q _ ( T L s J P i                 ",
"                                u q g 3 = N Y V                 ",
"                                          i s =                 ",
"                                                                ",
"                                                                "
};
