/* XPM */
static char *flame101649924361[] = {
/* columns rows colors chars-per-pixel */
"32 32 186 2 ",
"   c None",
".  c #00245F",
"X  c #002660",
"o  c #002761",
"O  c #002862",
"+  c #002963",
"@  c #002C67",
"#  c #012C67",
"$  c #012E68",
"%  c #012E69",
"&  c #022E68",
"*  c #002E6B",
"=  c #002F6B",
"-  c #03326C",
";  c #03326D",
":  c #02336E",
">  c #03336E",
",  c #043671",
"<  c #043772",
"1  c #053873",
"2  c #033874",
"3  c #023976",
"4  c #053974",
"5  c #063B76",
"6  c #033D79",
"7  c #043C78",
"8  c #073E79",
"9  c #033F7C",
"0  c #0D4078",
"q  c #08427D",
"w  c #09447F",
"e  c #0B447F",
"r  c #084480",
"t  c #094580",
"y  c #0A4580",
"u  c #0A4682",
"i  c #084985",
"p  c #084986",
"a  c #0A4B87",
"s  c #0B4D89",
"d  c #084E8C",
"f  c #0B4F8C",
"g  c #13538B",
"h  c #14528A",
"j  c #10528D",
"k  c #19548A",
"l  c #1A558B",
"z  c #18578E",
"x  c #0E5591",
"c  c #0D5592",
"v  c #0F5894",
"b  c #0F5895",
"n  c #0D5C9A",
"m  c #165890",
"M  c #1F5D92",
"N  c #175F98",
"B  c #115F9C",
"V  c #265C8C",
"C  c #275F8F",
"Z  c #1F6297",
"A  c #206195",
"S  c #21669B",
"D  c #276698",
"F  c #27699B",
"G  c #1A6BA6",
"H  c #1B6CA6",
"J  c #136DAC",
"K  c #1E6FA8",
"L  c #1871AF",
"P  c #1F74AE",
"I  c #1778B7",
"U  c #1979B8",
"Y  c #246FA4",
"T  c #2772A6",
"R  c #3877A2",
"E  c #3A7AA4",
"W  c #2579B0",
"Q  c #3F84AF",
"!  c #2683BC",
"~  c #2881B8",
"^  c #2981B8",
"/  c #2F85B9",
"(  c #2B87BE",
")  c #3582B2",
"_  c #398CBD",
"`  c #4A83A7",
"'  c #4A85AA",
"]  c #4A8CB3",
"[  c #4291BC",
"{  c #4B97BF",
"}  c #4396C3",
"|  c #4397C3",
" . c #4A99C1",
".. c #4C9CC5",
"X. c #4F9EC5",
"o. c #529DC2",
"O. c #4DA0C9",
"+. c #4EA2CA",
"@. c #5AA2C3",
"#. c #5AA5C6",
"$. c #57A5C9",
"%. c #5EAACB",
"&. c #5BACD0",
"*. c #5FAFD0",
"=. c #62A8C6",
"-. c #67AECA",
";. c #67B5D3",
":. c #6BB5D1",
">. c #6EB7D2",
",. c #88C5D4",
"<. c #85C9DD",
"1. c #87CBDE",
"2. c #8BCEDE",
"3. c #90D0DD",
"4. c #91D2DE",
"5. c #8BD0E0",
"6. c #95D5E0",
"7. c #97D6E2",
"8. c #93D7E4",
"9. c #9ADAE5",
"0. c #9ADDE7",
"q. c #9EDCE5",
"w. c #9EDFE7",
"e. c #A3DDE7",
"r. c #A6E1E6",
"t. c #A3E2E8",
"y. c #A5E5EA",
"u. c #A7E6EA",
"i. c #A6E6EB",
"p. c #A8E7EB",
"a. c #AAE6EB",
"s. c #B0E6E9",
"d. c #B5EFEC",
"f. c #B9EFED",
"g. c #B5F0EE",
"h. c #B6F1EF",
"j. c #BAF0EF",
"k. c #B4F1F0",
"l. c #B7F3F0",
"z. c #B7F3F1",
"x. c #B8F3F1",
"c. c #BDF2F1",
"v. c #BAF5F2",
"b. c #C2F0F2",
"n. c #C0F4F2",
"m. c #C2F7F3",
"M. c #C6F4F3",
"N. c #C3FBF4",
"B. c #C5F8F4",
"V. c #C5F9F4",
"C. c #C5FBF4",
"Z. c #C7FEF6",
"A. c #C7FFF6",
"S. c #C9F9F5",
"D. c #CBF8F5",
"F. c #C9FFF7",
"G. c #CAFFF7",
"H. c #CDFCF6",
"J. c #CEFFF7",
"K. c #CFFFF7",
"L. c #D3FFF8",
"P. c #D4FFF8",
"I. c #D7FFFA",
"U. c #D8FFF9",
"Y. c #DAFFF9",
"T. c #DBFFFA",
"R. c #DDFFFB",
"E. c #DEFFFA",
"W. c #E4FFFB",
"Q. c #E5FFFB",
"!. c #E7FFFC",
"~. c #E9FFFC",
"^. c #EDFFFC",
"/. c #EDFFFD",
"(. c #EEFEFC",
"). c #F0FFFD",
"_. c #F1FFFD",
"`. c #F4FFFD",
"'. c #F6FFFE",
"]. c #F8FFFE",
"[. c #FAFFFE",
"{. c #FBFFFE",
"}. c #FBFFFF",
"|. c #FDFFFF",
" X c #FEFFFF",
".X c white",
/* pixels */
"                                O                               ",
"                                # 1                             ",
"                                  =                             ",
"                                                                ",
"                              = i 8 #                           ",
"                            V ] _ J r                           ",
"                            =.x.q.+.P                           ",
"                            ' y.Z.z.Q                           ",
"                          q X.x.Z.x.M .                         ",
"                          k 2.Z.F.0.z =                         ",
"                          ,.F.L.K.g.R 6                         ",
"                        T g.F.W./.H.#.'                         ",
"                        T g.J.)..X~.9.&./                       ",
"                          6.Y..X.X].L.t.A                       ",
"                          :.!..X.X.X/.f.V 6                     ",
"                        { q.)..X.X.X].Y.-.= > 4                 ",
"                      z 4.I.]..X.X.X.X!.4.8 , 5                 ",
"                      F f.'..X.X.X.X.XW.d.E f e                 ",
"                      S b..X.X.X.X.X.X).1.( U B                 ",
"                    n  .S.]..X.X.X.X.X].B.*.I c                 ",
"                    G 8.K..X.X.X.X.X.X].e.Y c b                 ",
"                  D $.C.(..X.X.X.X.X.X.Xs.z X                   ",
"                  H +.c.]..X.X.X.X.X.X].B.o.r +                 ",
"                  3 [ y.~.]..X.X.X.X.X).7.} Z                   ",
"                  i ..p.1.D.]..X.X.X.XR.>.d < O                 ",
"                  e L ! ~ r.(..X].'.W.a.@.3 m >                 ",
"                  = s i r ) M.Y.n.n.z.;.j X >                   ",
"                      X = W p.2.| =.~ K > O X                   ",
"                      O O e Z g u h                             ",
"                              = O                               ",
"                                    O                           ",
"                                                                "
};
