/* XPM */
static char *flame31649924360[] = {
/* columns rows colors chars-per-pixel */
"32 32 172 2 ",
"   c None",
".  c #002760",
"X  c #002761",
"o  c #002862",
"O  c #002A64",
"+  c #002B65",
"@  c #002B66",
"#  c #012B66",
"$  c #012C66",
"%  c #002D68",
"&  c #022E68",
"*  c #002F6A",
"=  c #012F6A",
"-  c #022F6A",
";  c #03306A",
":  c #00306C",
">  c #07356E",
",  c #043672",
"<  c #053873",
"1  c #063A75",
"2  c #063C77",
"3  c #083C75",
"4  c #063D78",
"5  c #063F7B",
"6  c #073F7B",
"7  c #083D78",
"8  c #09437E",
"9  c #054481",
"0  c #094581",
"q  c #0F4A83",
"w  c #0B4B86",
"e  c #0B4B87",
"r  c #194E83",
"t  c #0B528F",
"y  c #0D508D",
"u  c #1B5185",
"i  c #12528B",
"p  c #14518A",
"a  c #13548D",
"s  c #13548E",
"d  c #18588F",
"f  c #0F5591",
"g  c #0E5A97",
"h  c #175D97",
"j  c #105C99",
"k  c #215E92",
"l  c #1C6096",
"z  c #1E6197",
"x  c #1F649A",
"c  c #1E659C",
"v  c #21669B",
"b  c #26689A",
"n  c #1062A0",
"m  c #1162A0",
"M  c #1063A1",
"N  c #1B67A0",
"B  c #1369A7",
"V  c #1D6BA4",
"C  c #126CAB",
"Z  c #1D6FA8",
"A  c #1471B0",
"S  c #1E79B5",
"D  c #216BA1",
"F  c #246EA3",
"G  c #2676AC",
"H  c #2679AF",
"J  c #2978AD",
"K  c #2C7DB1",
"L  c #2E83B6",
"P  c #2F83B7",
"I  c #3483B3",
"U  c #378CBD",
"Y  c #3B8FBF",
"T  c #4086B1",
"R  c #428AB4",
"E  c #4C97BF",
"W  c #4F98BE",
"Q  c #5099BF",
"!  c #4A97C0",
"~  c #459BC7",
"^  c #4A9CC5",
"/  c #4CA0C9",
"(  c #6CA9C2",
")  c #6BADC7",
"_  c #60ACCD",
"`  c #68B5D3",
"'  c #70B7D2",
"]  c #71B8D2",
"[  c #72B8D3",
"{  c #74B9D0",
"}  c #75B9D0",
"|  c #71BDD7",
" . c #79BED5",
".. c #71BDD8",
"X. c #74BFD9",
"o. c #76C1D9",
"O. c #77C1D9",
"+. c #80C4D7",
"@. c #87C7D8",
"#. c #83CCDE",
"$. c #8BCEDC",
"%. c #97D3DF",
"&. c #88CFE0",
"*. c #8AD0E0",
"=. c #8DD2E1",
"-. c #95D4E0",
";. c #94D8E4",
":. c #9BDDE6",
">. c #9CDCE4",
",. c #A8D9E3",
"<. c #A4E0E4",
"1. c #ABE6E7",
"2. c #A0E0E8",
"3. c #A6E4E9",
"4. c #ACE7E8",
"5. c #B2EAED",
"6. c #B2EFEF",
"7. c #B4F0EF",
"8. c #B6F3F1",
"9. c #BAF1F0",
"0. c #B8F4F1",
"q. c #B9F4F1",
"w. c #BCF6F2",
"e. c #BFFAF4",
"r. c #C1F6F3",
"t. c #C8F1F2",
"y. c #CEF3F4",
"u. c #CAF4F4",
"i. c #C3FAF4",
"p. c #C2FBF4",
"a. c #C7FAF5",
"s. c #C7FFF6",
"d. c #CFF8F5",
"f. c #C9FFF7",
"g. c #CBFFF7",
"h. c #CCFFF7",
"j. c #CEFFF7",
"k. c #CFFFF8",
"l. c #D0FFF8",
"z. c #D1FFF8",
"x. c #D2FFF8",
"c. c #D3FFF8",
"v. c #D3FFF9",
"b. c #D7FFF9",
"n. c #DDFBF9",
"m. c #D8FFF9",
"M. c #D9FFF9",
"N. c #DAFFF9",
"B. c #DBFFF9",
"V. c #DBFFFA",
"C. c #DDFFFA",
"Z. c #DEFFFB",
"A. c #E5FEFB",
"S. c #E5FFFB",
"D. c #E6FFFB",
"F. c #E7FFFC",
"G. c #EBFFFC",
"H. c #EDFFFC",
"J. c #EFFFFC",
"K. c #EFFFFD",
"L. c #F0FFFD",
"P. c #F0FFFE",
"I. c #F1FFFE",
"U. c #F4FFFE",
"Y. c #F7FFFE",
"T. c #FAFFFE",
"R. c #FBFFFF",
"E. c #FCFFFE",
"W. c #FCFFFF",
"Q. c #FDFFFF",
"!. c #FEFFFF",
"~. c white",
/* pixels */
"                                                                ",
"                                                                ",
"                                o                               ",
"                                X o                             ",
"                            < e 2 X                             ",
"                            y n n t                             ",
"                            7 ! O.^ 8                           ",
"                        X   F 3.k.6.b                           ",
"                        $ g A O.h.g.)                           ",
"                        3 P ` :.h.l.1.k                         ",
"                        J >.g.m.m.h.7.Y R w                     ",
"                &         } l.Y.!.H.r.2.q.!                     ",
"                0 1       -.D.!.!.!.L.C.p.!                     ",
"                  &   * I t.!.!.!.!.!.Y.5.z                     ",
"                    $ h &.m.!.!.!.!.T.l.( 4 &                   ",
"                    & v 0.m.!.!.!.!.!.u.U                       ",
"                    p _ w.l.T.!.!.!.!.D.;.W                     ",
"                    f ^ q.m.!.!.!.!.!.T.C.p.@.d                 ",
"                    s O.g.D.!.!.!.!.!.!.H.h.=.Z                 ",
"                  8 j  .C.T.!.!.!.!.!.!.C.$.h 5                 ",
"                    9 ' L.!.!.!.!.!.!.!.y.P & &                 ",
"                    , } m.L.!.!.!.!.!.L.9.H & X                 ",
"                    u <.g.l.T.!.!.!.!.D.e.T +                   ",
"                  o ; W q.m.!.!.!.!.!.d.| G 4                   ",
"                    X s &.a.T.!.!.!.L.p./ C                     ",
"                      > D [ n.L.G.F.,.4...K                     ",
"                      X + w ' -.O.#.x r c V                     ",
"                        X & c p n S B                           ",
"                                                                ",
"                                                                ",
"                                                                ",
"                                                                "
};
