/* XPM */
static char *flame171649924362[] = {
/* columns rows colors chars-per-pixel */
"32 32 194 2 ",
"   c None",
".  c #00235D",
"X  c #002660",
"o  c #002661",
"O  c #002761",
"+  c #002862",
"@  c #002863",
"#  c #022962",
"$  c #012C67",
"%  c #022E68",
"&  c #022F6A",
"*  c #02326D",
"=  c #04346E",
"-  c #04356F",
";  c #003370",
":  c #033773",
">  c #043570",
",  c #043671",
"<  c #043874",
"1  c #053A75",
"2  c #083871",
"3  c #063D78",
"4  c #063D79",
"5  c #08437E",
"6  c #08437F",
"7  c #09447F",
"8  c #074581",
"9  c #084683",
"0  c #0A4682",
"q  c #0A4782",
"w  c #0A4883",
"e  c #094885",
"r  c #0A4884",
"t  c #084C89",
"y  c #0B4C88",
"u  c #0A4D8A",
"i  c #0C4D89",
"p  c #0C4F8B",
"a  c #134A81",
"s  c #144C82",
"d  c #124F88",
"f  c #0C508C",
"g  c #0D528E",
"h  c #1B5286",
"j  c #135189",
"k  c #11528C",
"l  c #13558E",
"z  c #0B5492",
"x  c #0F5490",
"c  c #0E5491",
"v  c #0F5A96",
"b  c #115691",
"n  c #145A94",
"m  c #1F5C91",
"M  c #195E95",
"N  c #1A5F97",
"B  c #105C99",
"V  c #145E99",
"C  c #165F99",
"Z  c #11609C",
"A  c #11609D",
"S  c #186099",
"D  c #1B659E",
"F  c #2C6593",
"G  c #21669B",
"H  c #256C9F",
"J  c #296B9C",
"K  c #2C6C9D",
"L  c #1467A4",
"P  c #1368A5",
"I  c #1568A4",
"U  c #1A69A2",
"Y  c #1C68A0",
"T  c #1F6CA4",
"R  c #1D6EA8",
"E  c #1772B0",
"W  c #1E76B1",
"Q  c #206BA2",
"!  c #246DA2",
"~  c #296FA1",
"^  c #2470A6",
"/  c #2877AB",
"(  c #2077B0",
")  c #207CB6",
"_  c #297FB4",
"`  c #287EB5",
"'  c #227FBA",
"]  c #2681B9",
"[  c #2F87BB",
"{  c #2D87BD",
"}  c #3783B2",
"|  c #3786B6",
" . c #348CBF",
".. c #3D90BF",
"X. c #4190BC",
"o. c #4091BD",
"O. c #4394BF",
"+. c #5395B8",
"@. c #5197BB",
"#. c #5F9EBD",
"$. c #3A8FC0",
"%. c #3C94C4",
"&. c #529EC3",
"*. c #53A0C5",
"=. c #53A2C7",
"-. c #56A5C9",
";. c #5FAED0",
":. c #64A9C6",
">. c #6AA8C2",
",. c #63AECE",
"<. c #6DB0CA",
"1. c #6CB2CD",
"2. c #72B1C8",
"3. c #62B1D1",
"4. c #65B3D2",
"5. c #69B5D2",
"6. c #68B5D3",
"7. c #6CB5D0",
"8. c #7BBFD5",
"9. c #7EC4D7",
"0. c #7CC4DA",
"q. c #81C3D5",
"w. c #87CEDF",
"e. c #9DCEDE",
"r. c #91D1DE",
"t. c #90D1DF",
"y. c #92D2DE",
"u. c #8AD1E1",
"i. c #8ED0E0",
"p. c #9BD9E5",
"a. c #9EDDE7",
"s. c #9DDFE7",
"d. c #A0DAE0",
"f. c #A1E2E9",
"g. c #A4E4E9",
"h. c #A5E4EA",
"j. c #B0EBEE",
"k. c #B1ECEE",
"l. c #B1EDEE",
"z. c #BAEAEE",
"x. c #B7F3F1",
"c. c #B8F1F0",
"v. c #BBF1F1",
"b. c #BAF2F1",
"n. c #B9F4F1",
"m. c #BDF6F2",
"M. c #BEF8F2",
"N. c #C5F0F2",
"B. c #C8F3F4",
"V. c #C2F8F3",
"C. c #C2F9F4",
"Z. c #C6FAF5",
"A. c #C4FCF5",
"S. c #C7FFF7",
"D. c #CAF8F5",
"F. c #CDFAF6",
"G. c #C9FFF6",
"H. c #CDFFF7",
"J. c #CBFFF8",
"K. c #CEFFF8",
"L. c #CFFFF8",
"P. c #D0F3F5",
"I. c #D0FFF7",
"U. c #D1FFF8",
"Y. c #D1FFF9",
"T. c #D3FFF8",
"R. c #DCF9F8",
"E. c #DAFFF9",
"W. c #D9FFFA",
"Q. c #DEFEF9",
"!. c #DDFFFA",
"~. c #DEFFFA",
"^. c #DFFFFA",
"/. c #DEFFFB",
"(. c #E2F8F9",
"). c #E3FFFA",
"_. c #E3FFFB",
"`. c #E4FFFB",
"'. c #E7FFFB",
"]. c #E8FFFC",
"[. c #EAFFFC",
"{. c #EEFFFD",
"}. c #EFFFFD",
"|. c #F0FFFD",
" X c #F1FFFD",
".X c #F4FFFD",
"XX c #F7FFFE",
"oX c #F9FFFE",
"OX c #FAFFFE",
"+X c #FBFFFE",
"@X c #FBFFFF",
"#X c #FDFFFF",
"$X c #FEFFFF",
"%X c white",
/* pixels */
"                                                                ",
"                                                                ",
"                                                                ",
"                                                                ",
"                                Z g                             ",
"                                q g u >                         ",
"                              4 z e B q                         ",
"                              N ,.O.I                           ",
"                          $ s 2.f.6.C O                         ",
"                          < ^ x.A.t.l d 2                       ",
"                          c =.C.H.h.{  .j                       ",
"                          { z.).F.4.3...q #                     ",
"                        R -.R.#X~.M.m.l...e                     ",
"                    v ) w.Z. X#XOX`.L.s.O.                      ",
"                    u _ b.{.#X#X#X#X{.p.| J #                   ",
"                      ! b.#X#X#X#X#X#X~.x.d.F                   ",
"            % u q <   / N.#X#X#X#X#X#XT.G.G.#.                  ",
"            > L E U < ~ B.#X#X#X#X#X#X`.I.D.&.                  ",
"              > q =.1.r.H.OX#X#X#X#X#XOXE.c.}                   ",
"                  D 0.L.T.OX#X#X#X#X#X#X[.V.;.7                 ",
"                    7.U.XX#X#X#X#X#X#X#XOXH.q.k 4               ",
"                    <.U.XX#X#X#X#X#X#X#X[.r.m                   ",
"                    >.L.).#X#X#X#X#X#X#X#Xe.N                   ",
"                  O h :.8.(.#X#X#X#X#X#X#XP.H                   ",
"                B 4 O ; T l.~.OX#X#X#X XE.t.S                   ",
"              g ' K     e +.x.E.[. X).Z.u.] q O                 ",
"                b a         5.9.j.s.g.+.n W $.                  ",
"                            D C G ( Q   . c %._                 ",
"                                  6 *     i P                   ",
"                                      %   % =                   ",
"                              #                                 ",
"                                                                "
};
