/* XPM */
static char *flame111649924362[] = {
/* columns rows colors chars-per-pixel */
"32 32 206 2 ",
"   c None",
".  c #00215D",
"X  c #00255F",
"o  c #002761",
"O  c #002861",
"+  c #002963",
"@  c #012A64",
"#  c #012C66",
"$  c #002C67",
"%  c #002D67",
"&  c #022D67",
"*  c #022E69",
"=  c #03306A",
"-  c #03316B",
";  c #03336D",
":  c #00336F",
">  c #03336E",
",  c #04336E",
"<  c #033570",
"1  c #033671",
"2  c #033773",
"3  c #043671",
"4  c #043771",
"5  c #023875",
"6  c #053B76",
"7  c #063B77",
"8  c #043D79",
"9  c #063E79",
"0  c #063F7B",
"q  c #04407D",
"w  c #07407C",
"e  c #06417E",
"r  c #08417D",
"t  c #08427D",
"y  c #08427E",
"u  c #174A7E",
"i  c #044583",
"p  c #094681",
"a  c #0B4681",
"s  c #094783",
"d  c #0A4782",
"f  c #084784",
"g  c #094784",
"h  c #0A4884",
"j  c #094A87",
"k  c #0A4C89",
"l  c #0B4F8B",
"z  c #134F86",
"x  c #0B518E",
"c  c #0D518E",
"v  c #0D538F",
"b  c #16538B",
"n  c #17548A",
"m  c #0D5490",
"M  c #0D5795",
"N  c #0C5896",
"B  c #165991",
"V  c #105A96",
"C  c #175B94",
"Z  c #1C5F96",
"A  c #105C98",
"S  c #105C99",
"D  c #115D9A",
"F  c #16609A",
"G  c #17609A",
"H  c #1B659D",
"J  c #1F669D",
"K  c #206297",
"L  c #2F6D9C",
"P  c #1767A3",
"I  c #1866A0",
"U  c #1368A5",
"Y  c #1369A7",
"T  c #1A68A2",
"R  c #146BA9",
"E  c #156DAA",
"W  c #146DAC",
"Q  c #1671AF",
"!  c #1E71AB",
"~  c #1E76B1",
"^  c #1D77B3",
"/  c #1F78B2",
"(  c #1978B7",
")  c #1A7AB8",
"_  c #1F7EB9",
"`  c #2672A7",
"'  c #2C72A3",
"]  c #2572A8",
"[  c #2374AB",
"{  c #2876AA",
"}  c #2A79AD",
"|  c #347BAA",
" . c #2379B2",
".. c #217CB7",
"X. c #207DB8",
"o. c #207EB9",
"O. c #407BA3",
"+. c #3B80AC",
"@. c #2F80B3",
"#. c #2280BB",
"$. c #2983BB",
"%. c #3087BB",
"&. c #418CB7",
"*. c #408EBB",
"=. c #4795BF",
"-. c #4994BD",
";. c #5F9FBC",
":. c #358FC1",
">. c #3F96C4",
",. c #4293C0",
"<. c #4294C1",
"1. c #4396C2",
"2. c #4599C5",
"3. c #4DA1CA",
"4. c #5BA3C5",
"5. c #53A2C8",
"6. c #58A9CD",
"7. c #5DADCF",
"8. c #65B1CF",
"9. c #6BB1CC",
"0. c #6CB3CE",
"q. c #69B3D1",
"w. c #6CB7D2",
"e. c #6DB9D5",
"r. c #6FBBD6",
"t. c #70B9D2",
"y. c #74B8D0",
"u. c #72BDD7",
"i. c #7ABED6",
"p. c #81C5D7",
"a. c #81C7DB",
"s. c #85C9DA",
"d. c #81C9DC",
"f. c #86CBDE",
"g. c #8ACAD8",
"h. c #89CCDC",
"j. c #88CEDF",
"k. c #92D1DB",
"l. c #8AD0E0",
"z. c #92D2E1",
"x. c #97D2E0",
"c. c #99D7E4",
"v. c #96D9E4",
"b. c #98D9E5",
"n. c #9AD8E4",
"m. c #9DDFE7",
"M. c #9EDFE7",
"N. c #9FDFE7",
"B. c #A2DEE7",
"V. c #AEECED",
"C. c #B0E9EC",
"Z. c #B2EEEE",
"A. c #B3EFEF",
"S. c #B8EFEF",
"D. c #B3F0EF",
"F. c #B4F0EE",
"G. c #B6F1F0",
"H. c #B6F2F0",
"J. c #B9F4F1",
"K. c #BAF4F1",
"L. c #BDF5F2",
"P. c #C3F4F3",
"I. c #CBF6F5",
"U. c #C0F9F4",
"Y. c #C4F9F5",
"T. c #C7F8F4",
"R. c #C4FBF5",
"E. c #C4FCF4",
"W. c #C6FEF5",
"Q. c #C7FEF6",
"!. c #C9FFF7",
"~. c #CBFFF7",
"^. c #CDFFF7",
"/. c #D1F7F5",
"(. c #D0F8F5",
"). c #D2F9F6",
"_. c #D0FFF8",
"`. c #D1FFF8",
"'. c #D9FFF9",
"]. c #DAFFF9",
"[. c #DBFFFA",
"{. c #DCFFFA",
"}. c #DDFFFA",
"|. c #DFFFFA",
" X c #E0FFFA",
".X c #E2FFFB",
"XX c #E3FFFB",
"oX c #E4FFFB",
"OX c #E6FFFB",
"+X c #E6FFFC",
"@X c #ECFDFB",
"#X c #E9FFFC",
"$X c #EBFFFC",
"%X c #ECFFFC",
"&X c #EFFFFD",
"*X c #F1FFFD",
"=X c #F7FFFE",
"-X c #F8FFFE",
";X c #F9FFFE",
":X c #FAFFFE",
">X c #FBFFFE",
",X c #FBFFFF",
"<X c #FCFFFF",
"1X c #FDFFFF",
"2X c #FEFFFF",
"3X c white",
/* pixels */
"                                                                ",
"                                                                ",
"                                                                ",
"                              s r h                             ",
"                            0 @.~ x -                           ",
"                            Y $.7.<.j                           ",
"                            c ) >.=.<                           ",
"                            m _ j.4.<                           ",
"                          g / u.S.1.a                           ",
"                        < P :.K.!.h.B                           ",
"                        H a.N.Q.!.F.| 9                         ",
"                          y.R.[..XL.*.G <                       ",
"                          I z.%X3X@XP.s.b                       ",
"                          K x.3X3X3X@XY.O.                      ",
"                        ;.k._.:X3X3X3XI.L . * @                 ",
"                        S.[.%X3X3X3X3X|.g.C A r                 ",
"                      l i.%X3X3X3X3X3XI.e.#.( v                 ",
"                    X 0 w.+X3X3X3X3X:XT.e.X.W 6                 ",
"                    & J n.*X3X3X3X3X3XoXQ.6.5.n                 ",
"                    i 8..X3X3X3X3X3X3X:XB.2.*.Z                 ",
"                4 V } n.*X3X3X3X3X3X3X:Xc. .5                   ",
"                M 3.G.~.=X3X3X3X3X3X3X3X|.t.h                   ",
"                e -.Z.Q.oX3X3X3X3X3X3X3X).d.D 9                 ",
"                  < | H.|.:X3X3X3X3X3X%Xf.X.s O                 ",
"                    T l.C.I.:X3X3X3X:X_.a.~ E = O               ",
"                  r Q X.$.C.:X3X3X=X|.v.[ U D & O               ",
"                    s E ! N.|.@X[.R.L.w.M A ,                   ",
"                      5 z 9.V.F.Z.9.<.` & r *                   ",
"                      & , e ] { ' u g l                         ",
"                                    - h                         ",
"                                    @ *                         ",
"                                                                "
};
