/* XPM */
static char *flame81649924361[] = {
/* columns rows colors chars-per-pixel */
"32 32 189 2 ",
"   c None",
".  c #00245E",
"X  c #002660",
"o  c #002760",
"O  c #002761",
"+  c #002762",
"@  c #002862",
"#  c #002963",
"$  c #002A64",
"%  c #012B65",
"&  c #002C67",
"*  c #022D67",
"=  c #002D69",
"-  c #022E68",
";  c #022F69",
":  c #002F6B",
">  c #02306A",
",  c #01306C",
"<  c #03326C",
"1  c #03336D",
"2  c #00326E",
"3  c #01336F",
"4  c #02336E",
"5  c #04346E",
"6  c #0B376E",
"7  c #003471",
"8  c #013673",
"9  c #023672",
"0  c #033672",
"q  c #043570",
"w  c #043671",
"e  c #073E7A",
"r  c #073F7A",
"t  c #07417D",
"y  c #07427E",
"u  c #08417C",
"i  c #08427D",
"p  c #08427E",
"a  c #09437F",
"s  c #0F467E",
"d  c #064482",
"f  c #074784",
"g  c #094682",
"h  c #0A4783",
"j  c #0A4985",
"k  c #0A4A86",
"l  c #0B4A86",
"z  c #0E4A84",
"x  c #0C4C87",
"c  c #084D8A",
"v  c #124980",
"b  c #134A81",
"n  c #175187",
"m  c #1C5386",
"M  c #0B5290",
"N  c #0E5591",
"B  c #145790",
"V  c #165890",
"C  c #105C98",
"Z  c #115F9B",
"A  c #165F99",
"S  c #1F6095",
"D  c #1E6197",
"F  c #12629F",
"G  c #17639E",
"H  c #18629C",
"J  c #206195",
"K  c #206297",
"L  c #216599",
"P  c #256598",
"I  c #296898",
"U  c #36709B",
"Y  c #1564A0",
"T  c #1366A4",
"R  c #1B68A1",
"E  c #1C6AA3",
"W  c #146AA8",
"Q  c #156BA9",
"!  c #166EAB",
"~  c #1471B0",
"^  c #1772B0",
"/  c #1874B1",
"(  c #1F77B2",
")  c #236FA4",
"_  c #2C76A9",
"`  c #2D79AB",
"'  c #3178A7",
"]  c #427FA6",
"[  c #2C80B4",
"{  c #3785B4",
"}  c #3085B9",
"|  c #488CB2",
" . c #4492BD",
".. c #4A97BF",
"X. c #4C96BC",
"o. c #4A98C0",
"O. c #4C98C0",
"+. c #4D9BC3",
"@. c #4A9FCA",
"#. c #54A2C8",
"$. c #5BA8CA",
"%. c #65AAC7",
"&. c #6FABC2",
"*. c #63ABCA",
"=. c #64ACCA",
"-. c #65ACCA",
";. c #66B1CF",
":. c #6CB1CC",
">. c #70B3CC",
",. c #67B5D3",
"<. c #6FB7D1",
"1. c #78BED5",
"2. c #7AC1D9",
"3. c #7EC3DA",
"4. c #7BC5DB",
"5. c #80C5D8",
"6. c #84C9DD",
"7. c #88CADB",
"8. c #8BCDDD",
"9. c #95D3DF",
"0. c #8AD0E0",
"q. c #8CD3E2",
"w. c #92D6E2",
"e. c #94D8E4",
"r. c #95D9E4",
"t. c #9ADAE3",
"y. c #A0DFE7",
"u. c #A6E1E6",
"i. c #AAE5EB",
"p. c #AEE7EC",
"a. c #AEE8EC",
"s. c #ACEBEC",
"d. c #AEECEE",
"f. c #B3EBEE",
"g. c #B0ECEE",
"h. c #BBECEC",
"j. c #B7F2EF",
"k. c #B7F3F1",
"l. c #BBF5F2",
"z. c #C0ECF0",
"x. c #C3F2F3",
"c. c #C8F3F4",
"v. c #C3FBF4",
"b. c #C6FBF5",
"n. c #C9FAF5",
"m. c #CFF8F5",
"M. c #CAFFF7",
"N. c #CDFFF7",
"B. c #CBFFF8",
"V. c #CDFFF8",
"C. c #CEFFF8",
"Z. c #CFFFF8",
"A. c #D0F3F5",
"S. c #D1FBF7",
"D. c #D2FBF7",
"F. c #D2FFF8",
"G. c #D6FFF9",
"H. c #D7FFF9",
"J. c #DBFBF9",
"K. c #DAFFF9",
"L. c #DBFFF9",
"P. c #D8FFFA",
"I. c #DCFFF9",
"U. c #DCFFFA",
"Y. c #DDFFFA",
"T. c #DFFFFA",
"R. c #E0F9F8",
"E. c #E1FFFA",
"W. c #E2FFFA",
"Q. c #E7FFFB",
"!. c #E2FFFC",
"~. c #E8FFFC",
"^. c #E9FFFC",
"/. c #EAFFFC",
"(. c #ECFFFC",
"). c #EFFFFC",
"_. c #EEFFFD",
"`. c #F1FFFD",
"'. c #F2FFFD",
"]. c #F3FFFD",
"[. c #F4FFFD",
"{. c #F9FFFE",
"}. c #FAFFFE",
"|. c #FBFFFF",
" X c #FCFFFE",
".X c #FCFFFF",
"XX c #FDFFFF",
"oX c #FEFFFF",
"OX c white",
/* pixels */
"                                                                ",
"                                1 q                             ",
"                            + 5 a e                             ",
"                              a ^ N                             ",
"                              Y ! Q a                           ",
"                            7 W Q T h &                         ",
"                            6 ' H ( / l                         ",
"                          + m 8.e.e...4                         ",
"                        # = %.B.M.Z.1.t                         ",
"                          2 :.Z.Y.L.d.S                         ",
"                          b 7.B.L.[.f.)                         ",
"                        x } t.L.W.Y.2.~ r >                     ",
"                      & _ a.).}.OX).6.$.b                       ",
"                      7 =.Y.[.OXOXOXS.r.L                       ",
"                      V w.Z.).OXOXOXW.n.*.                      ",
"                      P j.F.}.OXOXOX}.G.>.                      ",
"                        <.A.OXOXOXOXOXT.&.4                     ",
"                      h #.J.OXOXOXOXOXL.i.|                     ",
"                      J f.].OXOXOXOXOX~.5.s 7 l =               ",
"                    2 ` k.Q.OXOXOXOXOX}.h.U a Z <               ",
"                    B q.N.).OXOXOXOXOXOXJ.| = l                 ",
"                  c +.v.L.OXOXOXOXOXOXOXc.I                     ",
"                  h -.b.].OXOXOXOXOXOX}.x.J . #                 ",
"                  % T 4.~.}.}.OXOXOXOX~.9.s + + #               ",
"                  % A ,.u.i.~.OXOXOX[.G.%.h % #                 ",
"                  > G E n X.m.OXOXOXG.q.D = #                   ",
"                  a Z l     3.p.h.D.l.@.M   # +                 ",
"                    h =     {  .` O.O.E u                       ",
"                    + #     q 7 8   8     #                     ",
"                    # +                                         ",
"                                                                ",
"                                                                "
};
