/* XPM */
static char *flame91649924361[] = {
/* columns rows colors chars-per-pixel */
"32 32 196 2 ",
"   c None",
".  c #00245F",
"X  c #00255F",
"o  c #002761",
"O  c #002963",
"+  c #002964",
"@  c #002A64",
"#  c #012A64",
"$  c #002B65",
"%  c #012D67",
"&  c #022D67",
"*  c #002B68",
"=  c #012D68",
"-  c #012E68",
";  c #022E68",
":  c #022E69",
">  c #022F69",
",  c #02306A",
"<  c #03306B",
"1  c #03316B",
"2  c #05316A",
"3  c #00306C",
"4  c #02316C",
"5  c #04326C",
"6  c #03346F",
"7  c #013470",
"8  c #023571",
"9  c #013673",
"0  c #043570",
"q  c #043671",
"w  c #053772",
"e  c #043873",
"r  c #053973",
"t  c #043874",
"y  c #063C77",
"u  c #033B78",
"i  c #063D78",
"p  c #073E79",
"a  c #073F7B",
"s  c #023E7C",
"d  c #05417E",
"f  c #0F447B",
"g  c #08427E",
"h  c #09447F",
"j  c #074581",
"k  c #0A4681",
"l  c #0A4782",
"z  c #0A4984",
"x  c #094A87",
"c  c #0B4A86",
"v  c #0A4B88",
"b  c #0B4C88",
"n  c #084D8B",
"m  c #0A4E8B",
"M  c #0B4F8C",
"N  c #144C83",
"B  c #134E86",
"V  c #0B518F",
"C  c #0A528F",
"Z  c #0D538F",
"A  c #13558F",
"S  c #085291",
"D  c #0A5593",
"F  c #0A5796",
"G  c #0E5A97",
"H  c #165B94",
"J  c #105C99",
"K  c #105D9A",
"L  c #165F99",
"P  c #1F6195",
"I  c #1F6297",
"U  c #16629C",
"Y  c #1B639A",
"T  c #1F649A",
"R  c #18629C",
"E  c #236598",
"W  c #21669B",
"Q  c #236A9F",
"!  c #286C9F",
"~  c #2C6F9F",
"^  c #1368A6",
"/  c #1A69A3",
"(  c #136BA9",
")  c #1672B0",
"_  c #2C71A3",
"`  c #2572A8",
"'  c #2673A9",
"]  c #2577AE",
"[  c #3C7AA3",
"{  c #277DB4",
"}  c #427BA2",
"|  c #2F84B8",
" . c #2C87BD",
".. c #3181B3",
"X. c #398BBB",
"o. c #3B8BBA",
"O. c #4285AE",
"+. c #5389A9",
"@. c #438FBA",
"#. c #4A91B8",
"$. c #4A94BD",
"%. c #5195BA",
"&. c #609DBA",
"*. c #63A1BF",
"=. c #338EC2",
"-. c #469BC6",
";. c #4B98C0",
":. c #4A9AC3",
">. c #4D9DC6",
",. c #4BA0CA",
"<. c #4DA0C9",
"1. c #54A5CA",
"2. c #54A6CC",
"3. c #62A7C6",
"4. c #65ADCA",
"5. c #65AECB",
"6. c #6CB2CD",
"7. c #67B5D3",
"8. c #6AB5D1",
"9. c #6EBAD5",
"0. c #74BCD5",
"q. c #79C1DA",
"w. c #86C4D4",
"e. c #84CBDD",
"r. c #85CADE",
"t. c #91D2DE",
"y. c #8ECFE0",
"u. c #94D8E4",
"i. c #9DDEE6",
"p. c #9CDFE7",
"a. c #A2DEE8",
"s. c #A4DEE8",
"d. c #9EE0E8",
"f. c #A0E1E9",
"g. c #ADE9EC",
"h. c #AFE9ED",
"j. c #AEEBED",
"k. c #B3EFEE",
"l. c #B2EEEF",
"z. c #B4EFEF",
"x. c #B5F2F1",
"c. c #B8F1F0",
"v. c #BBF0F0",
"b. c #BBF1F1",
"n. c #B9F2F1",
"m. c #BCF2F1",
"M. c #BCF3F1",
"N. c #BEF1F2",
"B. c #B8F4F1",
"V. c #BAF4F1",
"C. c #BDF5F2",
"Z. c #BFF8F3",
"A. c #CEF3F5",
"S. c #C6F9F4",
"D. c #C7FBF5",
"F. c #C3FCF5",
"G. c #C6FEF6",
"H. c #C9FAF5",
"J. c #C8FFF6",
"K. c #C9FFF6",
"L. c #C9FFF7",
"P. c #CBFFF7",
"I. c #CCFCF6",
"U. c #CCFFF7",
"Y. c #CDFFF7",
"T. c #CEFFF7",
"R. c #CDFFF8",
"E. c #D0FFF8",
"W. c #D2FFF8",
"Q. c #D4FFF8",
"!. c #D7FFF9",
"~. c #DCFFF9",
"^. c #E1FFFA",
"/. c #E2FEFA",
"(. c #E2FFFB",
"). c #E4FFFB",
"_. c #E5FFFB",
"`. c #E7FFFB",
"'. c #EAFFFC",
"]. c #ECFFFC",
"[. c #EFFFFD",
"{. c #F0FFFD",
"}. c #F1FFFD",
"|. c #F2FFFD",
" X c #F3FFFD",
".X c #F2FFFE",
"XX c #F4FFFD",
"oX c #F4FFFE",
"OX c #F7FFFE",
"+X c #F8FFFE",
"@X c #FAFFFE",
"#X c #FBFFFF",
"$X c #FCFFFE",
"%X c #FCFFFF",
"&X c #FDFFFF",
"*X c white",
/* pixels */
"                                :                               ",
"                                h                               ",
"                              + 1 0                             ",
"                              o O %                             ",
"                            1 y X : z                           ",
"                            7 C m K z :                         ",
"                            } 0.,.=.H                           ",
"                            +.G.B.8.o.v                         ",
"                          3 &.P.P.G.6.u                         ",
"                          S 9.P.G.F.%.C                         ",
"                        1 O.d.U.~.S.#.k                         ",
"                        E h.R._.'.Q.3.s :                       ",
"                        ..B.U. X*X_.i.3.N                       ",
"                        @.Z.Q.@X*XoXE.i.Y                       ",
"                        T h. X*X*X*X_.h.{                       ",
"                        W a.oX*X*X*X@XH.#.* o                   ",
"                        w.(.*X*X*X*X*X(.t.B O e                 ",
"                      _ k._.*X*X*X*X*X(.x.E X e                 ",
"                      ~ b.[.*X*X*X*X*X Xv.` V p                 ",
"                    D 5.Q.@X*X*X*X*X*X@Xv. .) Z                 ",
"                    ] u.E.@X*X*X*X*X*X@Xb.' 6 :                 ",
"                  m 8.R.(.@X*X*X*X*X*X@XN.Q + :                 ",
"                  ( :.N. X*X*X*X*X*X*X*XA.P : m %               ",
"                  p / e. XoX@X*X*X*X*X'.y.o.f +                 ",
"                  t 4.l.q.s.@X*X*X*X*XU.2.U 5                   ",
"                  b -.>.F 5._. X@XoX(.C.4.6 g 5                 ",
"                  0 ^ G r ! z.U.b.S.f.<.R : l                   ",
"                    0 % + K 2.e.| $.[ L 3                       ",
"                        O d k A r d                             ",
"                                                                ",
"                                                                ",
"                                                                "
};
