/* XPM */
static char *flame61649924361[] = {
/* columns rows colors chars-per-pixel */
"32 32 190 2 ",
"   c None",
".  c #00235E",
"X  c #00255F",
"o  c #002862",
"O  c #012A64",
"+  c #012C67",
"@  c #022D67",
"#  c #012D68",
"$  c #012F69",
"%  c #022E69",
"&  c #002F6B",
"*  c #002F6C",
"=  c #02306A",
"-  c #01316D",
";  c #02316C",
":  c #03326C",
">  c #02326D",
",  c #00326E",
"<  c #01326E",
"1  c #02326E",
"2  c #02336E",
"3  c #04346F",
"4  c #023571",
"5  c #003673",
"6  c #023672",
"7  c #033772",
"8  c #043671",
"9  c #023A77",
"0  c #063C77",
"q  c #0B3D76",
"w  c #053D79",
"e  c #053E7B",
"r  c #07427E",
"t  c #124379",
"y  c #064380",
"u  c #094783",
"i  c #0A4682",
"p  c #0A4783",
"a  c #0A4884",
"s  c #0B4A86",
"d  c #094B89",
"f  c #0B4C88",
"g  c #094D8A",
"h  c #0C4F8B",
"j  c #0A4F8C",
"k  c #13528A",
"l  c #14558D",
"z  c #18558C",
"x  c #18568C",
"c  c #0C5795",
"v  c #0E5895",
"b  c #0F5B98",
"n  c #155890",
"m  c #165992",
"M  c #1B5A90",
"N  c #11609D",
"B  c #1A629A",
"V  c #1F6399",
"C  c #1F659B",
"Z  c #1A649C",
"A  c #2B6F9F",
"S  c #2C6D9D",
"D  c #39749E",
"F  c #1265A2",
"G  c #1267A4",
"H  c #1669A5",
"J  c #1A68A2",
"K  c #1B69A2",
"L  c #1D69A1",
"P  c #1F6DA5",
"I  c #146AA8",
"U  c #1F76B0",
"Y  c #226FA6",
"T  c #2371A7",
"R  c #2673A8",
"E  c #2376AD",
"W  c #2F79AA",
"Q  c #297DB3",
"!  c #2C7FB3",
"~  c #307EB0",
"^  c #2F85B9",
"/  c #3380B0",
"(  c #3E87B3",
")  c #3789B9",
"_  c #3289BC",
"`  c #3E8EBB",
"'  c #3A8EBE",
"]  c #4A87AA",
"[  c #4D90B4",
"{  c #4290BA",
"}  c #4791B9",
"|  c #4A94BC",
" . c #4A97BF",
".. c #5595B7",
"X. c #3B93C3",
"o. c #4C99C0",
"O. c #4E9CC2",
"+. c #509FC6",
"@. c #4DA1CA",
"#. c #53A0C5",
"$. c #5BA4C6",
"%. c #5CA8CA",
"&. c #5EACCD",
"*. c #67AECA",
"=. c #6BB0CC",
"-. c #6DB2CC",
";. c #77B6CF",
":. c #67B2D0",
">. c #6AB6D4",
",. c #79BCD2",
"<. c #8BC7D6",
"1. c #8BCAD9",
"2. c #8CCCDB",
"3. c #89D0E0",
"4. c #8AD1E1",
"5. c #8CD0E0",
"6. c #8CD1E1",
"7. c #93D6E2",
"8. c #9BD6E2",
"9. c #94D8E4",
"0. c #95D8E4",
"q. c #97D8E4",
"w. c #9BDAE2",
"e. c #98DBE6",
"r. c #9BDEE7",
"t. c #A3E3E9",
"y. c #A5E3EA",
"u. c #ABE5EB",
"i. c #ABE9EC",
"p. c #AFECED",
"a. c #B0EDEE",
"s. c #B2EEEE",
"d. c #B8ECEF",
"f. c #B5F2F0",
"g. c #B7F2F0",
"h. c #BAF2F1",
"j. c #BBF2F1",
"k. c #B9F4F1",
"l. c #BBF4F2",
"z. c #C4EAEF",
"x. c #C0F4F2",
"c. c #C9F4F4",
"v. c #C0F8F3",
"b. c #C0F9F3",
"n. c #C1FAF4",
"m. c #CBF8F4",
"M. c #C8FFF6",
"N. c #C9FFF6",
"B. c #C9FFF7",
"V. c #CAFFF7",
"C. c #CBFFF7",
"Z. c #CCFFF7",
"A. c #CDFFF7",
"S. c #D0F3F4",
"D. c #D0F9F6",
"F. c #D2FBF7",
"G. c #D6FBF8",
"H. c #D2FFF8",
"J. c #D7FFF9",
"K. c #DBF9F8",
"L. c #DCF9F8",
"P. c #DCFAF8",
"I. c #DBFFF9",
"U. c #DBFFFB",
"Y. c #DDFFFA",
"T. c #E3FFFA",
"R. c #E2FFFB",
"E. c #E3FFFB",
"W. c #E5FFFB",
"Q. c #E6FFFB",
"!. c #E7FFFB",
"~. c #EAFFFC",
"^. c #EAFFFD",
"/. c #ECFFFC",
"(. c #EDFFFD",
"). c #F0FFFD",
"_. c #F2FFFD",
"`. c #F3FFFD",
"'. c #F3FFFE",
"]. c #F4FFFD",
"[. c #F8FFFE",
"{. c #F9FFFE",
"}. c #FAFFFE",
"|. c #FBFFFE",
" X c #FAFFFF",
".X c #FBFFFF",
"XX c #FCFFFF",
"oX c #FDFFFF",
"OX c #FEFFFF",
"+X c white",
/* pixels */
"                                                                ",
"                                                                ",
"                                  3                             ",
"                              0 n H                             ",
"                            : G X.) e                           ",
"                          i a b @.&.Y                           ",
"                            s #.i.:.z 2                         ",
"                            z t.b.a.' I h                       ",
"                            T 0.p.N.a.@.j                       ",
"                          L 6.N.N.A.n.o.6                       ",
"                        v R h.H.I.Y.g.^ c                       ",
"                      8 F _ c.+X{.W.A.6.U                       ",
"                      o y } P.+X+X+XR.r.K -                     ",
"                      X Z 3.W.+X+X+XR.g.=.K N                   ",
"                  = 8 . A x.{.+X+X+XR.N.k.Q e                   ",
"                    $ k 1./.+X+X+X+XW.A.0.C                     ",
"                      | G.+X+X+X+X+X+XW.t...                    ",
"                    B 2.~.].+X+X+X+X+X+Xz.{                     ",
"                      +.h._.+X+X+X+X+X_.;.5                     ",
"                    9 ` u.{.+X+X+X+X+XR.w.D -                   ",
"                    n 9.J.{.+X+X+X+X+XI.B.>.d i                 ",
"                    W h.~.+X+X+X+X+X+X{.m.o.8 h s               ",
"                  - $.n./.+X+X+X+X+X+X+XP.]     +               ",
"                  : E 9._.+X+X+X+X+X+X+Xc.S                     ",
"                  $ Y e.F.P._.+X+X+X{./.5.l                     ",
"                  - ~ -.[ o.c.+X+X{.m.<.S 8                     ",
"                      t   j %.8.d.I.,.q                         ",
"                            ~ M ! *.( $                         ",
"                              u r * - O   $ 8                   ",
"                                =           @                   ",
"                      o                                         ",
"                      o                                         "
};
