/* XPM */
static char *flame181649924363[] = {
/* columns rows colors chars-per-pixel */
"32 32 183 2 ",
"   c None",
".  c #002862",
"X  c #002963",
"o  c #002C67",
"O  c #012C67",
"+  c #022D67",
"@  c #002D68",
"#  c #022D68",
"$  c #022E68",
"%  c #022F69",
"&  c #01306B",
"*  c #01306C",
"=  c #00316D",
"-  c #02316C",
";  c #01326D",
":  c #03326C",
">  c #01326E",
",  c #03336E",
"<  c #03346F",
"1  c #04346F",
"2  c #003572",
"3  c #043570",
"4  c #043671",
"5  c #023774",
"6  c #063D78",
"7  c #073D78",
"8  c #073E79",
"9  c #07407B",
"0  c #06407C",
"q  c #07407C",
"w  c #05417E",
"e  c #11477D",
"r  c #074480",
"t  c #084480",
"y  c #094782",
"u  c #0A4985",
"i  c #0A4A86",
"p  c #0F4C86",
"a  c #0B4E8A",
"s  c #0C508C",
"d  c #14568F",
"f  c #0E5490",
"g  c #0E5592",
"h  c #0C5693",
"j  c #0E5692",
"k  c #0F5692",
"l  c #0F5794",
"z  c #0F5A97",
"x  c #0F5C99",
"c  c #105D99",
"v  c #115D9A",
"b  c #115F9C",
"n  c #10619F",
"m  c #1E6399",
"M  c #266192",
"N  c #206297",
"B  c #2A6B9C",
"V  c #1766A1",
"C  c #1268A6",
"Z  c #1569A7",
"A  c #1868A2",
"S  c #1F69A0",
"D  c #1269A8",
"F  c #156AA8",
"G  c #156BA8",
"H  c #1C6FA9",
"J  c #1770AE",
"K  c #1C70AA",
"L  c #1A72AF",
"P  c #1B74AF",
"I  c #1F77B1",
"U  c #266DA0",
"Y  c #286FA2",
"T  c #2D75A7",
"R  c #2473A9",
"E  c #2E7CAE",
"W  c #277AB0",
"Q  c #277EB5",
"!  c #207DB8",
"~  c #337FB0",
"^  c #3F82AC",
"/  c #2B80B5",
"(  c #2883BB",
")  c #2984BC",
"_  c #3785B3",
"`  c #3184B7",
"'  c #3D85B0",
"]  c #4286AF",
"[  c #488DB5",
"{  c #498EB5",
"}  c #408DB9",
"|  c #4092BF",
" . c #4399C6",
".. c #509EC5",
"X. c #509FC6",
"o. c #4FA1CA",
"O. c #5BA9CC",
"+. c #63A6C3",
"@. c #66A6C1",
"#. c #62AAC8",
"$. c #70AFC6",
"%. c #6DB2CC",
"&. c #66B3D2",
"*. c #6EB6D1",
"=. c #6EB9D5",
"-. c #72BDD7",
";. c #75BCD7",
":. c #7EBBD2",
">. c #79BCD1",
",. c #71BDD8",
"<. c #7BC2D7",
"1. c #79C0D8",
"2. c #8BCBDA",
"3. c #8ECEDC",
"4. c #94CDDB",
"5. c #94D4DF",
"6. c #8ED1E1",
"7. c #8ED2E1",
"8. c #8DD3E2",
"9. c #93D1E2",
"0. c #94D6E3",
"q. c #97D9E4",
"w. c #A9E3EA",
"e. c #AAE9EC",
"r. c #ADEBED",
"t. c #B2E3E9",
"y. c #B3E0EB",
"u. c #B1EEEE",
"i. c #B9EEEE",
"p. c #B6F2F0",
"a. c #B6F3F0",
"s. c #BCF3F1",
"d. c #B8F4F1",
"f. c #B9F4F1",
"g. c #BBF5F1",
"h. c #BBF6F3",
"j. c #C3EFF2",
"k. c #CAF3F3",
"l. c #CFF1F4",
"z. c #C0F9F2",
"x. c #C0F9F3",
"c. c #C3FAF4",
"v. c #C8F9F5",
"b. c #CBFBF6",
"n. c #CCFBF6",
"m. c #C9FFF7",
"M. c #CBFFF7",
"N. c #CDFFF7",
"B. c #CEFFF7",
"V. c #CEFFF8",
"C. c #D0FFF7",
"Z. c #D1FFF8",
"A. c #D3FFF8",
"S. c #D4FFF8",
"D. c #DEFBF9",
"F. c #D8FFF9",
"G. c #DAFFF9",
"H. c #D9FFFB",
"J. c #DFFFFB",
"K. c #E3FFFA",
"L. c #E5FFFB",
"P. c #E6FFFB",
"I. c #E7FFFB",
"U. c #EAFFFC",
"Y. c #EDFFFC",
"T. c #ECFFFD",
"R. c #EFFFFC",
"E. c #EEFFFD",
"W. c #EFFFFD",
"Q. c #F1FFFD",
"!. c #F2FFFD",
"~. c #F3FFFD",
"^. c #F0FFFE",
"/. c #F2FFFE",
"(. c #F7FFFE",
"). c #F8FFFE",
"_. c #F9FFFE",
"`. c #FAFFFE",
"'. c #FBFFFE",
"]. c #FAFFFF",
"[. c #FCFFFF",
"{. c #FEFFFF",
"}. c white",
/* pixels */
"                                                                ",
"                                                                ",
"                                                                ",
"                                  %                             ",
"                                    X                           ",
"                                - = X                           ",
"                              U E D                             ",
"                            = #.e...h 4                         ",
"                            p >.u.q.) i                         ",
"                          M 2.z.g. .L 4                         ",
"                        5 ' p.S.M.-.P =                         ",
"                      < K &.w.Q.P.v.0.] q                       ",
"                      h o.b.Q.[.[.R.S.g.{                       ",
"                      A 7.T.[.[.[.[.~.C.1.d                     ",
"              %       x 1.Q.[.[.[.[.`.B.z.3.|                   ",
"              l G     e 4.[.[.[.[.[.`.C.M.f.~                   ",
"              h D x   _ i.`.[.[.[.[.[.P.M.r.m                   ",
"                3 f V E s.`.[.[.[.[.[.[.F.=.z o                 ",
"                  r Q 7.B.Q.[.[.[.[.[.[.D.O.u X                 ",
"                    X.z.R.[.[.[.[.[.[.[.P.p.} =                 ",
"                    +.V.~.[.[.[.[.[.[.[.U.g.T o                 ",
"                  3 %.H.Q.[.[.[.[.[.[.[.[.j.Y                   ",
"                    ] 5.C.`.[.[.[.[.[.[.[.l.B                   ",
"                1 6   m -.k.`.[.[.[.[.[.`.9.K =                 ",
"              % v h   y Z *.J.`.[.[.[.y.;.) D                   ",
"                G s     = B y.b.Q.Q.F.$.( I ` 8                 ",
"                            R { :.9.+.    I W                   ",
"                              % a V w     y b                   ",
"                              u 6 = q     X o                   ",
"                              8 3                               ",
"                                                                ",
"                                                                "
};
