/* XPM */
static char *flame11649924360[] = {
/* columns rows colors chars-per-pixel */
"32 32 200 2 ",
"   c None",
".  c #001B43",
"X  c #001B46",
"o  c #001D48",
"O  c #001E49",
"+  c #001E4B",
"@  c #00224E",
"#  c #002150",
"$  c #012652",
"%  c #012354",
"&  c #002255",
"*  c #012755",
"=  c #042850",
"-  c #032857",
";  c #012758",
":  c #00285B",
">  c #072F5C",
",  c #002660",
"<  c #012B60",
"1  c #002A62",
"2  c #032D62",
"3  c #022D63",
"4  c #042E61",
"5  c #002D67",
"6  c #033160",
"7  c #053262",
"8  c #063667",
"9  c #073767",
"0  c #04336A",
"q  c #06376B",
"w  c #073B6E",
"e  c #073A6F",
"r  c #093D6C",
"t  c #0C3E6E",
"y  c #043670",
"u  c #053771",
"i  c #073B70",
"p  c #053872",
"a  c #073F71",
"s  c #053B75",
"d  c #063E76",
"f  c #084175",
"g  c #0B4177",
"h  c #0A447A",
"j  c #0A457A",
"k  c #09427C",
"l  c #104675",
"z  c #114D7D",
"x  c #164D7D",
"c  c #16527F",
"v  c #094680",
"b  c #094B85",
"n  c #0B4A85",
"m  c #0D4F87",
"M  c #124F82",
"N  c #0D508B",
"B  c #0E528B",
"V  c #0D548E",
"C  c #105587",
"Z  c #185084",
"A  c #10568B",
"S  c #12568C",
"D  c #19568B",
"F  c #0E5591",
"G  c #0F5E9C",
"H  c #115D97",
"J  c #1B5D94",
"K  c #1A5E96",
"L  c #105E9A",
"P  c #115F9B",
"I  c #1F638F",
"U  c #1E6290",
"Y  c #12619D",
"T  c #10619F",
"R  c #16649F",
"E  c #18669E",
"W  c #2B628E",
"Q  c #226393",
"!  c #266596",
"~  c #2A6A94",
"^  c #316E92",
"/  c #36769D",
"(  c #1367A4",
")  c #1C6BA4",
"_  c #166FAD",
"`  c #1B73AF",
"'  c #1B77B4",
"]  c #1D79B4",
"[  c #2E75A4",
"{  c #2176AF",
"}  c #3A7DAA",
"|  c #297EB4",
" . c #237EB8",
".. c #317FB1",
"X. c #398BBB",
"o. c #3A8BBA",
"O. c #4381A9",
"+. c #4486AA",
"@. c #4184AD",
"#. c #4285AF",
"$. c #4687AD",
"%. c #4791B9",
"&. c #5495B2",
"*. c #5C9CB5",
"=. c #5F9EB7",
"-. c #529ABE",
";. c #378FC0",
":. c #3790C1",
">. c #3990C1",
",. c #4698C3",
"<. c #449BC7",
"1. c #4A9DC7",
"2. c #59A0C2",
"3. c #58A0C4",
"4. c #58A4C8",
"5. c #5CACCF",
"6. c #63A3C4",
"7. c #6FAFC6",
"8. c #63ACC9",
"9. c #71ACC1",
"0. c #68B0CC",
"q. c #69B2CE",
"w. c #6FB5CE",
"e. c #73B5CC",
"r. c #7EB3C8",
"t. c #6EB9D5",
"y. c #73BED8",
"u. c #79C3DA",
"i. c #7AC3DA",
"p. c #8BBDC7",
"a. c #83BECD",
"s. c #81BFD1",
"d. c #80C0D3",
"f. c #80C7DA",
"g. c #87CCDD",
"h. c #87CDDE",
"j. c #94D4DF",
"k. c #9ADAE3",
"l. c #98D9E4",
"z. c #9FDFE6",
"x. c #A9DCE5",
"c. c #AEE4EB",
"v. c #BCE1EB",
"b. c #B0E8EB",
"n. c #B6EEEE",
"m. c #BEF0F1",
"M. c #BDF4F2",
"N. c #BCF6F2",
"B. c #BFF9F4",
"V. c #C6EFF2",
"C. c #C4F2F2",
"Z. c #C6F5F3",
"A. c #C2FBF5",
"S. c #C3FBF5",
"D. c #C7FBF4",
"F. c #C5FCF5",
"G. c #C9F8F5",
"H. c #C8FCF6",
"J. c #C9FFF6",
"K. c #CBFFF7",
"L. c #CCFFF7",
"P. c #CEFFF8",
"I. c #D0F2F4",
"U. c #D5F8F7",
"Y. c #D4FBF7",
"T. c #D1FDF7",
"R. c #D2FDF7",
"E. c #D0FFF7",
"W. c #DDF7F8",
"Q. c #DFF7F8",
"!. c #D1FFF9",
"~. c #D6FDF9",
"^. c #D6FFF8",
"/. c #D7FFF9",
"(. c #D8FCF8",
"). c #D8FFFA",
"_. c #DCFFFA",
"`. c #DEFFFA",
"'. c #E1FFFA",
"]. c #E5FCFA",
"[. c #E7FEFB",
"{. c #E7FFFB",
"}. c #E9FFFC",
"|. c #EAFFFC",
" X c #EDFFFC",
".X c #F2FFFD",
"XX c #F3FFFD",
"oX c #F4FFFD",
"OX c #F6FFFE",
"+X c #F7FFFE",
"@X c #F8FFFE",
"#X c #F9FFFE",
"$X c #F9FFFF",
"%X c #FAFFFE",
"&X c #FAFFFF",
"*X c #FCFFFE",
"=X c #FCFFFF",
"-X c #FDFFFF",
";X c #FEFFFF",
":X c white",
/* pixels */
"                                                                ",
"                                                                ",
"                                  +                             ",
"                                                                ",
"                                  , #                           ",
"                              r v s                             ",
"                            * E >.%.S                           ",
"                            g ..5.y.| u                         ",
"                            7.g.i.X.' u                         ",
"                      + @ Q l.P.F.f.J >                         ",
"                      - V ] t.T._.G.y.D                         ",
"                      q { i.Z.oX%X_.K.j.W                       ",
"                      6 -.S.}.;XoXoX[.!.a.                      ",
"                      a 4.T.%X;X;X;X;X/.N.0.Q                   ",
"              C Y 7     *.(.;X;X;X;X%X/.K.S.e.                  ",
"              A _ m     p.[.;X;X;X;X;X}.K.B.$.                  ",
"                w m i l x.%X;X;X;X;X;X;X`.l.~ +                 ",
"                  > Z o.n.oX;X;X;X;X;X;XW.#.: &                 ",
"                    &.x.P.XX;X;X;X;X;X;XY.q.K 4                 ",
"                    U h.L.XX;X;X;X;X;X;X}.F.e.r                 ",
"                    9.(.XX;X;X;X;X;X;X;X%XG.#.u                 ",
"                    +.b.'.;X;X;X;X;X;X;X;XU.} 5                 ",
"                  =   =.M.}.;X;X;X;X;X;X;Xv.! :                 ",
"                j B * Z 1.m. X;X;X;X;XoXI.6.g                   ",
"                H N + q R 8.C.%X;X;X%Xc.<. .X.z                 ",
"                w k #       r.V.Q.[.(.d.[ ) X.l                 ",
"                            ^ ;.,.2.2./ $ L L                   ",
"                            c ' G T b     i j                   ",
"                            q ( F 0       .                     ",
"                              2 3                               ",
"                                                                ",
"                                                                "
};
