/* XPM */
static char *flame51649924361[] = {
/* columns rows colors chars-per-pixel */
"32 32 178 2 ",
"   c None",
".  c #002660",
"X  c #002862",
"o  c #002B66",
"O  c #012C66",
"+  c #012C67",
"@  c #002F6A",
"#  c #022F6A",
"$  c #03316C",
"%  c #01326D",
"&  c #03336D",
"*  c #04336E",
"=  c #02346F",
"-  c #003472",
";  c #023774",
":  c #033874",
">  c #013977",
",  c #043975",
"<  c #063A75",
"1  c #053D79",
"2  c #063F7B",
"3  c #10447B",
"4  c #074481",
"5  c #054482",
"6  c #064582",
"7  c #084480",
"8  c #0A4783",
"9  c #084885",
"0  c #0B4A86",
"q  c #094B88",
"w  c #094C89",
"e  c #0B4C88",
"r  c #0B4D89",
"t  c #104981",
"y  c #114A82",
"u  c #0D508C",
"i  c #0C528E",
"p  c #0E538F",
"a  c #0C5390",
"s  c #0C5491",
"d  c #0D5591",
"f  c #0E5490",
"g  c #0D5693",
"h  c #0F5B99",
"j  c #105692",
"k  c #135993",
"l  c #1D5F95",
"z  c #105F9C",
"x  c #235383",
"c  c #1C649C",
"v  c #34638C",
"b  c #226397",
"n  c #226498",
"m  c #21669B",
"M  c #246699",
"N  c #2A6D9E",
"B  c #2C6F9F",
"V  c #1968A2",
"C  c #1770AD",
"Z  c #1A73AF",
"A  c #276EA1",
"S  c #2571A6",
"D  c #2474AA",
"F  c #2F79AA",
"G  c #2A7BAF",
"H  c #307DAE",
"J  c #357DAD",
"K  c #227CB5",
"L  c #247DB6",
"P  c #417DA5",
"I  c #2F86BD",
"U  c #4880A5",
"Y  c #4081AB",
"T  c #4288B1",
"R  c #478DB5",
"E  c #438EB8",
"W  c #408EBA",
"Q  c #4192BE",
"!  c #4992BA",
"~  c #4498C4",
"^  c #4A98C1",
"/  c #4A9AC4",
"(  c #4B9CC4",
")  c #459CC8",
"_  c #469DC9",
"`  c #5CA4C5",
"'  c #6DAAC3",
"]  c #64ADCA",
"[  c #6AAFCB",
"{  c #68B2CF",
"}  c #6CB3CD",
"|  c #72B5CD",
" . c #72B7CF",
".. c #74B7CF",
"X. c #70B7D2",
"o. c #77BCD2",
"O. c #7CC2D7",
"+. c #77C1D9",
"@. c #79C2D9",
"#. c #7DC3DB",
"$. c #7AC4DB",
"%. c #7FC7DC",
"&. c #81B9CA",
"*. c #84CADD",
"=. c #8CCFDD",
"-. c #95D0DB",
";. c #8ED3E1",
":. c #93D5E3",
">. c #92D7E3",
",. c #99D7E4",
"<. c #9FDFE6",
"1. c #A2DFE7",
"2. c #AEE8ED",
"3. c #ACEAEC",
"4. c #ACEAED",
"5. c #AEECEE",
"6. c #B1E9EC",
"7. c #B4EAEE",
"8. c #BAEAEF",
"9. c #B3F1F0",
"0. c #B4F0F0",
"q. c #B6F1F0",
"w. c #B4F2F0",
"e. c #B9F0F1",
"r. c #B9F3F1",
"t. c #B9F4F1",
"y. c #BDF5F1",
"u. c #C2F5F3",
"i. c #C4F4F3",
"p. c #C8F2F3",
"a. c #C9F2F3",
"s. c #CEF7F5",
"d. c #C2F8F3",
"f. c #C0F9F4",
"g. c #C0FAF4",
"h. c #C7F8F4",
"j. c #C5FBF5",
"k. c #C3FCF5",
"l. c #C8FBF5",
"z. c #CFF8F6",
"x. c #C8FFF6",
"c. c #C9FFF7",
"v. c #CAFFF7",
"b. c #CCFFF7",
"n. c #CDFFF7",
"m. c #CEFFF7",
"M. c #CFFFF7",
"N. c #CBFFF8",
"B. c #D2FFF8",
"V. c #D2FFF9",
"C. c #DAFFF9",
"Z. c #DBFFFA",
"A. c #DCFFFA",
"S. c #DFFFFA",
"D. c #E1FFFA",
"F. c #E3FFFB",
"G. c #E4FFFB",
"H. c #E7FFFB",
"J. c #EAFFFB",
"K. c #E8FFFC",
"L. c #E9FFFC",
"P. c #E9FFFD",
"I. c #ECFFFC",
"U. c #EEFFFC",
"Y. c #EFFFFD",
"T. c #EFFFFE",
"R. c #F0FFFD",
"E. c #F1FFFD",
"W. c #F3FFFD",
"Q. c #F6FFFE",
"!. c #F8FFFE",
"~. c #F9FFFE",
"^. c #FAFFFE",
"/. c #FBFFFE",
"(. c #FBFFFF",
"). c #FCFFFF",
"_. c #FDFFFF",
"`. c white",
/* pixels */
"                                                                ",
"                                                                ",
"                                                                ",
"                                  #                             ",
"                              9 a 9 #                           ",
"                            + c _ ^ p                           ",
"                          $ 4 Z ;.0.B                           ",
"                          r L I *.k.U                           ",
"                          < Q 7.u.x.' c f 8                     ",
"                          4 / y.x.x.d.2.~ r                     ",
"                          Y 1.D.D.b.N.t.F                       ",
"                        - R l.(.J.J.A.0.n                       ",
"                      y ` @.s._.W._.W.:.V                       ",
"                      f } j.E._._._.(.,.L 1                     ",
"                    * 4 P 2.(._._._._.C.=.A p                   ",
"                    < > | V.(._._._._.J.V.9.^ q                 ",
"                    + 3 o.A._._._._._.H.b.1.T                   ",
"                  . 0 &.h.E._._._._._.H.b.]                     ",
"                    f #.Q._._._._._._._.p.H                     ",
"                    f +.D._._._._._._._.8.D                     ",
"                    G 2.b.(._._._._._.J.*.C *                   ",
"                    m 5.B.(._._._._._.D.y.I *                   ",
"                    r X.I._._._._._._.W.i.B :                   ",
"                    $ J u.E._._._._._.W.e.b                     ",
"                    4 { N.C._._._._._.D.r.M                     ",
"                  + h _ $.>.p.E.I.J.z.6.[ c                     ",
"                    9 f i k X.-.| y.#.S 1                       ",
"                            v x > ! E                           ",
"                                  # $                           ",
"                                X                               ",
"                                                                ",
"                                                                "
};
