/* XPM */
static char *flame121649924362[] = {
/* columns rows colors chars-per-pixel */
"32 32 190 2 ",
"   c None",
".  c #002660",
"X  c #002761",
"o  c #012C66",
"O  c #002C67",
"+  c #012D67",
"@  c #002C69",
"#  c #00306C",
"$  c #00326F",
"%  c #003370",
"&  c #003471",
"*  c #023470",
"=  c #033671",
"-  c #003572",
";  c #033672",
":  c #023673",
">  c #043671",
",  c #003774",
"<  c #003776",
"1  c #053873",
"2  c #063872",
"3  c #043A76",
"4  c #063C77",
"5  c #063E7A",
"6  c #073F7B",
"7  c #08427D",
"8  c #08427E",
"9  c #08437E",
"0  c #09437E",
"q  c #09447F",
"w  c #074481",
"e  c #084682",
"r  c #064886",
"t  c #0B4B87",
"y  c #0E4C86",
"u  c #0A4D8A",
"i  c #0B4E8B",
"p  c #0C4D89",
"a  c #0C4F8B",
"s  c #134E86",
"d  c #144F87",
"f  c #0D518D",
"g  c #0A5390",
"h  c #0B5593",
"j  c #0F5793",
"k  c #0F5A97",
"l  c #155891",
"z  c #105A96",
"x  c #145B94",
"c  c #11609C",
"v  c #12629F",
"b  c #1D649B",
"n  c #1F649A",
"m  c #1A669F",
"M  c #206297",
"N  c #226396",
"B  c #21689D",
"V  c #1265A3",
"C  c #1366A3",
"Z  c #1866A0",
"A  c #1469A6",
"S  c #146AA8",
"D  c #1C6EA8",
"F  c #1671AF",
"G  c #1B72AD",
"H  c #1773B0",
"J  c #1775B3",
"K  c #1676B5",
"L  c #2371A7",
"P  c #2570A5",
"I  c #2572A7",
"U  c #2372A8",
"Y  c #307AAB",
"T  c #207BB5",
"R  c #227AB4",
"E  c #207BB6",
"W  c #287CB2",
"Q  c #467FA4",
"!  c #2982BA",
"~  c #2985BC",
"^  c #3689B9",
"/  c #3E90BE",
"(  c #4480A7",
")  c #4586AD",
"_  c #4686AF",
"`  c #408DB9",
"'  c #408FBB",
"]  c #4F93B7",
"[  c #4B96BE",
"{  c #3A90C1",
"}  c #3F96C4",
"|  c #4295C1",
" . c #4396C2",
".. c #4397C3",
"X. c #4A97C0",
"o. c #449AC7",
"O. c #59A2C4",
"+. c #53A2C8",
"@. c #63A7C4",
"#. c #6AA8C1",
"$. c #6CAFC9",
"%. c #74ABC3",
"&. c #65B0CF",
"*. c #6CB1CB",
"=. c #6DB2CC",
"-. c #6DB3CE",
";. c #6DB4CF",
":. c #6FB6CF",
">. c #67B5D4",
",. c #74B9D0",
"<. c #74BED7",
"1. c #79BFD5",
"2. c #7BC3DA",
"3. c #7BC4DA",
"4. c #7CC5DB",
"5. c #86BBC8",
"6. c #80C7DC",
"7. c #88CBDC",
"8. c #89CDDC",
"9. c #8AD1E1",
"0. c #8CD1E0",
"q. c #8CD2E1",
"w. c #8DD2E1",
"e. c #96D8E3",
"r. c #95D9E4",
"t. c #9DDBE2",
"y. c #99DCE5",
"u. c #9CDDE6",
"i. c #9EDCE6",
"p. c #A5DDE7",
"a. c #A5E4E9",
"s. c #ACE5EB",
"d. c #AFEBEC",
"f. c #B0EDEE",
"g. c #B2EEEE",
"h. c #B5F1F0",
"j. c #B6F2F0",
"k. c #BAF0F0",
"l. c #BBF2F1",
"z. c #B8F4F1",
"x. c #B9F4F1",
"c. c #BEF7F2",
"v. c #C4F1F3",
"b. c #C8F2F3",
"n. c #C1FAF3",
"m. c #C1FAF4",
"M. c #C2FAF4",
"N. c #C2FBF4",
"B. c #C7FAF5",
"V. c #C7FBF6",
"C. c #C7FFF6",
"Z. c #CFF8F5",
"A. c #CEF9F6",
"S. c #CDFEF7",
"D. c #CCFFF7",
"F. c #CBFFF8",
"G. c #CFFFF8",
"H. c #CEFFF9",
"J. c #D3F2F4",
"K. c #D2FFF8",
"L. c #D3FFFA",
"P. c #D6FFF9",
"I. c #D7FFF9",
"U. c #D9FFF9",
"Y. c #D9FFFA",
"T. c #DAFFFA",
"R. c #DDFFFA",
"E. c #DEFFFB",
"W. c #E7FAFB",
"Q. c #E1FFFA",
"!. c #E3FFFB",
"~. c #E5FFFB",
"^. c #E6FFFB",
"/. c #E7FFFB",
"(. c #E6FFFC",
"). c #EEFFFC",
"_. c #F0FFFD",
"`. c #F2FFFD",
"'. c #F3FFFD",
"]. c #F2FFFE",
"[. c #F5FFFE",
"{. c #F7FFFE",
"}. c #F8FFFE",
"|. c #F9FFFE",
" X c #FAFFFE",
".X c #FCFFFE",
"XX c #FCFFFF",
"oX c #FDFFFF",
"OX c #FEFFFF",
"+X c white",
/* pixels */
"                                                                ",
"                                                                ",
"                              a 4 X                             ",
"                              C z 5                             ",
"                            9 v H v                             ",
"                            X 5 A j                             ",
"                            1 s T F                             ",
"                            , @.0.m                             ",
"                          N [ e.x.P @                           ",
"                        * / 4.m.m.X.@                           ",
"                          h ..c.K.t.( l                         ",
"                          3 n v.[.R.V.7.                        ",
"                          y _ W..X.X}.l.N                       ",
"                        #.8.p..X.X.X}.V.] 9                     ",
"                        5.F.I..X.X.X_.S.w.D k                   ",
"                      r -.Y./..X.X.X/.y.4.o.C 9                 ",
"                      x w./..X.X.X.X/.r.{ T S                   ",
"                      w ,./..X.X.X.X_.Y.1.` T                   ",
"                  o   % %._..X.X.X.X.X/.m.j.' *                 ",
"                @ g I :.J..X.X.X.X.X.X}.G.z.I                   ",
"                d &.y.Y..X.X.X.X.X.X.X.XG.a.B                   ",
"                P f.G./..X.X.X.X.X.X.X.Xb.^ 3                   ",
"                  Q $.u.(..X.X.X.X.X.X_.A.+.i                   ",
"                    , ;.I._..X.X.X.X.X/.C.f.` @                 ",
"                    w ..2.Z..X.X.X.X}.K.u.w.Y ;                 ",
"                    a J ~ k.}..X.X_.Y.m.>.} n                   ",
"                    a J ! d.R.R.s.2.x.<.Z i                     ",
"                      f 9 ) -.*.O.G ..W *                       ",
"                            * % % ; e e                         ",
"                                      o                         ",
"                                                                ",
"                                                                "
};
