/* XPM */
static char *_9ea5dd42bb04732acc1c29164de5c71JHSsnAMdejMIQkRz[] = {
/* columns rows colors chars-per-pixel */
"32 32 159 2 ",
"   c #361300",
".  c #3C1200",
"X  c #430D00",
"o  c #4B0F00",
"O  c #441400",
"+  c #4B1500",
"@  c #441B00",
"#  c #4B1B00",
"$  c #531600",
"%  c #531B00",
"&  c #5B1D00",
"*  c #661F00",
"=  c #452102",
"-  c #4D2201",
";  c #4B280C",
":  c #532302",
">  c #5A2401",
",  c #552904",
"<  c #5C2A03",
"1  c #54270B",
"2  c #5D2608",
"3  c #552D0B",
"4  c #5C2B0A",
"5  c #5E310B",
"6  c #5B2D11",
"7  c #5D3112",
"8  c #632501",
"9  c #6A2700",
"0  c #632B04",
"q  c #6C2D06",
"w  c #632C0B",
"e  c #6B2E0B",
"r  c #732F08",
"t  c #643106",
"y  c #6B3205",
"u  c #63320D",
"i  c #6D330B",
"p  c #6D390D",
"a  c #73340C",
"s  c #7B340B",
"d  c #733B0E",
"f  c #7C3A0F",
"g  c #622F12",
"h  c #653313",
"j  c #6D3512",
"k  c #673A13",
"l  c #6D3B12",
"z  c #633619",
"x  c #6B3B1C",
"c  c #713512",
"v  c #733C15",
"b  c #7B3B13",
"n  c #753E19",
"m  c #7A3E1B",
"M  c #6C3F20",
"N  c #6A411C",
"B  c #744015",
"V  c #7B4216",
"C  c #76431A",
"Z  c #7B421B",
"A  c #6D4322",
"S  c #6E4824",
"D  c #6E492C",
"F  c #724424",
"G  c #7B4322",
"H  c #744924",
"J  c #7B4A25",
"K  c #75472B",
"L  c #7B462A",
"P  c #754D2B",
"I  c #7C4C2B",
"U  c #7F5026",
"Y  c #7E522D",
"T  c #734E31",
"R  c #7C4E31",
"E  c #745030",
"W  c #7D5333",
"Q  c #7E5738",
"!  c #82390E",
"~  c #813E12",
"^  c #804317",
"/  c #81441B",
"(  c #834B24",
")  c #834D2B",
"_  c #845126",
"`  c #83512B",
"'  c #8B552D",
"]  c #8C582E",
"[  c #94542B",
"{  c #945C2E",
"}  c #844F30",
"|  c #8C4F30",
" . c #835433",
".. c #8B5434",
"X. c #825832",
"o. c #8D5B34",
"O. c #815538",
"+. c #885739",
"@. c #845A39",
"#. c #8C5B3B",
"$. c #935632",
"%. c #935C35",
"&. c #995A34",
"*. c #945E3B",
"=. c #9A5E39",
"-. c #A35D35",
";. c #936236",
":. c #9C6234",
">. c #90603C",
",. c #96653D",
"<. c #94623B",
"1. c #9C633C",
"2. c #AB6036",
"3. c #A0623B",
"4. c #A26538",
"5. c #A3623D",
"6. c #A8633C",
"7. c #AB663D",
"8. c #A06839",
"9. c #A8693E",
"0. c #AB683E",
"q. c #AA693F",
"w. c #8A5D40",
"e. c #985F41",
"r. c #8C6343",
"t. c #956040",
"y. c #946443",
"u. c #9A6241",
"i. c #9E6341",
"p. c #9A6442",
"a. c #996742",
"s. c #9A6545",
"d. c #986746",
"f. c #9B6543",
"g. c #9A6941",
"h. c #9B6944",
"j. c #9D6B44",
"k. c #9E6749",
"l. c #A26340",
"z. c #A36743",
"x. c #A66640",
"c. c #A56642",
"v. c #A46B40",
"b. c #A26D41",
"n. c #A06847",
"m. c #A46846",
"M. c #A36B44",
"N. c #AD6E42",
"B. c #AA6B46",
"V. c #A56A48",
"C. c #A56A4A",
"Z. c #A36F4A",
"A. c #AE6E4B",
"S. c #AF7245",
"D. c #AB7247",
"F. c #A0704A",
"G. c #AA7448",
"H. c #B07A4E",
"J. c #A87351",
/* pixels */
"2.! b N.4.:./ q x.x.-.[ r | v.{ -.~ f S.8.{ _ y 9.9.6.[ r [ M.;.",
"s * 9 V q d a 8 m r s ! $ r C c b 9 & V y B d + f a a b $ i C p ",
"a r q q O < i < c $ & m 8 w > + c a 8 t O < l > i $ $ n < < : O ",
"A.l.=.o.j o.h.%.e.m / C.e.k.I w i.z.<.;.k U F.g.p.C m C.t.d.Y 4 ",
"e $ + 4 O 4 4 - 2 + + w # 6 3 . w & % u . - 4 - 1 + O 2 # z 1   ",
"L w u @.H P x , } L L L : A O.P L w 4 X.P P A - } L ) L : A Q T ",
"| c n >.Y Y F 4 +.| | } w K O.Y  .c h #.Y X.I 4 #.....} 4 F O.W ",
"8 $ + < @ , 3 # w + o 2 + 4 3 O 0 % + w @ : 4 @ 2 + $ 4 O 4 3 @ ",
"c.l.%.) < U ,.] o.v c m.=. .J u =.:.=.' < ` g.o.*.v c C.*...F : ",
"~ a i n : p C B B 0 & / p v l # / a y v : p C i c 9 & / c n v @ ",
"s $ & B < t < # c a 8 e + w B > a $ > B t y < + i a e r + 0 B , ",
"-.^ V b.;.;.( t 1.=.&.=.j U j.;.&.~ / 8.o.;.( p =.V.5.=.i J j.>.",
"q + # t # < , @ w & $ i + # 3 - 0 $ % 0 @ < , O 8 > % e O % 5 - ",
"..) I J - N Y U L u 2 ..I I A - ..) G C , H X.J } g 8 ..L  .A @ ",
"*... .W 3 N Q E W x 6 w.W Q T ; +.)  .W 3 P @.W O.M h w.R Q D = ",
"w + O , = 3 3 . 4 : # g O # 3 @ : # < h . # : # : $ + g O : 7 @ ",
"&.a v 9.o.] C 0 =.l.l.$.0 ' j.o.=.V V G.1.] / t 1.=.=...> ) Z.' ",
"! 8 8 V y V p : b a b / > d Z B V y 8 / a V v $ y V a p 9 a a V ",
"b q 0 t @ t l > i $ & m 0 w 4 O p p 8 t + 0 m > p # & C w e 0 + ",
"c.1.<.o.k Y a.<.p.m m n.*.y.P 5 >.,.%.o.j ` Z.,.k.j G J.+.s.+.: ",
"w $ + 4 O - 5 : 4 + + w # 6 3 . 4 , # u O : 4 # : : O : 2 z % + ",
") w w @.P W N - R L R L : A Q T I h 4 @.I I F # } W L K 1 M O.R ",
"$.j j o.I X.F , ..} ..} 2 A Q P U x u o.I ` L : *.K @.#.& M e.K ",
"8 # $ 4 @ : , # > + $ g + , , . , : # u O : 4 O : : # 2 # 4 : O ",
"B.&.&.' < _ j.` *.v j C.*...J 5 1.%.%.' < ' Z._ 1.v u 1.=.o.L > ",
"~ n 0 q < p p v m 8 & ~ j v l O B Z i i > i q n v > $ n j C v $ ",
"s $ $ ^ < t < + c r 8 r $ 0 j : y # > V 8 0 0 $ i i 0 e $ e m > ",
"6.a ( H.] ] ' t =.l.=.=.j ( j.,.1.p V D.[ 1.%.0 1.z.1.=.j ( m.=.",
"& > + > : < # # 8 & $ w X # 4 - < : + : > w $ X < & # w o % w % ",
"$.) G C , H Y J ) h w ..L I S , ` ` ) G < F ` J I h 4 +.L  .F # ",
"C.L  .#.- S r.H  .z g w.W O.E ; @.K X.>.- A y.R O.A z w.W O.K # ",
"+ + @ ; . = @ = 1 @ X 6 O @ ;   @ # @ - . - @ # @ O O 6 . # 1 . "
};
