/* XPM */
static char *result[] = {
/* columns rows colors chars-per-pixel */
"32 32 7 1 ",
"  c #042032",
". c #3D3840",
"X c #4F4E54",
"o c #6F6569",
"O c #6AADF0",
"+ c #96919F",
"@ c None",
/* pixels */
"@@@@@@@@@@@@@@+++@@@@@@@@@@@@@@@",
"@@@@@@@@@@@++++++++@@@@@@@@@@@@@",
"@@@@@@@@@@++++++++++@@@@@@@@@@@@",
"@@@@@@@@@@++oooo++++....@@@@@@@@",
"@@@@@@@@@@+ooooXo++++.....@@@@@@",
"@@@@@@@@@+ooooXoXXXXXo... ..@@@@",
"@@@@@@@@oooooooXXXXXXooooo ..@@@",
"@@@@@@@o.  .ooooXXXXXoooooo..@@@",
"@@....oo ...Xo++XXXX++++++ooo.@@",
"@...+++. ...++++oXXo+++++++ooo@@",
"@..++++.....+++ooooo+++++++oooo@",
"@.+++++...Xo+++ .oooo++++++oooo@",
"@++++++oo+++o... Xooo++++++Xooo@",
"++++++ooo+++o... XooXo+++oXXooo@",
"++++o..oooooo....OoooXX+++oooo@@",
"+++X.XXo......oooO.ooo++++o  o@@",
"++oXXXX.   .  .ooo.o++++++X oo@@",
"++oXXXo   .....ooooo++++++oXOo@@",
"@oooXXo  ......oo.ooo+++++oOOo@@",
"ooooooo. ......Oo.ooooo..ooooo@@",
"@oo.o+++......OO..oooo. ..oooo@@",
"oooo.+++o....oo.  ....  ..ooo@@@",
"@ooo....ooOOo     .  .  XoooX@@@",
"@Xoo..   ..o      .  .  XooXX@@@",
"@OXXX.     o   ..  .. ...XXXO@@@",
"@@OXXXX    o. ..         XXOO@@@",
"@@@OOXXX    oo.    .    XOOO@@@@",
"@@@@OOOXX     X    XXXXOOOO@@@@@",
"@@@@@@OOOOXXXXX   XXXOOO@@@@@@@@",
"@@@@@@@@OOOOXXXXOOOOOOO@@@@@@@@@",
"@@@@@@@@@OOOOOOOOOO@@@@@@@@@@@@@",
"@@@@@@@@@@@@@@@@@@@@@@@@@@@@@@@@"
};
