/* XPM */
static char *result[] = {
/* columns rows colors chars-per-pixel */
"32 32 134 2 ",
"   c #042032",
".  c #082132",
"X  c #152531",
"o  c #1A2433",
"O  c #30262F",
"+  c #35282F",
"@  c #3C282F",
"#  c #212430",
"$  c #2C2630",
"%  c #252C31",
"&  c #2E2C31",
"*  c #212738",
"=  c #252839",
"-  c #342D30",
";  c #3A2B35",
":  c #352B39",
">  c #392B3A",
",  c #452D2F",
"<  c #4C2A2E",
"1  c #542F2E",
"2  c #5A302D",
"3  c #412D3D",
"4  c #5D2E36",
"5  c #58363B",
"6  c #5D383F",
"7  c #6B312C",
"8  c #73302B",
"9  c #672E37",
"0  c #6D2E3D",
"q  c #772F37",
"w  c #782F36",
"e  c #742F39",
"r  c #7C3234",
"t  c #7A4339",
"y  c #472B40",
"u  c #5F2B47",
"i  c #5B2A49",
"p  c #473040",
"a  c #513340",
"s  c #5A3342",
"d  c #642C43",
"f  c #6A2D41",
"g  c #672E49",
"h  c #692F4C",
"j  c #633644",
"k  c #6C334C",
"l  c #763745",
"z  c #74324C",
"x  c #4F4743",
"c  c #55555B",
"v  c #735A4B",
"b  c #565963",
"n  c #83322C",
"m  c #8A332A",
"M  c #8F382D",
"N  c #91362F",
"B  c #813130",
"V  c #8F3836",
"C  c #933731",
"Z  c #953933",
"A  c #9A3A36",
"S  c #A43E3D",
"D  c #964032",
"F  c #A6403E",
"G  c #A13E43",
"H  c #A83F40",
"J  c #95434E",
"K  c #954250",
"L  c #AC4143",
"P  c #B24346",
"I  c #B34847",
"U  c #B6454A",
"Y  c #BB474D",
"T  c #B74C49",
"R  c #BD484F",
"E  c #AC5040",
"W  c #B75648",
"Q  c #B15F4A",
"!  c #A24155",
"~  c #BE4850",
"^  c #A55357",
"/  c #B05E57",
"(  c #B86447",
")  c #AC7858",
"_  c #B67D5A",
"`  c #B25A69",
"'  c #C34A53",
"]  c #C94D57",
"[  c #C14C5A",
"{  c #CD4E5A",
"}  c #CF505D",
"|  c #CD5959",
" . c #D1505D",
".. c #D55A5E",
"X. c #C2624F",
"o. c #C76E51",
"O. c #D7615F",
"+. c #D8635F",
"@. c #D46A5C",
"#. c #CA7453",
"$. c #D6725C",
"%. c #D65E69",
"&. c #D86560",
"*. c #DA6A60",
"=. c #DD7361",
"-. c #DD7279",
";. c #E07D63",
":. c #C2835D",
">. c #DF8D5F",
",. c #E38464",
"<. c #E58D63",
"1. c #E79165",
"2. c #E99566",
"3. c #EA9866",
"4. c #EB9B6B",
"5. c #EC9E70",
"6. c #EDA177",
"7. c #EEA47B",
"8. c #B57F81",
"9. c #E78E91",
"0. c #E99394",
"q. c #EFA680",
"w. c #F1AA87",
"e. c #F1AB89",
"r. c #F4B395",
"t. c #F4B59A",
"y. c #F7BBA5",
"u. c #F7BDA8",
"i. c #F8BFAB",
"p. c #F9C0AE",
"a. c #FAC4B5",
"s. c #FCC9BD",
"d. c #FDCCC3",
"f. c #FECFC8",
/* pixels */
"i - m P A R F @... .F S q 0 0 0 0 w 0 w w m S S m m m m 0 i i 3 ",
"3 0 m A N  .6.s.f.u.<. . .Z m m m m m m m U  .*.3.%.M m n d i i ",
"> m m m  .7.f.f.f.f.4. . .m m  .N m m m m '  . ...3.2.e m m d i ",
"q n w { <.f.f.f.f.` z i i i i i f z H P m A A  . .+.3.L f m m f ",
"0 d L 1.t.w.4.r.` i i i i i i i i i i q m m  .S H {  . .0 i m w ",
"q z &.3.r.3.,...d i i i i d f f f 0 i i i q G  .A m m m B i m m ",
"w Z 2.p.3.,.<.C i d f ] V @         r 8 i i i S  .A  .m m d m w ",
"w | 3.5.3.3.{ m B m r o               . o n i f  . .~ ] A m m e ",
"m ,.y.2.3.3.{ m m #                         l i H  .A  .'  .m 0 ",
"..6.;.3.3.$.{ m # .                           l g  .S H  .m C 0 ",
"&.,. .,.@.{ Y X                                 8 R  .S  . . .m ",
" . . .&.m { r                                   o m  .m  . .' m ",
" . . .m m  .                                      n ' m  . .' S ",
"m P P P ' ! . .       .                           @ R W o.*.I S ",
"#.,.3.*.+./ x x x x x x x x x x x x x x x c b c x >.,.,. . .+.@.",
"m m m ] $.1.1.1.<.>.<.<.2.3.3.3.3.2.1.1.>.>.@.{ { { ....*.3.1. .",
"S ~ m m m N  . .m M N Z Z T ..V k h h C m Y $.>.<.1.3.3...a. . .",
"m m S  .6 S 6 s ; , , , 5 a p p p > ; 3 O & O O O O 2 J -.{  .m ",
"n e m R r 7 < , < + . .       X X X X .   X X X < m & 8.-.e.*.A ",
"r d i n { 1                                       r _ d.q.d.3.Q ",
"m m m f m R [                                   X 1.3.f.f.d.2.f.",
"m '  . .m C A o                                 :.3.i.t.f.f.y.0.",
"S A  . .L m m j # .                           ) 2.3.f.a.f.3.a.X.",
"C  . . . .A U 5 @ o                         t 3.3.s.f.f.p.4.6.E ",
" . . . . . .C ~ j s K * . .           . o n 3.3.7.f.f.f.3.a.3.S ",
" . . . . .&. .C R L n m ~ s         r 7 O r 3.w.f.f.f.t.3.3.O.m ",
"^  . . .*. . .&.;.;.o.' * = y & $ $ . K J R i.f.e.f.t.,.3.3...F ",
"4 2.=. .&.=.=.=...+.3.3.3.( v j L F  .%.9.t.7.6.d.0...,.3.=. .e ",
": D 3.$. . . .,.2.3.3.,. . . . .{ ,.w.t.3.3.7.3.+.O.3.3.=.} k i ",
"% d m  .=.;... . . .2.2.3.1. .1.2.2.3.4.4.d.4.3.3.3.3.=.} i i > ",
"% ; m N  . .+.2.<.=. . . . . . . .<.a.u.6.3.3.4.3.3...! k i : % ",
"> o m m A P ;.2.3.3.3.3.;.;.;.;. .+.3.2.3.3.3.E S m u i 9 % % % "
};
