/* XPM */
static char *result[] = {
/* columns rows colors chars-per-pixel */
"32 32 239 2 ",
"   c #17333A",
".  c #19343B",
"X  c #1A353C",
"o  c #1E383F",
"O  c #1D3B41",
"+  c #213B42",
"@  c #233C43",
"#  c #253D45",
"$  c #273E45",
"%  c #2B4149",
"&  c #2B4249",
"*  c #2D434A",
"=  c #29444A",
"-  c #33474E",
";  c #33474F",
":  c #2C4E51",
">  c #344850",
",  c #354950",
"<  c #364951",
"1  c #384B53",
"2  c #3D4E56",
"3  c #3E4F57",
"4  c #2E5053",
"5  c #325658",
"6  c #385259",
"7  c #3D535A",
"8  c #355A5B",
"9  c #3A6060",
"0  c #405158",
"q  c #43535B",
"w  c #45545C",
"e  c #46555C",
"r  c #47565E",
"t  c #49575F",
"y  c #4A5860",
"u  c #4C5A61",
"i  c #4D5A62",
"p  c #4A5F65",
"a  c #505C64",
"s  c #515D65",
"d  c #545F67",
"f  c #4C646C",
"g  c #446E6C",
"h  c #556068",
"j  c #56626A",
"k  c #56646B",
"l  c #58636B",
"z  c #57686D",
"x  c #586A6F",
"c  c #5B6971",
"v  c #5E6970",
"b  c #5D6A71",
"n  c #5C6A72",
"m  c #5C7678",
"M  c #517E7A",
"N  c #5F7F7F",
"B  c #646E76",
"V  c #657178",
"C  c #667279",
"Z  c #63767A",
"A  c #6D767D",
"S  c #3C6A8C",
"D  c #487294",
"F  c #437298",
"G  c #577DA0",
"H  c #5F8381",
"J  c #628483",
"K  c #658785",
"L  c #648D89",
"P  c #72828A",
"I  c #7A8289",
"U  c #708E8D",
"Y  c #66938D",
"T  c #66948D",
"R  c #679790",
"E  c #679991",
"W  c #689991",
"Q  c #699B93",
"!  c #6B9B93",
"~  c #6A9E95",
"^  c #6B9E95",
"/  c #6B9E96",
"(  c #6D9F97",
")  c #779694",
"_  c #6FA098",
"`  c #6EA199",
"'  c #70A098",
"]  c #74A29B",
"[  c #75A29B",
"{  c #76A29B",
"}  c #71A49C",
"|  c #79A39D",
" . c #7BA49E",
".. c #5E83A6",
"X. c #5B88B2",
"o. c #608AB2",
"O. c #618CB6",
"+. c #618FBB",
"@. c #6595B1",
"#. c #6291BF",
"$. c #75A6A0",
"%. c #79AAA4",
"&. c #7AAAA5",
"*. c #7CADA8",
"=. c #7EAEA9",
"-. c #61A0DD",
";. c #67A4E0",
":. c #69A8E7",
">. c #6AADEF",
",. c #6BADEF",
"<. c #6AAEEF",
"1. c #69ADF0",
"2. c #6AADF0",
"3. c #69AEF0",
"4. c #818D92",
"5. c #8C9399",
"6. c #80A5A1",
"7. c #81A6A1",
"8. c #82A6A2",
"9. c #82A7A2",
"0. c #84A7A3",
"q. c #85A7A3",
"w. c #87A8A4",
"e. c #87A8A5",
"r. c #88A8A5",
"t. c #89A9A6",
"y. c #8CAAA7",
"u. c #8DAAA8",
"i. c #8EABA8",
"p. c #9DA3A9",
"a. c #9FA5AA",
"s. c #90ABAA",
"d. c #95ADAC",
"f. c #97AEAD",
"g. c #9AAFAF",
"h. c #86B4B1",
"j. c #8AB7B5",
"k. c #8BB8B6",
"l. c #9DB0B1",
"z. c #A9AEB3",
"x. c #A4B3B5",
"c. c #A7B4B7",
"v. c #ABB0B5",
"b. c #ACB0B6",
"n. c #A8B4B6",
"m. c #AAB4B7",
"M. c #ACB5B9",
"N. c #ADB5B9",
"B. c #ADB6B9",
"V. c #AEB6BA",
"C. c #AFB6BA",
"Z. c #AFB6BB",
"A. c #B0B6BB",
"S. c #B0B7BB",
"D. c #B1B7BB",
"F. c #B2B7BC",
"G. c #B4B7BD",
"H. c #B3B8BC",
"J. c #B3B8BD",
"K. c #B4B8BD",
"L. c #B5B8BD",
"P. c #B4B8BE",
"I. c #B4B9BE",
"U. c #B4B9BF",
"Y. c #B5BABF",
"T. c #94C0BF",
"R. c #9FB9C2",
"E. c #B5BBC0",
"W. c #B6BCC2",
"Q. c #B6BDC2",
"!. c #B6BEC3",
"~. c #B3BFC4",
"^. c #B6BFC4",
"/. c #AAC1C5",
"(. c #AFC0C5",
"). c #AEC1C5",
"_. c #B7C0C5",
"`. c #B7C1C7",
"'. c #B8C2C8",
"]. c #B8C2C9",
"[. c #B8C3C9",
"{. c #B8C3CA",
"}. c #B8C4CB",
"|. c #B9C5CB",
" X c #BAC7CE",
".X c #A4CDD0",
"XX c #BAC9D0",
"oX c #BBCAD1",
"OX c #BCCED5",
"+X c #A8D0D4",
"@X c #B1D3D8",
"#X c #BDD2D9",
"$X c #BDD2DA",
"%X c #BED3DB",
"&X c #BFD4DD",
"*X c #BFD7DF",
"=X c #B2D8DE",
"-X c #B5DAE1",
";X c #B6DBE1",
":X c #BFD8E0",
">X c #BFD9E1",
",X c #BFD9E2",
"<X c #BFDAE2",
"1X c #BEDBE3",
"2X c #B9DCE3",
"3X c #BFDDE5",
"4X c #BCE0E8",
"5X c #C0DAE3",
"6X c #C0DBE3",
"7X c #C0DBE4",
"8X c #C1DCE4",
"9X c #C1DDE5",
"0X c #C1DDE6",
"qX c #C2DDE6",
"wX c #C2DEE7",
"eX c #C2DEE8",
"rX c #C2DFE8",
"tX c #C2E0E9",
"yX c #C3E0EA",
"uX c #C3E1EA",
"iX c #C3E1EB",
"pX c #C3E2EB",
"aX c #C1E3ED",
"sX c #C3E2EC",
"dX c #C3E3EC",
"fX c #C4E3ED",
"gX c #C1E4ED",
"hX c #C2E4ED",
"jX c #C3E5EF",
"kX c #C4E4EE",
"lX c #C4E5EE",
"zX c #C4E5EF",
"xX c #C3E6F0",
"cX c #C4E6F0",
"vX c #C5E6F0",
"bX c #C4E7F1",
"nX c #C5E7F1",
"mX c #C6E7F1",
"MX c None",
/* pixels */
"MXMXMXMXMXMXMXMXMXMXMXnXnXnXnXnXnXnXnXnXnXnXMXMXMXMXMXMXMXMXMXMX",
"MXMXMXMXMXMXMXMXMXnXnXnXnXnXnXnXnXnXnXnXkX#XdXbXMXMXMXMXMXMXMXMX",
"MXMXMXMXMXMXMXnXnXdXnXnXnXnXnXnXnXnX%XK.K.K.K.%XnXmXMXMXMXMXMXMX",
"MXMXMXMXMXMXnXsX$XnXnXnXnXnXnXnXnXI.K.K.K.K.K.K.K.iXcXMXMXMXMXMX",
"MXMXMXMXqX8XpXW.nXnXnXnXnXnXnXcXg.F.K.K.l.Z.K.|.XXwXnXnXMXMXMXMX",
"MXMXMXMXnX9XK.}.nXnXnXnXnXcXF.8.J.K. XfXnX X}.nXnXnXnXnXcXMXMXMX",
"MXMXMXeXnX4Xx.}.nXnXnXnXnXK.K.K.K.zXnXnXnXnXnXnXnXnXnXnXnXmXMXMX",
"MXMXK.oXnX:XnXOXnXnXnXnX+X{.K.K.K.nXnXnXnXnXnXnXnXnXnXnXnXnXMXMX",
"MXMXN.e.tXnXOXnXnXnX1Xl.h.K.P.nXnXnXnXnXnXnXnXnXnXnXnXnXnXnX&XMX",
"MXL.y.e.K.yXnXnXnXzXm.K.K.K.Y.nXnXnX0XnXnXnXnXnXnX0X).=X/.~ v.MX",
"MXV.~ ~ K.w.2XuXnX3XK.K.K.K.K.rX;X` C.6XnXnXyX X*X(.A.z.U d.4.G.",
"MXu.~ ~ 7.K.^.nXnX@XK.^.!.m.K.K.K.D.K. .] K.K.K.K.K.K.B.S.b _ s.",
"M.~ ~ ~ ` nXnXnXcXc.nXnXnXnXnXK.Q.K.K.K.K.K.K.K.K.K.K.! K.K.r.y.",
"s.~ V.' k.nXnXnX7X~.].nXnXnXnXfXI.K.K.K.K.K.K.K.K.K.K.9.K K.K.i.",
"~ ~ K.( j.nXvX>X^ `._.lXlXD.( K.K.Y.K.K.K.K.K.K.K.K.K.0.f.K.K.~ ",
"~ ~ J.K.q.K.~ ~ ~ | H.H.K.K.I.U.nXE.dXQ.K.I.0X[.J.I.I.m d J I.~ ",
"~ ~ t.K.K./ ~ ~ ~ ~ %.xXvXvXnXnXnXnXvXvXvXnXvXK.<XnXnXcXjXcXnXxX",
"T.hXnXvXnXnXaX~ =.gXnXnXnXnXnXnXnXnXnXnXnXnXnXP ,XnXnXnXnXnXnXnX",
"nXnXnXnXnXnXnXnXnXnXnXnXnXnXnXnXnXnXnXnXnXnXnXa.K.5XnX} .XnXnXnX",
"MXnXnXnXnXnXnXnXnXnXnXnXnXnXnXnXnXnXnXnXnX}.j p.K.K.6.d d n c N ",
"MXnXnXnXnXnXnXnXnX-X$.~ z '.nX^.^.^.^.[ A d d v K.I l X   3 d ~ ",
"MXnXnXnXnXnXnXnX&.~ ~ R d h V { x B C B d d d d d + i t     2 MX",
"MXMXR.6 f *.*.~ ~ T x Y ~ ~ Q   @ @ = @ @ @ y s d d d d u & g MX",
"MXMXd   < d e #     x ~ ~ ~ E   w d k r o t d 5.C.K.) b.K.K.MXMX",
"MXMXMXG             ~ ~ ~ ~ :   q d k .   H L K.K.K.K.K.K.K.MXMX",
"MXMXMX,.S           9 ~ W 4       M O   $ 8 ~ n.K.K.K.K.K.MXMXMX",
"MXMXMXMX;.-           X % % & 5 5         0 0   7 p Z @.MXMXMXMX",
"MXMXMXMXMX;.D                           d d * , 3 d #.1.MXMXMXMX",
"MXMXMXMXMXMX,.-.;                         d d d d ;.MXMXMXMXMXMX",
"MXMXMXMXMXMXMXMX2.X.>                   a d ..O.>.MXMXMXMXMXMXMX",
"MXMXMXMXMXMXMXMXMXMX2.+.o.o.d 1 1 1 F o.:.2.<.MXMXMXMXMXMXMXMXMX",
"MXMXMXMXMXMXMXMXMXMXMXMXMX2.2.2.2.2.2.3.MXMXMXMXMXMXMXMXMXMXMXMX"
};
