/* XPM */
static char *result[] = {
/* columns rows colors chars-per-pixel */
"32 32 96 2 ",
"   c #221A23",
".  c #211924",
"X  c #211A24",
"o  c #221A25",
"O  c #221A26",
"+  c #231B26",
"@  c #231B27",
"#  c #241C27",
"$  c #241B28",
"%  c #241C28",
"&  c #251C28",
"*  c #251D29",
"=  c #241D2A",
"-  c #251D2A",
";  c #261D2A",
":  c #261D2B",
">  c #261E2B",
",  c #271E2B",
"<  c #29202E",
"1  c #2B222F",
"2  c #2C232F",
"3  c #2D2333",
"4  c #2E2434",
"5  c #2F2534",
"6  c #2F2435",
"7  c #2F2535",
"8  c #302535",
"9  c #302734",
"0  c #302536",
"q  c #302636",
"w  c #322738",
"e  c #332839",
"r  c #342839",
"t  c #34283A",
"y  c #34293A",
"u  c #34293B",
"i  c #36293C",
"p  c #352A3C",
"a  c #362B3D",
"s  c #372B3D",
"d  c #372A3E",
"f  c #372B3E",
"g  c #372B3F",
"h  c #382B3E",
"j  c #382E3C",
"k  c #382C3E",
"l  c #382C3F",
"z  c #3B2E42",
"x  c #3B2E43",
"c  c #3D3144",
"v  c #3D3145",
"b  c #3D3046",
"n  c #3C3146",
"m  c #3D3146",
"M  c #443949",
"N  c #473A4E",
"B  c #4C3F54",
"V  c #55475D",
"C  c #534859",
"Z  c #574D5C",
"A  c #584A60",
"S  c #5A4D60",
"D  c #5E4F66",
"F  c #5F5067",
"G  c #605266",
"H  c #605566",
"J  c #665B6B",
"K  c #685E6C",
"L  c #6C5D75",
"P  c #796881",
"I  c #7C7281",
"U  c #83728A",
"Y  c #8B7994",
"T  c #93819C",
"R  c #92819D",
"E  c #9785A0",
"W  c #9886A1",
"Q  c #9987A2",
"!  c #9A87A3",
"~  c #9F96A4",
"^  c #A08DAA",
"/  c #A097A3",
"(  c #A895B2",
")  c #A995B3",
"_  c #AB97B5",
"`  c #AB98B6",
"'  c #AC98B5",
"]  c #AC98B6",
"[  c #AD98B6",
"{  c #AC99B6",
"}  c #AD98B7",
"|  c #AC99B7",
" . c #BBB4BE",
".. c #BCB4BE",
"X. c #E7E0E9",
"o. c None",
/* pixels */
"o.o.o.o.o.o.o.o.o.o.o.o.o.o.o.o.o.o.o.o.o.o.o.o.o.o.o.o.o.o.o.o.",
"o.o.o.o.o.o.o.o.o.o.o.o.o.o.o.o.o.o.o.o.o.o.o.o.o.o.o.o.o.o.o.o.",
"o.o.o.o.o.o.o.o.o.o.o.o.o.o.o.o.o.o.o.o.o.o.o.o.o.o.o.o.o.o.o.o.",
"o.o.o.o.o.o.o.o.o.o.o.o.o.o.o.o.o.o.o.o.o.o.o.o.o.o.o.o.o.o.o.o.",
"o.o.o.o.o.o.o.o.o.o.s f f f f f g o.o.o.o.o.o.o.o.o.o.o.o.o.o.o.",
"o.o.o.o.o.o.o.o.o.d a f f f f f f d o.o.o.o.o.o.o.o.o.o.o.o.o.o.",
"o.o.o.o.o.o.o.o.o.f f f f f f f f k o.o.o.o.o.o.o.o.o.o.o.o.o.o.",
"o.o.o.o.o.o.o.o.R c f f C ~ ~ H H / o.o.o.o.o.o.o.o.o.o.o.o.o.o.",
"o.o.o.o.o.o.o.o.R c f f J X.X.I I X.o.o.o.o.o.o.o.o.o.o.o.o.o.o.",
"o.o.o.o.o.o.] _ o.w w w Z ....K K  .o.o.o.o.o.o.o.o.o.o.o.o.o.o.",
"o.o.o.o.o.} o.o.o.. . . . . . . . . o.o.o.o.o.o.o.o.o.o.o.o.o.o.",
"o.o.o.o.| o.o.o.o.. . . . . . . . . o.o.o.o.o.o.o.o.o.o.o.o.o.o.",
"o.o.o.o.] o.o.o.i 8 7 7 7 7 7 7 7 0 s o.o.o.o.o.o.o.o.o.o.o.o.o.",
"o.o.o.o.] o.o.m x x x x x x x x x x x n o.o.o.o.o.o.o.o.o.o.o.o.",
"o.o.o.o.] o.v b b b b b b b b b b b b b o.o.o.o.o.o.o.o.o.o.o.o.",
"o.o.o.o.] o.h f f f f f f f f f f f f f o.o.o.o.o.o.o.o.o.o.o.o.",
"o.o.o.o.] o.h f f f f f f f f f f f f f o.o.o.o.o.o.o.o.o.o.o.o.",
"o.o.o.o.o.` F f f f f f f f f f A Y Y Y o.o.o.o.o.o.o.o.o.o.o.o.",
"o.o.o.o.o.o.V f f f f f f f f f B P ) ] ] o.o.o.o.o.o.o.o.o.o.o.",
"o.o.o.o.o.o.h f f f f f f f f f N L ( ] T U o.o.o.o.o.o.o.o.o.o.",
"o.o.o.o.o.o.r t u f f f f f f f D ! ! E S M W ) o.o.o.o.o.o.o.o.",
"o.o.o.o.o.o.X o & p f f f f f f l z z 1 + o 9 Q ] ` o.o.o.o.o.o.",
"o.o.o.o.o.  . . o * w f f f f f f u , O . . 2 W ] ] ] ] o.o.o.o.",
"o.o.o.o.o.. . . . . q f f f f f f p 4 % . . 2 W ] ] ] ] ' o.o.o.",
"o.o.o.o.o.o.. . o < e f f f f f f f f 3 : j G ^ ] ] ] ] ] { o.o.",
"o.o.o.o.o.o.o.o > y p p p p p p p p p f o.o.] ] ] ] ] ] ] ] [ o.",
"o.o.o.o.o.o.o.o.7 7 4 5 5 5 5 5 6 7 7 o.o.o.] ] ] ] ] ] ] ] ' o.",
"o.o.o.o.o.o.o.o.o.o.% @ @ @ @ @ % o.o.o.o.] ] ] ] ] ] ] o.o.o.o.",
"o.o.o.o.o.o.o.o.o.o.$ % % % % % # o.o.o.} ] ] ] ] ] ] o.o.o.o.o.",
"o.o.o.o.o.o.o.o.o.o.o.- - - - = o.o.o.o.} ] | | | | o.o.o.o.o.o.",
"o.o.o.o.o.o.o.o.o.o.o.o.; ; ; o.o.o.o.o.o.] o.o.o.o.o.o.o.o.o.o.",
"o.o.o.o.o.o.o.o.o.o.o.o.o.o.o.o.o.o.o.o.o.o.o.o.o.o.o.o.o.o.o.o."
};
