/* XPM */
static char *result[] = {
/* columns rows colors chars-per-pixel */
"32 32 106 2 ",
"   c #201924",
".  c #211924",
"X  c #221924",
"o  c #211A24",
"O  c #221A25",
"+  c #231A26",
"@  c #221B26",
"#  c #231B27",
"$  c #251C28",
"%  c #251D28",
"&  c #241C29",
"*  c #251C2A",
"=  c #251D2A",
"-  c #271E2A",
";  c #281F2B",
":  c #281F2C",
">  c #281F2D",
",  c #291F2D",
"<  c #2A202E",
"1  c #2B212F",
"2  c #2B222E",
"3  c #2B232E",
"4  c #2C2330",
"5  c #2C2231",
"6  c #2D2232",
"7  c #2C2332",
"8  c #2D2332",
"9  c #2E2333",
"0  c #2E2631",
"q  c #2E2433",
"w  c #2F2434",
"e  c #2E2435",
"r  c #2F2535",
"t  c #302535",
"y  c #302833",
"u  c #302933",
"i  c #322738",
"p  c #332739",
"a  c #33283A",
"s  c #34283A",
"d  c #34293B",
"f  c #35293B",
"g  c #34293C",
"h  c #35293C",
"j  c #362A3C",
"k  c #372A3D",
"l  c #372B3E",
"z  c #372B3F",
"x  c #382B3F",
"c  c #382C3F",
"v  c #382C40",
"b  c #392C40",
"n  c #392D41",
"m  c #3A2F42",
"M  c #3B3041",
"N  c #3C3043",
"B  c #3F3346",
"V  c #3F3248",
"C  c #3F3249",
"Z  c #413645",
"A  c #483B4F",
"S  c #483D4F",
"D  c #4A3E4F",
"F  c #4B3F50",
"G  c #4E4253",
"H  c #4E4354",
"J  c #4F4354",
"K  c #4E4056",
"L  c #4F4257",
"P  c #53455B",
"I  c #554A5B",
"U  c #62546A",
"Y  c #65566D",
"T  c #685770",
"R  c #695A70",
"E  c #6F5F78",
"W  c #756B7A",
"Q  c #7D6C86",
"!  c #84748C",
"~  c #86758F",
"^  c #887891",
"/  c #8B8290",
"(  c #908794",
")  c #93819D",
"_  c #94829D",
"`  c #988F9C",
"'  c #9A88A4",
"]  c #9B89A4",
"[  c #9E8BA7",
"{  c #9D94A1",
"}  c #A299A6",
"|  c #AA96B4",
" . c #AD97B6",
".. c #AB98B7",
"X. c #AC98B5",
"o. c #AC98B6",
"O. c #AD98B6",
"+. c #AC99B6",
"@. c #AC98B7",
"#. c #B1A9B4",
"$. c #C4BDC6",
"%. c #C9C1CC",
"&. c #CBC4CD",
"*. c #DFD8E1",
"=. c #E7E0E9",
"-. c None",
/* pixels */
"-.-.-.-.-.-.-.-.-.-.-.-.-.-.-.-.-.-.-.-.-.-.-.-.-.-.-.-.-.-.-.-.",
"-.-.-.-.-.-.-.-.-.-.-.-.-.-.-.-.-.-.-.-.-.-.-.-.-.-.-.-.-.-.-.-.",
"-.-.-.-.-.-.-.-.-.-.-.-.-.-.-.-.-.-.-.-.-.-.-.-.-.-.-.-.-.-.-.-.",
"-.-.-.-.-.-.-.-.-.-.-.z l l l l l l -.-.-.-.-.-.-.-.-.-.-.-.-.-.",
"-.-.-.-.-.-.-.-.-.-.x l l l l l l l l -.-.-.-.-.-.-.-.-.-.-.-.-.",
"-.-.-.-.-.-.-.-.o.-.x l l l l l l l l -.-.-.-.-.-.-.-.-.-.-.-.-.",
"-.-.-.-.-.-.-. .-.o.K l l N / { W S ` -.-.-.-.-.-.-.-.-.-.-.-.-.",
"-.-.-.-.-.-. .-.-.X.L l l B %.=.} I *.-.-.-.-.-.-.-.-.-.-.-.-.-.",
"-.-.-.-.-.o.-.-.-.-.a s s M #.&.( H $.-.-.-.-.-.-.-.-.-.-.-.-.-.",
"-.-.-.-.-.o.-.-.-.-.@ + + # 0 u 3 % y -.-.-.-.-.-.-.-.-.-.-.-.-.",
"-.-.-.-.-.o.-.-.-.-.o . . . . . . . . -.-.-.-.-.-.-.-.-.-.-.-.-.",
"-.-.-.-.-.o.-.-.-.-.9 5 5 5 5 5 5 5 5 i -.-.-.-.-.-.-.-.-.-.-.-.",
"-.-.-.-.-.o.-.-.-.n n n n n n n n n n n m -.-.-.-.-.-.-.-.-.-.-.",
"-.-.-.-.-.o.-.-.V V V V V V V V V V V V V C -.-.-.-.-.-.-.-.-.-.",
"-.-.-.-.-.o.-.-.v v v v v v v v v v v v v b -.-.-.-.-.-.-.-.-.-.",
"-.-.-.-.-.o.-.-.l l l l l l l l l l l l l x -.-.-.-.-.-.-.-.-.-.",
"-.-.-.-.-.-.-.T l l l l l l l P Y Y Y Y Y E -.-.-.-.-.-.-.-.-.-.",
"-.-.-.-.-.-.-.Q l l l l l c A ~ o.o.o.' _ ] o.o.o.o.o.o.o.o.O.-.",
"-.-.-.-.-.-.-.-.l l l l l N ) | o.o.o.F ; J o.o.o.o.o.o.o.o.O.-.",
"-.-.-.-.-.-.-.-.l l l l p : Z ! o.' F 2 . 4 G [ o.o.o.o.o.o.O.-.",
"-.-.-.-.-.-.-.-.l l l i , . . D R U $ . . . - ^ -.-.+.o.o...-.-.",
"-.-.-.-.-.-.-.-.l l l 5 . . . . < d > + . .   -.-.-.-.@.o.-.-.-.",
"-.-.-.-.-.-.-.-.l l l 8 O . . O 1 l l : + @ -.-.-.-.-.-.-.-.-.-.",
"-.-.-.-.-.-.-.-.l l l j w . . 6 h l l f s a -.-.-.-.-.-.-.-.-.-.",
"-.-.-.-.-.-.-.-.l l l l h r r s l l l l l x -.-.-.-.-.-.-.-.-.-.",
"-.-.-.-.-.-.-.-.k s s s s s s s s s s s g -.-.-.-.-.-.-.-.-.-.-.",
"-.-.-.-.-.-.-.-.-.t e q 7 7 7 7 7 8 r e -.-.-.-.-.-.-.-.-.-.-.-.",
"-.-.-.-.-.-.-.-.-.-.-.-.. . . . . X -.-.-.-.-.-.-.-.-.-.-.-.-.-.",
"-.-.-.-.-.-.-.-.-.-.-.-.& & & & & & -.-.-.-.-.-.-.-.-.-.-.-.-.-.",
"-.-.-.-.-.-.-.-.-.-.-.-.* = = = = -.-.-.-.-.-.-.-.-.-.-.-.-.-.-.",
"-.-.-.-.-.-.-.-.-.-.-.-.-.* * * -.-.-.-.-.-.-.-.-.-.-.-.-.-.-.-.",
"-.-.-.-.-.-.-.-.-.-.-.-.-.-.-.-.-.-.-.-.-.-.-.-.-.-.-.-.-.-.-.-."
};
