/* XPM */
static char *result[] = {
/* columns rows colors chars-per-pixel */
"32 32 66 1 ",
"  c #211924",
". c #221924",
"X c #251C2A",
"o c #251D2A",
"O c #251C2B",
"+ c #29202F",
"@ c #2A202E",
"# c #2A212F",
"$ c #2B2130",
"% c #2A2230",
"& c #2B2230",
"* c #2C2130",
"= c #2F2536",
"- c #312637",
"; c #34293B",
": c #372B3D",
"> c #372B3E",
", c #372C3F",
"< c #382B3F",
"1 c #392D41",
"2 c #3A2E41",
"3 c #3B2F42",
"4 c #3A2E43",
"5 c #3B2E43",
"6 c #3B2F43",
"7 c #3C2E44",
"8 c #3C3143",
"9 c #3F3346",
"0 c #3F3447",
"q c #3E3148",
"w c #3E3248",
"e c #3F3248",
"r c #3E3249",
"t c #3F3249",
"y c #43364B",
"u c #473A4F",
"i c #493E50",
"p c #4D4055",
"a c #504557",
"s c #54465C",
"d c #55475C",
"f c #594D5F",
"g c #5E5364",
"h c #635869",
"j c #665B6C",
"k c #6D6373",
"l c #6E6473",
"z c #837988",
"x c #847B88",
"c c #847A89",
"v c #9C92A0",
"b c #A38FAC",
"n c #A390AB",
"m c #A692B0",
"M c #AC97B5",
"N c #AD97B6",
"B c #AC98B6",
"V c #AD98B6",
"C c #AC99B6",
"Z c #AD98B7",
"A c #AD99B7",
"S c #ABA2AF",
"D c #D8D2DB",
"F c #D9D2DC",
"G c #DCD5DE",
"H c None",
/* pixels */
"HHHHHHHHHHHHHHHHHHHHHHHHHHHHHHHH",
"HHHHHHHHHHHHHHHHHHHHHHHHHHHHHHHH",
"HHHHHHHHHHHHHHHHHHHHHHHHHHHHHHHH",
"HHHHHHHHHHHHHH,,,,,,,HHHHHHHHHHH",
"HHHHHHHHHHHHH>>>>>>>>>HHHHHHHHHH",
"HHHHHHHHHHHH>>>>>>>>>>>HHHHHHHHH",
"HHHHHHHHHHHH<>>>>>>>>>,HHHHHHHHH",
"HHHHHHHHHHHH0>>>>>>>>>,HHHHHHHHH",
"HHHHHHHHHABmd>>>>>>>>>,HHHHHHHHH",
"HHHHHHHHHMVnp>>>azck3jxHHHHHHHHH",
"HHHHHHHHVHHH>>>>kFGS9vDHHHHHHHHH",
"HHHHHHZMHHH<>>>>iklg2fh8HHHHHHHH",
"HHHHHHVCHH611111111111117HHHHHHH",
"HHHHHHVCHqrwwwwwwwwwwwwwteHHHHHH",
"HHHHHHVCH54444444444444445HHHHHH",
"HHHHHHVCH,>>>>>>>>>>>>>>>:HHHHHH",
"HHHHHHVCH,>>>>>>>>>>>>>>>:HHHHHH",
"HHHHHHHNHu>>>>>>>>>>>>>>>:HHHHHH",
"HHHHHHHHbs>>>>>>>>>>>>>>>:HHHHHH",
"HHHHHHHHHy>>>>>>>>>>>>>>>:HHHHHH",
"HHHHHHHHH,>>>>>>>>>>>>>>>:HHHHHH",
"HHHHHHHHH,>>>>>>>>>>>>>>>:HHHHHH",
"HHHHHHHHH,>>>>>>>>>>>>>>>:HHHHHH",
"HHHHHHHHH,>>>>>>>>>>>>>>>:HHHHHH",
"HHHHHHHHH,>>>>>>>>>>>>>>>:HHHHHH",
"HHHHHHHHH&->>>>>>>>>>>>>-*HHHHHH",
"HHHHHHHH  @>>>>>>>>>>>>>#  HHHHH",
"HHHHHHHH  @>>>>>>>>>>>>>#  HHHHH",
"HHHHHHHH..#;;;;;;;;;;;;;$..HHHHH",
"HHHHHHHHHHH=============HHHHHHHH",
"HHHHHHHHHHHHHHH$+++%HHHHHHHHHHHH",
"HHHHHHHHHHHHHHHXoooOHHHHHHHHHHHH"
};
