/* XPM */
static char *result[] = {
/* columns rows colors chars-per-pixel */
"32 32 90 1 ",
"  c #221A23",
". c #211924",
"X c #221A25",
"o c #221A26",
"O c #231A26",
"+ c #231B26",
"@ c #231B27",
"# c #241B27",
"$ c #241C28",
"% c #241C29",
"& c #251C29",
"* c #251C2A",
"= c #241D2A",
"- c #251D2A",
"; c #251D2B",
": c #281F2B",
"> c #281F2C",
", c #291F2D",
"< c #2A212F",
"1 c #2B232E",
"2 c #2C2231",
"3 c #2C2332",
"4 c #2D2333",
"5 c #2E2333",
"6 c #2F2732",
"7 c #2E2434",
"8 c #2F2434",
"9 c #2E2435",
"0 c #2F2535",
"q c #302536",
"w c #302833",
"e c #302933",
"r c #322738",
"t c #332839",
"y c #33283A",
"u c #34283A",
"i c #34293A",
"p c #34293B",
"a c #35293C",
"s c #362A3D",
"d c #362B3E",
"f c #372B3E",
"g c #372B3F",
"h c #382A3D",
"j c #382E3C",
"k c #3A303F",
"l c #382C40",
"z c #392D41",
"x c #3F3444",
"c c #3F3248",
"v c #403545",
"b c #44374B",
"n c #44384A",
"m c #473C4D",
"M c #483B50",
"N c #4D4253",
"B c #55475D",
"V c #58495F",
"C c #65566D",
"Z c #66566E",
"A c #66586C",
"S c #6C5E73",
"D c #6E5F76",
"F c #6F6078",
"G c #776C7C",
"H c #7A6B82",
"J c #7B6A83",
"K c #7D6C85",
"L c #816F89",
"P c #908794",
"I c #928A96",
"U c #94829D",
"Y c #9D94A1",
"T c #9D94A2",
"R c #A390AD",
"E c #A59CA9",
"W c #A995B2",
"Q c #AB97B6",
"! c #AB98B5",
"~ c #AC98B6",
"^ c #AD98B6",
"/ c #AC99B6",
"( c #AC98B7",
") c #B8B1BB",
"_ c #CBC4CD",
"` c #CCC5CD",
"' c #D1C9D4",
"] c #E7E0E9",
"[ c #E7E1EA",
"{ c None",
/* pixels */
"{{{{{{{{{{{{{{{{{{{{{{{{{{{{{{{{",
"{{{{{{{{{{{{{{{{{{{{{{{{{{{{{{{{",
"{{{{{{{{{{{{{{{{{{{{{{{{{{{{{{{{",
"{{{{{{{{{{hffffffh{{{{{{{{{{{{{{",
"{{{{{{{{{gffffffffg{{{{{{{{{{{{{",
"{{{{{{{{{gffffffffg{{{{{{{{{{{{{",
"{{{{{{{{~BfffGYPnGT{{{{{{{{{{{{{",
"{{{{{{{{~VfffE]'NE[{{{{{{{{{{{{{",
"{{{{{{{Q{yuuuI_)mI`{{{{{{{{{{{{{",
"{{{{{/~{{+OOO1e6$1w{{{{{{{{{{{{{",
"{{{{/{{{{ ........ {{{{{{{{{{{{{",
"{{{{~{{{{7222222227{{{{{{{{{{{{{",
"{{{{~{{{zzzzzzzzzzzz{{{{{{{{{{{{",
"{{{{~{{cccccccccccccc{{{{{{{{{{{",
"{{{{~{{llllllllllllll{{{{{{{{{{{",
"{{{{~{{ffffffffffffff{{{{{{{{{{{",
"{{{{^{ZfffffffMCCCCCCL{{{{{{{{{{",
"{{{{{/JffffffbF~~~RUUR~~~~~~~~({",
"{{{{{{{ffffffKW~~~H::H~~~~~~~~({",
"{{{{{{{ffffa,kS~~Sj..jS~~~~!{{{{",
"{{{{{{{ffft<o.kADx....v{{{{{{{{{",
"{{{{{{{fff8....#p4&...{{{{{{{{{{",
"{{{{{{{fff0O..X&pf0OO{{{{{{{{{{{",
"{{{{{{{fffsr@.>pffsuu{{{{{{{{{{{",
"{{{{{{{ffffsq0rffffff{{{{{{{{{{{",
"{{{{{{{diuuuuuuuuuuid{{{{{{{{{{{",
"{{{{{{{{095333333590{{{{{{{{{{{{",
"{{{{{{{{{{{......{{{{{{{{{{{{{{{",
"{{{{{{{{{{{%%%%%%{{{{{{{{{{{{{{{",
"{{{{{{{{{{{==--=={{{{{{{{{{{{{{{",
"{{{{{{{{{{{{;**;{{{{{{{{{{{{{{{{",
"{{{{{{{{{{{{{{{{{{{{{{{{{{{{{{{{"
};
