/* XPM */
static char *result[] = {
/* columns rows colors chars-per-pixel */
"32 32 88 1 ",
"  c #211924",
". c #221A25",
"X c #231B26",
"o c #231B27",
"O c #241C27",
"+ c #241B28",
"@ c #241C28",
"# c #251C28",
"$ c #251C29",
"% c #251D29",
"& c #241D2A",
"* c #251D2A",
"= c #261D2A",
"- c #271F2B",
"; c #271E2C",
": c #281F2C",
"> c #29202E",
", c #2A202F",
"< c #2E2333",
"1 c #2E2433",
"2 c #2F2633",
"3 c #2E2434",
"4 c #2F2434",
"5 c #2E2534",
"6 c #2F2534",
"7 c #2F2535",
"8 c #2F2636",
"9 c #322738",
"0 c #34283A",
"q c #34293B",
"w c #35293B",
"e c #35293C",
"r c #352A3C",
"t c #362A3D",
"y c #372B3E",
"u c #382C3E",
"i c #392D3F",
"p c #3B2E43",
"a c #3C2F45",
"s c #3C3046",
"d c #3D3046",
"f c #3C3146",
"g c #3D3147",
"h c #3F3445",
"j c #423747",
"k c #413548",
"l c #433848",
"z c #473C4E",
"x c #4C4051",
"c c #4F4156",
"v c #53455B",
"b c #53465A",
"n c #54465C",
"m c #5E4F66",
"M c #625568",
"N c #685D6E",
"B c #6E5F75",
"V c #736977",
"C c #796A81",
"Z c #827887",
"A c #85738E",
"S c #85748D",
"D c #877590",
"F c #8A7992",
"G c #8B7994",
"H c #8F7C99",
"J c #89808E",
"K c #958D98",
"L c #968C9A",
"P c #9784A0",
"I c #9987A3",
"U c #9F96A4",
"Y c #A28EAB",
"T c #AA96B4",
"R c #AA97B4",
"E c #AC98B5",
"W c #AC98B6",
"Q c #AC99B6",
"! c #AD99B6",
"~ c #AC98B7",
"^ c #AD98B7",
"/ c #AC99B7",
"( c #AFA7B1",
") c #B5ADB9",
"_ c #BCB4BE",
"` c #D6CFD9",
"' c #E7E0E9",
"] c None",
/* pixels */
"]]]]]]]]]]]]]]]]]]]]]]]]]]]]]]]]",
"]]]]]]]]]]]]]]]]]]]]]]]]]]]]]]]]",
"]]]]]]]]]]]]]]]]]]]]]]]]]]]]]]]]",
"]]]]]]]]]]]]]]]]]]]]]]]]]]]]]]]]",
"]]]]]]]]]]]yyyyyy]]]]]]]]]]]]]]]",
"]]]]]]]]]]yyyyyyyy]]]]]]]]]]]]]]",
"]]]]]]]]]]yyyyyyyy]]]]]]]]]]]]]]",
"]]]]]]]]WDyyyNULkZ]]]]]]]]]]]]]]",
"]]]]]]]QWDyyyJ'`z)]]]]]]]]]]]]]]",
"]]]]]]W]]]999V_(hK]]]]]]]]]]]]]]",
"]]]]]W]]]]        ]]]]]]]]]]]]]]",
"]]]]]W]]]]        ]]]]]]]]]]]]]]",
"]]]]]W]]]w777777779]]]]]]]]]]]]]",
"]]]]]W]]sppppppppppa]]]]]]]]]]]]",
"]]]]]W]gddddddddddddf]]]]]]]]]]]",
"]]]]]W]uyyyyyyyyyyyyy]]]]]]]]]]]",
"]]]]]W]uyyyyyyyyyyyyy]]]]]]]]]]]",
"]]]]]]EmyyyyyycGGGGGHR^^^^^^^]]]",
"]]]]]]]vyyyyynAWWWSMBTWWWWWWW/]]",
"]]]]]]]uyyyy9bFWWFx 2CYWWWWW!]]]",
"]]]]]]]uyyyq; jPIl    F~~~^]]]]]",
"]]]]]]]uyyt$  .-i:    ]]]]]]]]]]",
"]]]]]]]uyyt@   Xe0>  ]]]]]]]]]]]",
"]]]]]]]uyyy7% #4ty911]]]]]]]]]]]",
"]]]]]]]uyyyy3,<yyyyyy]]]]]]]]]]]",
"]]]]]]]]trrrrrrrrrrty]]]]]]]]]]]",
"]]]]]]]]]77566666778]]]]]]]]]]]]",
"]]]]]]]]]]]Oooooo]]]]]]]]]]]]]]]",
"]]]]]]]]]]]+@@@@@]]]]]]]]]]]]]]]",
"]]]]]]]]]]]]****&]]]]]]]]]]]]]]]",
"]]]]]]]]]]]]]==%]]]]]]]]]]]]]]]]",
"]]]]]]]]]]]]]]]]]]]]]]]]]]]]]]]]"
};
