/* XPM */
static char *result[] = {
/* columns rows colors chars-per-pixel */
"32 32 173 2 ",
"   c #101010",
".  c #191C2E",
"X  c #680034",
"o  c #76263A",
"O  c #060653",
"+  c #03036B",
"@  c #07086F",
"#  c #110864",
"$  c #620641",
"%  c #46367A",
"&  c #70507B",
"*  c #B00000",
"=  c #B60A00",
"-  c #B90F00",
";  c #BF1B00",
":  c #A10F1B",
">  c #BD2301",
",  c #912232",
"<  c #C11D00",
"1  c #C42200",
"2  c #C42300",
"3  c #C52400",
"4  c #CB2D00",
"5  c #CB2E00",
"6  c #CC3000",
"7  c #D23A00",
"8  c #D03B0E",
"9  c #A64F29",
"0  c #B0503F",
"q  c #D94600",
"w  c #D04907",
"e  c #DC4C00",
"r  c #DD4F00",
"t  c #D75601",
"y  c #DF5A04",
"u  c #DA5F0E",
"i  c #CE581C",
"p  c #E14F00",
"a  c #E05000",
"s  c #E15300",
"d  c #E25400",
"f  c #E35700",
"g  c #E15605",
"h  c #E55A00",
"j  c #E65E00",
"k  c #E75E00",
"l  c #E05A0A",
"z  c #E35F0F",
"x  c #CD671F",
"c  c #DF701B",
"v  c #E76000",
"b  c #E86000",
"n  c #E86100",
"m  c #E96200",
"M  c #EA6400",
"N  c #EB6600",
"B  c #EB6700",
"V  c #E86900",
"C  c #EC6900",
"Z  c #ED6A00",
"A  c #ED6B01",
"S  c #EF6D00",
"D  c #EE6C01",
"F  c #EF6E00",
"G  c #EF6F00",
"H  c #F07000",
"J  c #F17000",
"K  c #E56919",
"L  c #E66C1C",
"P  c #ED7311",
"I  c #EE7B19",
"U  c #F07B13",
"Y  c #D55C2D",
"T  c #DA6D37",
"R  c #DD7A37",
"E  c #E46C21",
"W  c #E77323",
"Q  c #E57125",
"!  c #E87626",
"~  c #EA7923",
"^  c #E87C2D",
"/  c #852957",
"(  c #995650",
")  c #BB5D45",
"_  c #8B5668",
"`  c #98627E",
"'  c #CC5664",
"]  c #6DE240",
"[  c #EE851E",
"{  c #F08116",
"}  c #EA802D",
"|  c #F08522",
" . c #F08523",
".. c #F08726",
"X. c #F08A2B",
"o. c #F08B2D",
"O. c #EB8737",
"+. c #EC8B31",
"@. c #F08D31",
"#. c #EE943F",
"$. c #F09137",
"%. c #EE9847",
"&. c #E8964B",
"*. c #EF9B4B",
"=. c #F09842",
"-. c #F09944",
";. c #F09945",
":. c #F09A46",
">. c #F09C4B",
",. c #F0A050",
"<. c #F0AE57",
"1. c #F0B157",
"2. c #F0B65B",
"3. c #CE957B",
"4. c #E9B966",
"5. c #91E240",
"6. c #F0C040",
"7. c #F0C060",
"8. c navy",
"9. c #040583",
"0. c #060786",
"q. c #0C0F89",
"w. c #1F268D",
"e. c #1B2294",
"r. c #1C2395",
"t. c #27309E",
"y. c #2228A2",
"u. c #323BB2",
"i. c #384594",
"p. c #3542A8",
"a. c #3745A9",
"s. c #3D4CA8",
"d. c #3C4BAD",
"f. c #3D4DAE",
"g. c #794D9A",
"h. c #484DA8",
"j. c #4050B0",
"k. c #4151B1",
"l. c #4454B6",
"z. c #4656B8",
"x. c #4656B9",
"c. c #4A5ABF",
"v. c #6E55AB",
"b. c #604DBA",
"n. c #7970B9",
"m. c #4A56C3",
"M. c #4B5BC0",
"N. c #4E5EC5",
"B. c #4F5FC8",
"V. c #5363CE",
"C. c #5666D1",
"Z. c #5A6AD7",
"A. c #5C6BDB",
"S. c #5C6CDC",
"D. c #5D6CDD",
"F. c #5E6EDD",
"G. c #6070DF",
"H. c #6070E0",
"J. c #9F7485",
"K. c #876EBB",
"L. c #8D7FB3",
"P. c #9155CA",
"I. c #AD76DB",
"U. c #B17ED6",
"Y. c #B58B89",
"T. c #D592BC",
"R. c #AC85C6",
"E. c #8090F0",
"W. c #C589DC",
"Q. c #D0A0F0",
"!. c #F0CAC6",
"~. c #C5EDF0",
"^. c None",
/* pixels */
"^.^.^.^.^.^.^.^.^.^.^.^.^.^.^.^.^.^.^.^.^.^.^.^.^.^.^.^.^.^.^.^.",
"^.^.^.^.^.^.^.^.^.^.^.^.^.^.^.^.^.^.^.^.^.^.^.^.^.^.^.^.^.^.^.^.",
"^.^.^.^.^.^.^.^.^.^.^.^.^.^.^.^.^.^.^.^.^.^.^.^.^.^.^.^.^.^.^.^.",
"^.^.^.^.^.^.^.^.^.^.^.^.^.^.^.^.^.^.^.^.^.^.^.^.^.^.^.^.^.^.^.^.",
"^.^.^.^.^.^.^.^.^.^.^.^.^.^.^.^.^.^.^.^.^.^.^.^.^.^.^.^.^.^.^.^.",
"^.^.^.^.^.^.^.^.^.^.^.^.^.^.^.^.h ^.^.^.^.^.^.^.^.^.^.^.^.^.^.^.",
"^.^.^.^.^.^.^.^.^.^.^.^.^.^.^.^.a ^.^.} ^.^.^.^.^.^.^.^.^.^.^.^.",
"^.^.^.^.^.^.^.^.^.^.6.i ~.^.^.H.c { >.o.^.^.^.H H G < ^.^.^.^.^.",
"^.^.^.^.^.H F ^.^.!.O.,.,.8 ' D %.=.g ..^.7.M H d F 2 ^.^.^.^.^.",
"^.^.^.^.^.^.  H =.s ,.] 5.W : n.T.R.W.U.7.7.^.F Z H 2 ^.^.^.^.^.",
"^.^.^.^.^.^.k   > [ P ,.O.,.N.) Q.I.P.3.7.7.^.r H H ^.^.^.^.^.^.",
"^.^.^.^.^.^.^.y N.Q ,.,.,. .<.S.t.b.% o.7.& 5 k 3 m h ^.^.^.^.^.",
"^.^.^.^.^.^.p o.,.,.~ q ,.m 4 Y 1.7.2.+.m.H H H H H H ^.^.^.^.^.",
"^.^.^.^.^.^.^.9 T ,.,.,.,.K.E.E.E.4.f 7.E., j.j.j.w h ^.^.^.^.^.",
"^.^.^.^.^.^.^.z.H.H./ ,.,.^ Z.x.H.-.,.J.r.j.j.j.j.. * ^.^.^.^.^.",
"^.^.^.^.^.^.^.0.H.H.M.X *.H.H.H.H.,.,.A.^.^.^.8.d.^.^.^.^.^.^.^.",
"^.^.^.^.^.^.^.^.^.9.H.H.H.y.Z.H.l.A L E ^.^.^.^.^.^.^.^.^.^.^.^.",
"^.^.^.^.^.^.^.^.^.j ,.,.R H.D.H.#.z :.( ^.^.^.^.^.^.^.^.^.^.^.^.",
"^.^.^.^.^.^.^.^.V.c.v.L.@.,.,.,.C o.g.;.K J ^.^.^.^.^.^.^.^.^.^.",
"^.^.^.^.^.^.^.^. ._ ` 0 ,.H u Y.! o a.j.j.j.^.^.^.^.^.^.^.^.^.^.",
"^.^.^.^.^.^.^.&.H.H.H.H.H.u.H H H w.j.r.j.j.j.e.^.^.^.^.^.^.^.^.",
"^.^.^.^.^.^.,.0.H.C.H.H.H.H.H N s.j.j.j.j.j.j.f.^.^.^.^.^.^.^.^.",
"^.^.^.^.^.I x H.H.H.H.N.H.O + p.j.j.j.j.j.j.q.j.@ ^.^.^.^.^.^.^.",
"^.^.^.^.^.,.,.F.H.G.k.H.B.1 a a = # 8.j.j.j.i.j.^.^.^.^.^.^.^.^.",
"^.^.^.^.^.^.,.,.h.H.H.$ ,.v H a a a B H V 9.t ^.^.^.^.^.^.^.^.^.",
"^.^.^.^.^.^.G U ,.,. .X.6 H H H H ^.^.7 S - ^.^.^.^.^.^.^.^.^.^.",
"^.^.^.^.^.^.l ,.,.h ^.^.^.^.n H H H H e ^.^.^.^.^.^.^.^.^.^.^.^.",
"^.^.^.^.^.^.,.,.,.o.^.^.^.^.^.^.a m k b ; ^.^.^.^.^.^.^.^.^.^.^.",
"^.^.^.^.^.2 ,.,.,.,.,.^.^.^.^.^.^.^.^.^.^.^.^.^.^.^.^.^.^.^.^.^.",
"^.^.^.^.^.^.$.,.,.,.| ^.^.^.^.^.^.^.^.^.^.^.^.^.^.^.^.^.^.^.^.^.",
"^.^.^.^.^.^.^.^.^.^.^.^.^.^.^.^.^.^.^.^.^.^.^.^.^.^.^.^.^.^.^.^.",
"^.^.^.^.^.^.^.^.^.^.^.^.^.^.^.^.^.^.^.^.^.^.^.^.^.^.^.^.^.^.^.^."
};
