/* XPM */
static char *result[] = {
/* columns rows colors chars-per-pixel */
"32 32 163 2 ",
"   c #0F0F17",
".  c #101010",
"X  c #0D0D2D",
"o  c #0C0C37",
"O  c #6E2F67",
"+  c #745C71",
"@  c #9A1503",
"#  c #B10200",
"$  c #B30500",
"%  c #BA0F00",
"&  c #A01F03",
"*  c #BF1A00",
"=  c #BF230F",
"-  c #C01B00",
";  c #C01C00",
":  c #C82900",
">  c #C92C00",
",  c #CA2D00",
"<  c #CB2E00",
"1  c #CC2F00",
"2  c #C33101",
"3  c #CA3915",
"4  c #A54F2D",
"5  c #D64000",
"6  c #DD4C01",
"7  c #DA4F0C",
"8  c #DF5200",
"9  c #D54C14",
"0  c #D14B1D",
"q  c #E05100",
"w  c #E15500",
"e  c #E35500",
"r  c #E35600",
"t  c #E35700",
"y  c #E15505",
"u  c #E35800",
"i  c #E55900",
"p  c #E55A00",
"a  c #E75E00",
"s  c #E35F0F",
"d  c #DE6510",
"f  c #E96200",
"g  c #EA6400",
"h  c #EA6500",
"j  c #EB6600",
"k  c #EB6700",
"l  c #EC6900",
"z  c #ED6A00",
"x  c #EE6C00",
"c  c #EF6F00",
"v  c #E5630F",
"b  c #E8670B",
"n  c #E7680C",
"m  c #EF7309",
"M  c #ED720F",
"N  c #F07000",
"B  c #F07305",
"V  c #E86D15",
"C  c #E56919",
"Z  c #E7701F",
"A  c #EC781D",
"S  c #F07F19",
"D  c #CE4921",
"F  c #D9622D",
"G  c #DE6A2D",
"H  c #DC6E37",
"J  c #E77424",
"K  c #E87423",
"L  c #E77829",
"P  c #E97D2C",
"I  c #E97D2D",
"U  c #8B2954",
"Y  c #8A2C5B",
"T  c #923962",
"R  c #9E5453",
"E  c #CC7645",
"W  c #E17946",
"Q  c #EE831D",
"!  c #F0801B",
"~  c #F0811E",
"^  c #EE8224",
"/  c #ED862D",
"(  c #F08523",
")  c #F08624",
"_  c #EB8737",
"`  c #EB8939",
"'  c #F08E30",
"]  c #F08E33",
"[  c #F08F33",
"{  c #F09035",
"}  c #F09136",
"|  c #F09137",
" . c #F0993B",
".. c #95B646",
"X. c #BFA176",
"o. c #E39A4D",
"O. c #EF9A4A",
"+. c #EF9B4A",
"@. c #EF9D4D",
"#. c #F09B48",
"$. c #F09C4A",
"%. c #F09D4B",
"&. c #F09E4C",
"*. c #F0A143",
"=. c #EFAC53",
"-. c #F0A050",
";. c #F0A451",
":. c #F0B259",
">. c #F0B45A",
",. c #F0B55B",
"<. c #F0B65B",
"1. c #F0C060",
"2. c #000180",
"3. c #040581",
"4. c #1B1986",
"5. c #14198F",
"6. c #1E1490",
"7. c #141990",
"8. c #161B90",
"9. c #171C91",
"0. c #29339F",
"q. c #3432A0",
"w. c #344088",
"e. c #3342A7",
"r. c #3441A7",
"t. c #3846AA",
"y. c #3D4CAE",
"u. c #4F509F",
"i. c #4850A8",
"p. c #4050B0",
"a. c #4353B5",
"s. c #4352B7",
"d. c #4454B5",
"f. c #4656B9",
"g. c #4757BA",
"h. c #4858BC",
"j. c #4E5EC5",
"k. c #4E5EC6",
"l. c #4E5BCE",
"z. c #505FC9",
"x. c #5565D0",
"c. c #5A6AD7",
"v. c #5B6BDA",
"b. c #5C6CDA",
"n. c #5C6CDB",
"m. c #5E6EDE",
"M. c #6971D4",
"N. c #6070DF",
"B. c #6070E0",
"V. c #9F7485",
"C. c #85679F",
"Z. c #A2788C",
"A. c #A263C9",
"S. c #A161D2",
"D. c #7790F0",
"F. c #A78899",
"G. c #DFF09A",
"H. c #B989DA",
"J. c #BC82E6",
"K. c #C080EF",
"L. c #C898E9",
"P. c #DBBEEE",
"I. c None",
/* pixels */
"I.I.I.I.I.I.I.I.I.I.I.I.I.I.I.I.I.I.I.I.I.I.I.I.I.I.I.I.I.I.I.I.",
"I.I.I.I.I.I.I.I.I.I.I.I.I.I.I.I.I.I.I.I.I.I.I.I.I.I.I.I.I.I.I.I.",
"I.I.I.I.I.I.I.I.I.I.I.I.I.I.I.I.I.I.I.I.I.I.I.I.I.I.I.I.I.I.I.I.",
"I.I.I.I.I.I.I.I.I.I.I.I.I.I.I.I.I.I.I.I.I.I.I.I.I.I.I.I.I.I.I.I.",
"I.I.I.I.I.I.I.I.I.I.I.I.I.I.I.I.I.I.I.I.I.I.I.I.I.I.I.I.I.I.I.I.",
"I.I.I.I.I.I.I.I.I.I.I.I.I.I.I.I.I.I.I.I.I.I.I.I.I.I.I.I.I.I.I.I.",
"I.I.I.I.I.I.I.I.I.I.I.I.I.I.I.I.I.I.I.I.I.I.I.I.I.I.I.I.I.I.I.I.",
"I.I.I.I.I.I.I.I.I.I.I.I.I.I.I.I.I.I.I.I.O.I.I.I.I.I.I.I.I.I.I.I.",
"I.I.I.I.I.I.I.I.I.I.I.I.I.I.I.I.M.~ &.e $.I.I.I.I.I.I.I.I.I.I.I.",
"I.I.I.I.I.I.I.p I.I.I.I.I.I.I.e.B.C.s v = I.;.I.I.I.I.I.I.I.I.I.",
"I.I.I.I.I.I.I.@ < k I.I.I.I.0.B.b E H.J.S.1.1.I.I.I.I.I.I.I.I.I.",
"I.I.I.I.I.I.I.x . . N ' :.1.X.B.B.A L.P.A.1.1.I.I.I.I.I.I.I.I.I.",
"I.I.I.I.I.I.I.I.& . B.c =.} -. .B.j.q.6.+ :.>.I.I.I.I.I.I.I.I.I.",
"I.I.I.I.I.I.I.I.% n.B.B.j.j f W H o.1.Q ,.<.I.I.I.I.I.I.I.I.I.I.",
"I.I.I.I.I.I.I.I.I.v.c.h.B.B.` ^ J d D.1.6 1.I.I.I.I.I.I.I.I.I.I.",
"I.I.I.I.I.I.I.I.m.a.y y B.7.{ @.@.] K.-.-.I.I.I.I.I.I.I.I.I.I.I.",
"I.I.I.I.I.I.I.I.B.m %.-.-.-.-...G.-.*.B -.# I.I.I.I.I.I.I.I.I.I.",
"I.I.I.I.I.I.I.I.B.-.-.-.-.-.-.#.] Z.M n l N I.5 i q I.I.I.I.I.I.",
"I.I.I.I.I.I.I.I.B.-.-.+.V -.I B.B.C D -.N N : j u N I.I.I.I.I.I.",
"I.I.I.I.I.I.I.I.d.i.-.K 0 7 [ ( 9 -.a F z.N a N ; N 1 I.I.I.I.I.",
"I.I.I.I.I.I.I.I.V.-.-.L T R I G ( / O u.-.I I.I.I.I.I.I.I.I.I.I.",
"I.I.I.I.I.I.I.I.k.B.B.B.Y F.-.N N w.p.5.p.p.p.I.I.I.I.I.I.I.I.I.",
"I.I.I.I.I.I.-.B.B.B.B.B.B.U -.N t p.p.p.p.p.p.p.I.I.I.I.I.I.I.I.",
"I.I.I.I.I.I.] x.s.b.B.B.N.4.] p.p.p.p.p.p.p.p.r.o I.I.I.I.I.I.I.",
"I.I.I.I.I.I.Z B.B.y.B.B.g.&.N N $ 2   p.t.3.2.p.8.I.I.I.I.I.I.I.",
"I.I.I.I.I.I.w -.f.B.l.N.4 h g N z 8 , p X p.p.9.I.I.I.I.I.I.I.I.",
"I.I.I.I.I.I.I._ ) -.-.S 3 I.r N N N p - * N I.I.I.I.I.I.I.I.I.I.",
"I.I.I.I.I.I.I.-.-.-.P I.I.I.I.I.I.I.I.I.I.I.I.I.I.I.I.I.I.I.I.I.",
"I.I.I.I.I.I.> -.-.-.-.-.I.I.I.I.I.I.I.I.I.I.I.I.I.I.I.I.I.I.I.I.",
"I.I.I.I.I.I.I.| -.-.-.! I.I.I.I.I.I.I.I.I.I.I.I.I.I.I.I.I.I.I.I.",
"I.I.I.I.I.I.I.I.I.I.I.I.I.I.I.I.I.I.I.I.I.I.I.I.I.I.I.I.I.I.I.I.",
"I.I.I.I.I.I.I.I.I.I.I.I.I.I.I.I.I.I.I.I.I.I.I.I.I.I.I.I.I.I.I.I."
};
