/* XPM */
static char *result[] = {
/* columns rows colors chars-per-pixel */
"32 32 166 2 ",
"   c #101010",
".  c #370D0C",
"X  c #3F0B0B",
"o  c #121321",
"O  c #3F0252",
"+  c #05067C",
"@  c #76517F",
"#  c #830805",
"$  c #B00000",
"%  c #B60A00",
"&  c #B70B00",
"*  c #B70C00",
"=  c #BC1400",
"-  c #BF1B00",
";  c #B7190B",
":  c #AB3D1E",
">  c #A0272B",
",  c #C31F00",
"<  c #C42300",
"1  c #C52300",
"2  c #CB2D00",
"3  c #CB3000",
"4  c #CE3603",
"5  c #D13900",
"6  c #D43F00",
"7  c #D13D07",
"8  c #C73A1D",
"9  c #D84300",
"0  c #D94600",
"q  c #D94800",
"w  c #DB4900",
"e  c #DC4D00",
"r  c #DE4D00",
"t  c #DF4E00",
"y  c #D74A0E",
"u  c #DF5000",
"i  c #DF5200",
"p  c #E05000",
"a  c #E15000",
"s  c #E35600",
"d  c #E45700",
"f  c #E15505",
"g  c #E25800",
"h  c #E45B00",
"j  c #E65C00",
"k  c #E75D00",
"l  c #E75E00",
"z  c #E55D05",
"x  c #E35E0D",
"c  c #E25F0E",
"v  c #E35F0F",
"b  c #E86103",
"n  c #EB6600",
"m  c #EB6700",
"M  c #E86205",
"N  c #E86406",
"B  c #E26907",
"V  c #EE6B00",
"C  c #EE6C00",
"Z  c #EE6D00",
"A  c #EF6D00",
"S  c #EF6E00",
"D  c #EB6B06",
"F  c #E7670F",
"G  c #E96A0F",
"H  c #EA6E0F",
"J  c #F06F00",
"K  c #F07000",
"L  c #F17000",
"P  c #F07203",
"I  c #E66814",
"U  c #E56919",
"Y  c #EB7011",
"T  c #ED7711",
"R  c #E9751C",
"E  c #CC4623",
"W  c #D46E2A",
"Q  c #DC6E37",
"!  c #E77323",
"~  c #E2722D",
"^  c #E87828",
"/  c #E97D2D",
"(  c #E97E2D",
")  c #E37937",
"_  c #9C4D4F",
"`  c #B15A4E",
"'  c #BE6646",
"]  c #C06946",
"[  c #C37249",
"{  c #C57B7B",
"}  c #EC822A",
"|  c #EC832D",
" . c #ED882C",
".. c #F08C2D",
"X. c #ED8B37",
"o. c #E3803F",
"O. c #EC8E3E",
"+. c #F08F34",
"@. c #F09137",
"#. c #F0973A",
"$. c #EB8F40",
"%. c #E7964B",
"&. c #EC964B",
"*. c #EF9B4B",
"=. c #EF9C4B",
"-. c #F09741",
";. c #F09840",
":. c #F09D4B",
">. c #F09E4E",
",. c #F09F4E",
"<. c #E8A24F",
"1. c #F0A449",
"2. c #F0A050",
"3. c #F0A852",
"4. c #F0AE57",
"5. c #F0B453",
"6. c #F0B55A",
"7. c #F0B95D",
"8. c #F0BE5D",
"9. c #95F043",
"0. c #EFDC5D",
"q. c #F0C060",
"w. c navy",
"e. c #161B90",
"r. c #171C92",
"t. c #262F9C",
"y. c #29349F",
"u. c #374492",
"i. c #3B499F",
"p. c #3441A7",
"a. c #3D4CA7",
"s. c #3C4BAD",
"d. c #3F4EAF",
"f. c #675085",
"g. c #794D99",
"h. c #474BA5",
"j. c #4050B0",
"k. c #4656B9",
"l. c #4858BC",
"z. c #4959BE",
"x. c #624DA7",
"c. c #6B4BBA",
"v. c #424DC2",
"b. c #4D5BCA",
"n. c #5161CA",
"m. c #5262CB",
"M. c #5A6AD7",
"N. c #5B6BDB",
"B. c #5D6DDB",
"V. c #5D6DDC",
"C. c #5E6EDD",
"Z. c #5E6EDE",
"A. c #686ED2",
"S. c #6070DF",
"D. c #6070E0",
"F. c #6777E3",
"G. c #985DCE",
"H. c #995ECF",
"J. c #9464D0",
"K. c #7181E8",
"L. c #B08B90",
"P. c #9F85A1",
"I. c #AC85C6",
"U. c #8090F0",
"Y. c #C592EA",
"T. c None",
/* pixels */
"T.T.T.T.T.T.T.T.T.T.T.T.T.T.T.T.T.T.T.T.T.T.T.T.T.T.T.T.T.T.T.T.",
"T.T.T.T.T.T.T.T.T.T.T.T.T.T.T.T.T.T.T.T.T.T.T.T.T.T.T.T.T.T.T.T.",
"T.T.T.T.T.T.T.T.T.T.T.T.T.T.T.T.T.T.T.T.T.T.T.T.T.T.T.T.T.T.T.T.",
"T.T.T.T.T.T.T.T.T.T.T.T.T.T.T.T.T.T.T.T.T.T.T.T.T.T.T.T.T.T.T.T.",
"T.T.T.T.T.T.T.T.T.T.T.T.T.T.T.T.T.T.T.T.T.T.T.T.T.T.T.T.T.T.T.T.",
"T.T.T.T.T.T.T.T.T.T.T.T.T.T.T.T.T.T.T.T.T.T.T.T.T.T.T.T.T.T.T.T.",
"T.T.T.T.T.T.T.T.T.T.T.T.T.T.T.T.T.-.T.T.a T.T.T.T.T.T.T.T.T.T.T.",
"T.T.T.T.T.T.T.T.T.T.T.T.T.T.T.T.D.T >.N L T.T.T.T.T.T.T.T.T.T.T.",
"T.T.T.T.T.T.S p T.T.T.T.T.T.T.D.D.$.D M b T.T.:.T.T.T.T.T.T.T.T.",
"T.T.T.T.T.T.h . d T.T.T.T.T.T.A.O.3.I.Y.T.5.q.q.T.T.T.T.T.T.T.T.",
"T.T.T.T.T.T.T.  X I 7...1.q.B D.D.F H.G.{ q.q.q.T.T.T.T.T.T.T.T.",
"T.T.T.T.T.T.T.J     n q.4.q.6.8.D.y.J.c.q.q.q.k T.T.T.T.T.T.T.T.",
"T.T.T.T.T.T.T.T.Z B.D.g.n 4.q.q.q.q.4.| #.q.^ T.T.T.T.T.T.T.T.T.",
"T.T.T.T.T.T.T.T.T.D.D.D.D.F.U.U.U.U.K. .%.U.  T.T.T.T.T.T.T.T.T.",
"T.T.T.T.T.T.T.T.Z.r.k.D.D.D.D.D.D.M.l.H +.L.T.T.T.T.T.T.T.T.T.T.",
"T.T.T.T.T.T.T.T.D.D.2.f D.D.D.S.D.D.z.2.2.h.T.T.T.T.T.T.T.T.T.T.",
"T.T.T.T.T.T.T.T.C.2.2.,.} D.; C *.&.` =.4 J = T.T.T.T.T.T.T.T.T.",
"T.T.T.T.T.T.T.T.D.2.z G 2.2.2.v 2.0.w -.A C m T.T.T.T.T.T.T.T.T.",
"T.T.T.T.T.T.T.T.D.2.Y c 2.2.v 9.<.F @ ) b.K u m m $ T.T.T.T.T.T.",
"T.T.T.T.T.T.T.T.w.2.2.! 2.E 7 ! ! ;._ f.2.2.1 6 2 1 j T.T.T.T.T.",
"T.T.T.T.T.T.T.T.3 P.~ > D.D.2.K K K j.p.j.j.i.S t s C T.T.T.T.T.",
"T.T.T.T.T.T.T.T.N.D.v.' X.2.2.K K a.j.j.j.j.j.# q e $ T.T.T.T.T.",
"T.T.T.T.T.T.2.: D.D.D.D.n.D.x.u.j.j.j.j.j.j.j.j.T.T.T.T.T.T.T.T.",
"T.T.T.T.T.T.o.C.D.Z.D.D.D.O K S p - d.j.j.j.j.j.+ T.T.T.T.T.T.T.",
"T.T.T.T.T.U W D.D.D.D.m.D.Q K K r 9 K t.j.j.s.j.o T.T.T.T.T.T.T.",
"T.T.T.T.T.T.2.D.D.M.M.V.R % V K K 0 l K j.j.e.j.T.T.T.T.T.T.T.T.",
"T.T.T.T.T.T.T.2.[ D.] 2.y T.i K K K g & < T.T.T.T.T.T.T.T.T.T.T.",
"T.T.T.T.T.T.* P ( / 5 T.T.T.T.T.T.T.T.T.T.T.T.T.T.T.T.T.T.T.T.T.",
"T.T.T.T.T.T.2.2.2.2.2., T.T.T.T.T.T.T.T.T.T.T.T.T.T.T.T.T.T.T.T.",
"T.T.T.T.T.T.x @.2.2.@.8 T.T.T.T.T.T.T.T.T.T.T.T.T.T.T.T.T.T.T.T.",
"T.T.T.T.T.T.T.T.T.T.T.T.T.T.T.T.T.T.T.T.T.T.T.T.T.T.T.T.T.T.T.T.",
"T.T.T.T.T.T.T.T.T.T.T.T.T.T.T.T.T.T.T.T.T.T.T.T.T.T.T.T.T.T.T.T."
};
