/* XPM */
static char *result[] = {
/* columns rows colors chars-per-pixel */
"32 32 187 2 ",
"   c #1E160F",
".  c #101010",
"X  c #111118",
"o  c #0C0C29",
"O  c #490A0A",
"+  c #6C0A07",
"@  c #7D2D07",
"#  c #090A62",
"$  c #020272",
"%  c #0E057B",
"&  c #160070",
"*  c #481C58",
"=  c #612750",
"-  c #B10000",
";  c #B10100",
":  c #B40700",
">  c #B40A05",
",  c #BA1200",
"<  c #BC1500",
"1  c #BE1800",
"2  c #BF1B00",
"3  c #AA201B",
"4  c #C32200",
"5  c #C62500",
"6  c #C62600",
"7  c #C72700",
"8  c #CA2B00",
"9  c #CB2D00",
"0  c #CC3202",
"q  c #CE3500",
"w  c #D13700",
"e  c #CA3C19",
"r  c #D84200",
"t  c #DD4B00",
"y  c #DE4C00",
"u  c #DD4F02",
"i  c #DF5000",
"p  c #DC510C",
"a  c #DC530F",
"s  c #D44717",
"d  c #E05000",
"f  c #E25300",
"g  c #E25400",
"h  c #E35600",
"j  c #E15505",
"k  c #E55A00",
"l  c #E55B00",
"z  c #E55C00",
"x  c #E75E00",
"c  c #E35905",
"v  c #E85F00",
"b  c #E35F0F",
"n  c #E86000",
"m  c #E96100",
"M  c #E96200",
"N  c #E96300",
"B  c #E86103",
"V  c #EA6400",
"C  c #EA6500",
"Z  c #EB6500",
"A  c #EC6700",
"S  c #E96705",
"D  c #EB6800",
"F  c #ED6900",
"G  c #ED6A00",
"H  c #ED6B00",
"J  c #EE6D00",
"K  c #EF6E00",
"L  c #EE6D03",
"P  c #E5610C",
"I  c #E6650C",
"U  c #E5640F",
"Y  c #ED720E",
"T  c #F07000",
"R  c #F07305",
"E  c #F17405",
"W  c #F17606",
"Q  c #F0790F",
"!  c #E46212",
"~  c #E36512",
"^  c #E66A19",
"/  c #E77717",
"(  c #EB7519",
")  c #F07F12",
"_  c #F07F19",
"`  c #E77323",
"'  c #E87423",
"]  c #E97D21",
"[  c #E97B2B",
"{  c #E2763D",
"}  c #942850",
"|  c #98627E",
" . c #F08114",
".. c #F0851E",
"X. c #EE8223",
"o. c #F0892A",
"O. c #F08B2D",
"+. c #F08C2F",
"@. c #EB8535",
"#. c #EB8737",
"$. c #EC8E3E",
"%. c #ED8F3F",
"&. c #F09035",
"*. c #F09238",
"=. c #F09239",
"-. c #F09A3F",
";. c #A7B147",
":. c #B1807B",
">. c #EC9346",
",. c #EC964B",
"<. c #EC974B",
"1. c #EF9B4B",
"2. c #EF9E4D",
"3. c #F09741",
"4. c #F09A46",
"5. c #F09E4D",
"6. c #F09E4E",
"7. c #F09F4F",
"8. c #E79D59",
"9. c #F0A743",
"0. c #F0A050",
"q. c #F0A150",
"w. c #F0A251",
"e. c #F0A653",
"r. c #F0AD57",
"t. c #F0B159",
"y. c #F0BB5A",
"u. c #F0BE5E",
"i. c #F0BF5F",
"p. c #C38B73",
"a. c #C3917D",
"s. c #E7BB68",
"d. c #F0BF60",
"f. c #9FC047",
"g. c #F0C060",
"h. c #0C0F89",
"j. c #1C2395",
"k. c #242D9B",
"l. c #242E9B",
"z. c #242D9C",
"x. c #2E3996",
"c. c #2B359C",
"v. c #2228A2",
"b. c #2D38A2",
"n. c #2F3BA5",
"m. c #2A31AA",
"M. c #303CA4",
"N. c #523E8D",
"B. c #3B4AA0",
"V. c #3745A9",
"C. c #3B49AC",
"Z. c #3C4BAD",
"A. c #42419C",
"S. c #4050B0",
"D. c #4252B3",
"F. c #4A5ABF",
"G. c #786AB6",
"H. c #796CB6",
"J. c #7B70B6",
"K. c #404AC0",
"L. c #424DC2",
"P. c #444FC4",
"I. c #4958C2",
"U. c #4B58C9",
"Y. c #4E5BCE",
"T. c #5161C9",
"R. c #5161CA",
"E. c #5262CB",
"W. c #5260D1",
"Q. c #5666D2",
"!. c #5867D5",
"~. c #5A69DA",
"^. c #5D6DDB",
"/. c #5E6EDD",
"(. c #5F6FDE",
"). c #5F6FDF",
"_. c #6B61C1",
"`. c #6070E0",
"'. c #84619A",
"]. c #AA6BDC",
"[. c #B477E1",
"{. c #B87DE4",
"}. c #CB75DA",
"|. c #509FE6",
" X c #7A8AED",
".X c #D0A0F0",
"XX c None",
/* pixels */
"XXXXXXXXXXXXXXXXXXXXXXXXXXXXXXXXXXXXXXXXXXXXXXXXXXXXXXXXXXXXXXXX",
"XXXXXXXXXXXXXXXXXXXXXXXXXXXXXXXXXXXXXXXXXXXXXXXXXXXXXXXXXXXXXXXX",
"XXXXXXXXXXXXXXXXXXXXXXXXXXXXXXXXW XXXXXXXXXXXXXXXXXXXXXXXXXXXXXX",
"XXXXXXXXXXXXXXXXXXXXXXXXXXXXXXE r.XXXXXXXXXXXXXXXXXXXXXXXXXXXXXX",
"XXXXXXXXXXXXXXXXXXXXXXXXXXXX`.`.1.f *.XXXXXXXXXXXXXXXXXXXXXXXXXX",
"XXXXXXk XXXXXXXXXXXXXXXXXXXXH.] u . s XXXXXXXXg.g.XXXXXXXXXXXXXX",
"XXXXXXm O h  .XXXXXXXXXXe./.!.`.j .X.XXX..g.g.g.g.XXXXXXXXXXXXXX",
"XXXXXX- + . G y.g.w.g.g.g.9.`.% ].[.{.d.g.g.g.g.> XXXXXXXXXXXXXX",
"XXXXXXXXq . . & R g.i.w.g.g.g.s./.S.u.0.q.g.g.j XXXXXXXXXXXXXXXX",
"XXXXXXXXXX5 . D.`.3 G ~ Q ) a < < p -.t.:. Xc.XXXXXXXXXXXXXXXXXX",
"XXXXXXXXXXXX`.P.v.`.`.Q.`.`.`.`.`.F._ 0.( `.$ XXXXXXXXXXXXXXXXXX",
"XXXXXXXXXXXXR.(.`.`.`.m.`.`.`.`.`.I.a.0.0.`.S.XXXXXXXXXXXXXXXXXX",
"XXXXXXXXXXXXY.' +.h Q.`.`.`.^.`.`.^.0.0.0.U.T M XXXXXXXXXXXXXXXX",
"XXXXXXXXXXXX0.6.^ 9 #._.`.`.`.`.`.`.%.0.0.* k T Z XXXXXXXXXXXXXX",
"XXXXXXXXXXe 0.0.b 0.4.[ N c L J.J.G.C 3.b 0.T T T XXXXXXXXXXXXXX",
"XXXXXXXXXXXX0.,.0.0.0.0.S @.7.0.0.0.5.1.B } T T D 1 H v XXXXXXXX",
"XXXXXXXXXXXX$.>.0.0.@.;.2.|.! `.8.8.8.0.0.=.7.T T ; w T z XXXXXX",
"XXXXXXXXXXXXXXXXXXXX: f.0.}.I `.0.h T T S.S.U y T 4 i l 8 XXXXXX",
"XXXXXXXXXXXXXXXXXXXXXX'.0.{ p.`.0.G J V S.l.S.Z.XX6 F , XXXXXXXX",
"XXXXXXXXXXXXXXXXXXXXz.`.`.`.| 0 ` C.b.S.M.S.S.S.XXXXXXXXXXXXXXXX",
"XXXXXXXXXXXXXXXXXXX.L.`.`.`.`.`.= @ S.S.S.S.S.S.X XXXXXXXXXXXXXX",
"XXXXXXXXXXXXXXXX5.W.T.`.`.`.`.).T V B.V.S.x.k.S.# XXXXXXXXXXXXXX",
"XXXXXXXXXXXXXXXX0.`.`.E.`.`.`.Y T T T A.h.j.S.o XXXXXXXXXXXXXXXX",
"XXXXXXXXXXXXXXXX0.N.`.`.`.K.`.0.d N T T K   2 XXXXXXXXXXXXXXXXXX",
"XXXXXXXXXXXXXXXX<.0.n.(.~.`./ 1.t d d t T T A XXXXXXXXXXXXXXXXXX",
"XXXXXXXXXXXXXXXXJ P 0.0.0.0.3.G y T T T XXXXXXXXXXXXXXXXXXXXXXXX",
"XXXXXXXXXXXXXXXXZ 0.0.k - XXXXk T g T T T T r XXXXXXXXXXXXXXXXXX",
"XXXXXXXXXXXXXXXX0.0.0.O.- XXXXXXXXXXXXn x x 7 XXXXXXXXXXXXXXXXXX",
"XXXXXXXXXXXXXX: 0.0.0.0.0.XXXXXXXXXXXXXXXXXXXXXXXXXXXXXXXXXXXXXX",
"XXXXXXXXXXXXXXXX&.0.0.0.o.XXXXXXXXXXXXXXXXXXXXXXXXXXXXXXXXXXXXXX",
"XXXXXXXXXXXXXXXXXXXXXXXXXXXXXXXXXXXXXXXXXXXXXXXXXXXXXXXXXXXXXXXX",
"XXXXXXXXXXXXXXXXXXXXXXXXXXXXXXXXXXXXXXXXXXXXXXXXXXXXXXXXXXXXXXXX"
};
