/* XPM */
static char *result[] = {
/* columns rows colors chars-per-pixel */
"32 32 213 2 ",
"   c #19130F",
".  c #101010",
"X  c #0C0C26",
"o  c #0C0C2E",
"O  c #0D0D30",
"+  c #0D0D39",
"@  c #1A1D30",
"#  c #1F2343",
"$  c #0B0D66",
"%  c #150D79",
"&  c #2E1E75",
"*  c #5F2466",
"=  c #703569",
"-  c #8E0303",
";  c #890A12",
":  c #AF0000",
">  c #B00000",
",  c #B10100",
"<  c #B30400",
"1  c #B30600",
"2  c #B40700",
"3  c #B70B00",
"4  c #AF130D",
"5  c #BA1100",
"6  c #BA1101",
"7  c #BC1300",
"8  c #BE1700",
"9  c #893B07",
"0  c #C21E00",
"q  c #C31F00",
"w  c #C22000",
"e  c #C72700",
"r  c #C72507",
"t  c #C82700",
"y  c #C82800",
"u  c #CB2D00",
"i  c #CC2E00",
"p  c #CD3300",
"a  c #CF3702",
"s  c #D03600",
"d  c #D33D00",
"f  c #C42E12",
"g  c #B4420D",
"h  c #BF4B2D",
"j  c #DB4B00",
"k  c #DD4B00",
"l  c #DE4D00",
"z  c #DF5200",
"x  c #DB500B",
"c  c #D74E11",
"v  c #E05000",
"b  c #E15000",
"n  c #E05101",
"m  c #E15200",
"M  c #E05300",
"N  c #E35600",
"B  c #E15504",
"V  c #E55900",
"C  c #E55A00",
"Z  c #E45B00",
"A  c #E55C00",
"S  c #E65E00",
"D  c #E75E00",
"F  c #E85F00",
"G  c #E76105",
"H  c #E86000",
"J  c #E96200",
"K  c #EA6400",
"L  c #EA6500",
"P  c #EB6600",
"I  c #EC6700",
"U  c #EA6605",
"Y  c #EC6900",
"T  c #ED6900",
"R  c #ED6A00",
"E  c #ED6B00",
"W  c #EF6E00",
"Q  c #EF6F00",
"!  c #EA6908",
"~  c #E8680D",
"^  c #E9690E",
"/  c #F06F00",
"(  c #EF7000",
")  c #EB700F",
"_  c #EC710E",
"`  c #EF770C",
"'  c #F07000",
"]  c #F07305",
"[  c #F07506",
"{  c #F0780D",
"}  c #E56B1A",
"|  c #E66D1D",
" . c #EC7212",
".. c #EB7417",
"X. c #E0751D",
"o. c #F07B12",
"O. c #D35223",
"+. c #D96633",
"@. c #E77424",
"#. c #E87824",
"$. c #E97C2C",
"%. c #E97F2F",
"&. c #843D7A",
"*. c #AA6854",
"=. c #8F5F68",
"-. c #9A617A",
";. c #DE5241",
":. c #C47A55",
">. c #7AE740",
",. c #E7801F",
"<. c #ED8226",
"1. c #F08320",
"2. c #F08A23",
"3. c #F08829",
"4. c #F08B2C",
"5. c #EE8C33",
"6. c #EC8A38",
"7. c #F08F33",
"8. c #EF9C37",
"9. c #EF9138",
"0. c #F09035",
"q. c #F09036",
"w. c #F09238",
"e. c #F0953D",
"r. c #F0953E",
"t. c #F09E38",
"y. c #EEA639",
"u. c #F0A33D",
"i. c #F0894B",
"p. c #ED9040",
"a. c #EF9642",
"s. c #EE9747",
"d. c #EF9A4A",
"f. c #F09640",
"g. c #F09C4A",
"h. c #F09E4C",
"j. c #F09E4E",
"k. c #EDA94C",
"l. c #EDAA4C",
"z. c #F0B04C",
"x. c #F0A050",
"c. c #F0A954",
"v. c #F0AA55",
"b. c #F0B158",
"n. c #F0B65B",
"m. c #F0B75C",
"M. c #F0B95D",
"N. c #F0BC5E",
"B. c #CC9063",
"V. c #90D044",
"C. c #F0C060",
"Z. c #0C0F89",
"A. c #10148C",
"S. c #151A90",
"D. c #181E92",
"F. c #181C98",
"G. c #1C2295",
"H. c #202898",
"J. c #22289C",
"K. c #2C379E",
"L. c #2C37A1",
"P. c #323EA6",
"I. c #374492",
"U. c #364396",
"Y. c #3B499E",
"T. c #3948A8",
"R. c #3C4BAD",
"E. c #3F4FAF",
"W. c #3841B7",
"Q. c #3F4FB0",
"!. c #4050B0",
"~. c #4050B1",
"^. c #4151B1",
"/. c #4252B3",
"(. c #4656BA",
"). c #6540B7",
"_. c #7163AC",
"`. c #746BB3",
"'. c #7A6EB6",
"]. c #4753C6",
"[. c #4A5AC0",
"{. c #4E5EC5",
"}. c #4E5BCE",
"|. c #505DC2",
" X c #5262CA",
".X c #5464CE",
"XX c #5767D3",
"oX c #5A6AD6",
"OX c #5A6AD7",
"+X c #5A6AD8",
"@X c #5C6CDA",
"#X c #5C6BDC",
"$X c #5F6FDE",
"%X c #6B60C0",
"&X c #6E6DC8",
"*X c #686ED2",
"=X c #6370DB",
"-X c #6270DC",
";X c #6070E0",
":X c #6979E4",
">X c #855895",
",X c #986582",
"<X c #9B5CD1",
"1X c #9D5FD2",
"2X c #A364D7",
"3X c #A66BD8",
"4X c #7C8CEE",
"5X c #7D8DEF",
"6X c #4CB5F0",
"7X c #8090F0",
"8X c #C089E8",
"9X c #D0A0F0",
"0X c None",
/* pixels */
"0X0X0X0X0X0X0X0X0X0X0X0X0X0X0X0X0X0X0X0X0X0X0X0X0X0X0X0X0X0X0X0X",
"0X0X0X0X0X0X0X0X0X0X0X0X0X0X0X0X0X0X0X0X0X0X0X0X0X0X0X0X0X0X0X0X",
"0X0X0X0X0X0X0X0X0X0X0X0X0X0X0X0X[ 0XY 0X0X0X0X0X0X0X0X0X0X0X0X0X",
"0X0X0X0X0X0X0X0X0X0X0X0X0X0XXX=Xv.G ( 0X0X0X0X0X0X0X0X0X0X0X0X0X",
"0X0X0X0X0X0X0X0X0X0X0X0X0X0X&X;XU s...0X0X0X0X0X0X0X0X0X0X0X0X0X",
"0X0X0Xb - ~ 0X0X0X0X0X0X0X;X3.*X8X<X1X0X0X0XC.C.0X0X0X0X0X0X0X0X",
"0X0X0X0X9 . P u.C.` 0Xm.C.@X{.,X9X2X3X2.C.C.C.t.0X0X0X0X0X0X0X0X",
"0X0X0X0X0X. .   V n.b.n.n.C.;X#X^.).>XC.v.C.8.0X0X7 2 > 0X0X0X0X",
"0X0X0X0X0X8 + ;X;Xh T L p.k.k.l.z.M.c C.#.J.X 0X> 5 ' J l 0X0X0X",
"0X0X0X0X0X0X;X;X;X;X;X;X;X:X7X7X7X5Xc.K N.4XT.0X0XR P K : 0X0X0X",
"0X0X0X0X0XL.6 n -X;X;X;.|.Q.~.;X;X(.9.x.x.;XR 2 m Z ' / 0X0X0X0X",
"0X0X0X0X0Xx.x.m d._ 5.g.B S }.;X;XF.;Xx.h..XN W W ' ' 0X0X0X0X0X",
"0X0X0X0X=.x.x x.x.x.a.x.,.y.j +X;X;X*.^ ^ D.' A ' w < 0X0X0X0X0X",
"0X0X0X0XO.x.x.x.x.x.x.V.%.6XM ;XP.;X;Xx.x.f = ' C I 0X0X0X0X0X0X",
"0X0X0X0X0X4.+.1.x.x.| >.N r i.x.0.7.D 7.x.x.0X0X0 0X0X0X0X0X0X0X",
"0X0X0X0X0X0Xe @.a 0X0XoX;X;X;X;X&.-.%Xf.x.`.0X0X0X0X0X0X0X0X0X0X",
"0X0X0X0X0X0X0X0X0X0X0X:.;X;X;X;Xx.! p d $.* D 0X0X0X0X0X0X0X0X0X",
"0X0X0X0X0X0X0X0X0X0X0Xx.x.;X;X;Xx.'.R ' !.!.) 0X0X0X0X0X0X0X0X0X",
"0X0X0X0X0X0X0X0X0X0X0X;X} x.x.x.x._.; !.!.!.!.o 0X0X0X0X0X0X0X0X",
"0X0X0X0X0X0X0X0X0X0X0X;X;X;X;X;X/.U.G.!.!.!.!.!.0X0X0X0X0X0X0X0X",
"0X0X0X0X0X0X0X3 g.+X;X$XW.;XOX;X% 4 K.!.!.!.A.R.0X0X0X0X0X0X0X0X",
"0X0X0X0X0X0X0Xd.] ;X[.;X;X;X;X;XY I.# !.E.S.Z.!.0X0X0X0X0X0X0X0X",
"0X0X0X0X0X0X0Xx.{ X.;X;X;X;X].' ' ' $ Y.H.!.O 0X0X0X0X0X0X0X0X0X",
"0X0X0X0X0X0X0Xk x.x.x.B. X;X& , W ' ' ' g @ E 0X0X0X0X0X0X0X0X0X",
"0X0X0X0X0X0X0X0X' P r.x.w.w.6.0X0Xv v s ' ' 0X0X0X0X0X0X0X0X0X0X",
"0X0X0X0X0X0X0X0XY ' ' ' z q 0X0X/ v i ' ' > 0X0X0X0X0X0X0X0X0X0X",
"0X0X0X0X0X0X0X1 j.x.x. .0X0X0X0XQ ' ' F ' H ' y 0X0X0X0X0X0X0X0X",
"0X0X0X0X0X0X0X2 x.x.x.q.0X0X0X0X0X0X0Xu t ' ' ' J 0X0X0X0X0X0X0X",
"0X0X0X0X0X0X0X] x.x.x.x.w.0X0X0X0X0X0X0X0X0X0X0X0X0X0X0X0X0X0X0X",
"0X0X0X0X0X0X0X0Xo.x.x.e.<.0X0X0X0X0X0X0X0X0X0X0X0X0X0X0X0X0X0X0X",
"0X0X0X0X0X0X0X0X0X0X0X0X0X0X0X0X0X0X0X0X0X0X0X0X0X0X0X0X0X0X0X0X",
"0X0X0X0X0X0X0X0X0X0X0X0X0X0X0X0X0X0X0X0X0X0X0X0X0X0X0X0X0X0X0X0X"
};
