/* XPM */
static char *result[] = {
/* columns rows colors chars-per-pixel */
"32 32 166 2 ",
"   c #101010",
".  c #1B1F36",
"X  c #43200C",
"o  c #69324A",
"O  c #9F0512",
"+  c #960C18",
"@  c #A50008",
"#  c #B00000",
"$  c #B20300",
"%  c #B30400",
"&  c #B30500",
"*  c #B40A05",
"=  c #B90F00",
"-  c #BB1400",
";  c #B31806",
":  c #BC1E0F",
">  c #A0141F",
",  c #BF2100",
"<  c #B1312A",
"1  c #C01C00",
"2  c #C52500",
"3  c #C62600",
"4  c #CA2C00",
"5  c #CB2E00",
"6  c #CC3100",
"7  c #D43E02",
"8  c #D03C0B",
"9  c #C63519",
"0  c #A04E06",
"q  c #BB4825",
"w  c #B35A37",
"e  c #BD643F",
"r  c #C7460C",
"t  c #D74500",
"y  c #D84400",
"u  c #D94600",
"i  c #DC4D00",
"p  c #DE4C00",
"a  c #DE4D00",
"s  c #DD4E00",
"d  c #D94805",
"f  c #D84B08",
"g  c #DD570E",
"h  c #DC5B18",
"j  c #E15200",
"k  c #E25300",
"l  c #E45700",
"z  c #E15505",
"x  c #E55A00",
"c  c #E55B00",
"v  c #E75F00",
"b  c #E96100",
"n  c #EB6600",
"m  c #EB6700",
"M  c #E96403",
"N  c #ED6A00",
"B  c #EE6B00",
"V  c #EE6D00",
"C  c #EF6D00",
"Z  c #EF6E00",
"A  c #EF6F00",
"S  c #E96708",
"D  c #F07000",
"F  c #E46313",
"G  c #E66A19",
"H  c #EA7412",
"J  c #EC7414",
"K  c #ED7614",
"L  c #ED7917",
"P  c #E8731F",
"I  c #ED7919",
"U  c #F07B13",
"Y  c #CC582D",
"T  c #C85E30",
"R  c #E97B2A",
"E  c #E97D2D",
"W  c #E97E2D",
"Q  c #95264C",
"!  c #9F5A4D",
"~  c #B57162",
"^  c #B87865",
"/  c #E17547",
"(  c #F07447",
")  c #D47162",
"_  c #F0811C",
"`  c #F0821F",
"'  c #ED8025",
"]  c #EC822A",
"[  c #EB812D",
"{  c #EE872D",
"}  c #F08523",
"|  c #F08726",
" . c #F0892A",
".. c #F08B2D",
"X. c #F0932A",
"o. c #F08D31",
"O. c #EE9936",
"+. c #F09235",
"@. c #F09137",
"#. c #F09D36",
"$. c #F0963F",
"%. c #EB9349",
"&. c #F09B43",
"*. c #F09945",
"=. c #F09E4D",
"-. c #EFAF4E",
";. c #F0A34A",
":. c #F1A04E",
">. c #F0B24D",
",. c #F0A050",
"<. c #F0A251",
"1. c #F0AB56",
"2. c #F0AE57",
"3. c #F0B259",
"4. c #F0B95C",
"5. c #F0BC5E",
"6. c #F0BD5E",
"7. c #F0BF5F",
"8. c #E8BB63",
"9. c #F0BF60",
"0. c #9BF040",
"q. c #F0C060",
"w. c #1C2395",
"e. c #222A99",
"r. c #2730A0",
"t. c #2C37A1",
"y. c #3234A4",
"u. c #303BA7",
"i. c #313EA5",
"p. c #3A489D",
"a. c #3542A8",
"s. c #3C4BAB",
"d. c #3C4BAD",
"f. c #3D4DAE",
"g. c #3841B7",
"h. c #4148BB",
"j. c #4050B0",
"k. c #4352B7",
"l. c #4656B9",
"z. c #4757BB",
"x. c #4350BD",
"c. c #4858BB",
"v. c #4A5ABF",
"b. c #525BB7",
"n. c #695BA0",
"m. c #4957C2",
"M. c #4B5BC1",
"N. c #4F5FC7",
"B. c #4F5CCB",
"V. c #4E5BCE",
"C. c #5666D1",
"Z. c #5868D4",
"A. c #5A6AD7",
"S. c #5D6DDB",
"D. c #5E6EDD",
"F. c #5F6FDE",
"G. c #666BD2",
"H. c #6070E0",
"J. c #B075DE",
"K. c #70D1F0",
"L. c #8090F0",
"P. c #B883E2",
"I. c #B980E4",
"U. c #BB82E5",
"Y. c #CD9CEF",
"T. c None",
/* pixels */
"T.T.T.T.T.T.T.T.T.T.T.T.T.T.T.T.T.T.T.T.T.T.T.T.T.T.T.T.T.T.T.T.",
"T.T.T.T.T.T.T.T.T.T.T.T.T.T.T.T.T.T.T.T.T.T.T.T.T.T.T.T.T.T.T.T.",
"T.T.T.T.T.T.T.T.T.T.T.T.T.T.T.T.T.T.T.T.T.T.T.T.T.T.T.T.T.T.T.T.",
"T.T.T.T.T.T.T.T.T.T.T.T.T.T.T.T.T.T.T.T.T.T.T.T.T.T.T.T.T.T.T.T.",
"T.T.T.T.T.T.T.T.T.T.T.T.T.T.T.T.T.T.T.T.T.T.T.T.T.T.T.T.T.T.T.T.",
"T.T.T.T.T.T.T.T.T.T.T.T.T.T.T.T.T.T.T.T.T.T.T.T.T.T.T.T.T.T.T.T.",
"T.T.T.T.T.T.T.T.T.T.T.T.T.T.T.T.T.T.T.T.T.T.T.T.T.T.T.T.T.T.T.T.",
"T.T.T.T.T.T.T.T.T.T.T.T.T.T.T.T.T.T.T.T.T.T.T.T.T.T.T.T.T.T.T.T.",
"T.T.T.T.T.T.T.T.T.T.T.T.T.T.T.T.T.T.T.T.T.T.T.T.T.T.T.T.T.T.T.T.",
"T.T.T.T.T.T.T.T.T.T.T.T.T.T.T.T.T.T.T.T.T.T.T.T.T.T.T.T.T.T.T.T.",
"T.T.T.T.T.T.T.T.T.T.T.T.T.T.T.T.T.T.T.3.T.T.T.T.T.T.T.T.T.T.T.T.",
"T.T.T.T.T.T.T.v T.T.T.T.T.T.T.T.T.m.H.E J ;.T.:.q.+.T.T.T.T.T.T.",
"T.T.T.T.T.T.T., R &.T.T.T.T.X.2.y.H.~ I X y H q.q.q.T.T.T.T.T.T.",
"T.T.T.T.T.T.T.%   #.q. .q.q.q.8.F.H.T ) P.J.q.q.q.q.T.T.T.T.T.T.",
"T.T.T.T.T.T.T.T.H.Q O.q.1.q.q.4.B.H.V.U.Y.I.q.q.q.T.T.T.T.T.T.T.",
"T.T.T.T.T.T.T.D.H.H.H. .q.j ,.,.5.U M.j.o 9.q.q.T.T.T.T.T.T.T.T.",
"T.T.T.T.T.T.k.D.H.H.H.N.G.* z <.q.q.7.D q.q.d T.T.T.T.T.T.T.T.T.",
"T.T.T.T.T.T.A.> F ,.< r./ ..N Y L.L.-.6.6.u.T.T.T.T.T.T.T.T.T.T.",
"T.T.T.T.T.T.Z.,._ } ,.h ,.$.K L C.[ @.8 w i 1 % 3 n # T.T.T.T.T.",
"T.T.T.T.T.T.n.,.M %.,.,.,.{ >.K.] : o.! } P b D $ k s 2 T.T.T.T.",
"T.T.T.T.T.T.S.,.| 5 ,.,.E 0.' 7 ( f j.e j.j.0 D A m t 6 T.T.T.T.",
"T.T.T.T.T.T.T.j ,.,.,.g ^ r D D D j.e.t.j.j.j.f.D n u T.T.T.T.T.",
"T.T.T.T.T.T.,.c.H.H.H.H.l.H.B D y j.d.j.j.j.j.a.. T.T.T.T.T.T.T.",
"T.T.T.T.T.G H.H.H.z.H.H.H.h.@ O j.i.j.j.j.j.j.j.j.T.T.T.T.T.T.T.",
"T.T.T.T.T.9 c.H.H.H.H.g.H.c D Z & p ; j.j.s.d.p.j.T.T.T.T.T.T.T.",
"T.T.T.T.T.T.=.H.H.A.l.x.q x D l N a T.D C w.+ T.T.T.T.T.T.T.T.T.",
"T.T.T.T.T.T.Z ,.b.H.v.*.4 = x D D D x T.T.T.T.T.T.T.T.T.T.T.T.T.",
"T.T.T.T.T.T.V ,.W S - T.T.T.T.T.T.T.T.T.T.T.T.T.T.T.T.T.T.T.T.T.",
"T.T.T.T.T.T.,.,.,.,.,.T.T.T.T.T.T.T.T.T.T.T.T.T.T.T.T.T.T.T.T.T.",
"T.T.T.T.T.T.` ,.,.,.@.T.T.T.T.T.T.T.T.T.T.T.T.T.T.T.T.T.T.T.T.T.",
"T.T.T.T.T.T.T.T.T.T.T.T.T.T.T.T.T.T.T.T.T.T.T.T.T.T.T.T.T.T.T.T.",
"T.T.T.T.T.T.T.T.T.T.T.T.T.T.T.T.T.T.T.T.T.T.T.T.T.T.T.T.T.T.T.T."
};
