/* XPM */
static char *result[] = {
/* columns rows colors chars-per-pixel */
"32 32 199 2 ",
"   c #101010",
".  c #0A0A39",
"X  c #15173C",
"o  c #760606",
"O  c #4A220C",
"+  c #692E09",
"@  c #120776",
"#  c #120A7C",
"$  c #151973",
"%  c #692B46",
"&  c #930303",
"*  c #B00000",
"=  c #B10200",
"-  c #B30500",
";  c #B40A05",
":  c #BA1200",
">  c #BC1E0F",
",  c #BF290E",
"<  c #9E323D",
"1  c #C11C00",
"2  c #C11D00",
"3  c #C21E00",
"4  c #C32000",
"5  c #C72600",
"6  c #C92A00",
"7  c #CA2B00",
"8  c #CD3200",
"9  c #CE3200",
"0  c #CC3D0B",
"q  c #D23800",
"w  c #D33A00",
"e  c #D43D00",
"r  c #BB4B03",
"t  c #D74100",
"y  c #D34706",
"u  c #DA4700",
"i  c #DC4A00",
"p  c #DE4B00",
"a  c #DD4E00",
"s  c #DD5000",
"d  c #DE5000",
"f  c #D8520E",
"g  c #E05000",
"h  c #E05100",
"j  c #E05300",
"k  c #E15400",
"l  c #E25400",
"z  c #E35500",
"x  c #E35700",
"c  c #E45800",
"v  c #E55900",
"b  c #E55A00",
"n  c #E65B00",
"m  c #E65C00",
"M  c #E75E00",
"N  c #E35805",
"B  c #E76206",
"V  c #E86000",
"C  c #EA6400",
"Z  c #EB6700",
"A  c #EB6602",
"S  c #EA6504",
"D  c #EC6900",
"F  c #ED6A00",
"G  c #ED6B00",
"H  c #EE6C00",
"J  c #EE6D00",
"K  c #EF6D00",
"L  c #EF6E00",
"P  c #E9690E",
"I  c #EF7306",
"U  c #EF760A",
"Y  c #F07000",
"T  c #F07305",
"R  c #F07506",
"E  c #F0790E",
"W  c #F0790F",
"Q  c #E46713",
"!  c #E76812",
"~  c #E1651B",
"^  c #E56919",
"/  c #E76F1C",
"(  c #E87013",
")  c #EC7515",
"_  c #E8701B",
"`  c #EF7D19",
"'  c #F07B12",
"]  c #F07D15",
"[  c #F07E18",
"{  c #C85C2A",
"}  c #E44826",
"|  c #CC6823",
" . c #EA7B25",
".. c #E3742E",
"X. c #E97D2D",
"o. c #B85A46",
"O. c #A86056",
"+. c #BA725B",
"@. c #A65E65",
"#. c #AC5770",
"$. c #B57D72",
"%. c #E7801F",
"&. c #F0861D",
"*. c #EE8421",
"=. c #F08524",
"-. c #F08827",
";. c #F08B2D",
":. c #EA8333",
">. c #F08E32",
",. c #F0943C",
"<. c #F0894B",
"1. c #ED9040",
"2. c #EB934A",
"3. c #EF9B4B",
"4. c #EF9C4C",
"5. c #F09944",
"6. c #F09A45",
"7. c #F09A47",
"8. c #F09C49",
"9. c #F09D4B",
"0. c #F09D4C",
"q. c #F09F4F",
"w. c #D0B84B",
"e. c #EFA04E",
"r. c #F0A050",
"t. c #F0A251",
"y. c #F0B553",
"u. c #F0B058",
"i. c #F0BB5D",
"p. c #F0BD5D",
"a. c #F0BE5F",
"s. c #8FF040",
"d. c #F0C060",
"f. c navy",
"g. c #0D108A",
"h. c #11158D",
"j. c #12178E",
"k. c #1F1F8B",
"l. c #1C2395",
"z. c #252E9C",
"x. c #28319F",
"c. c #2228A2",
"v. c #2830A5",
"b. c #2931A6",
"n. c #2F3AA0",
"m. c #2E36AD",
"M. c #2F37AF",
"N. c #303BA8",
"B. c #6B3C8E",
"V. c #35418A",
"C. c #3D4CA6",
"Z. c #3543A8",
"A. c #3745A9",
"S. c #3947AB",
"D. c #3D4CAE",
"F. c #3E4DAE",
"G. c #3D47BD",
"H. c #3D48BD",
"J. c #764F9E",
"K. c #605897",
"L. c #494FA4",
"P. c #4B52A6",
"I. c #4B55AA",
"U. c #424EBF",
"Y. c #4050B0",
"T. c #4A5ABF",
"R. c #6B45BB",
"E. c #7F67A7",
"W. c #4552C1",
"Q. c #4E5EC5",
"!. c #5060C8",
"~. c #5262CB",
"^. c #5363CC",
"/. c #5666D0",
"(. c #5666D1",
"). c #5767D3",
"_. c #5868D4",
"`. c #5B6BD8",
"'. c #5C6CD9",
"]. c #5C6CDB",
"[. c #5E6EDC",
"{. c #5F6FDE",
"}. c #6B70D0",
"|. c #6070DF",
" X c #6070E0",
".X c #8467A1",
"XX c #8270AA",
"oX c #867DBA",
"OX c #9555CE",
"+X c #9A5CD1",
"@X c #9A5ED0",
"#X c #B67BE2",
"$X c #7989ED",
"%X c #4CB5F0",
"&X c #8891E5",
"*X c #8090F0",
"=X c #C48EEA",
"-X c #C691EB",
";X c None",
/* pixels */
";X;X;X;X;X;X;X;X;X;X;X;X;X;X;X;X;X;X;X;X;X;X;X;X;X;X;X;X;X;X;X;X",
";X;X;X;X;X;X;X;X;X;X;X;X;X;X;X;X;X;X;X;X;X;X;X;X;X;X;X;X;X;X;X;X",
";X;X;X;X;X;X;X;X;X;X;X;X;X;X;X;XY ;X) ;X;X;X;X;X;X;X;X;X;X;X;X;X",
";X;X;X;X;X;X;X;X;X;X;X;X;X;X`.XXu.( ] ;X;X;X;X;X;X;X;X;X;X;X;X;X",
";X;X;X;X;X;X;X;X;X;X;X;X;X;X.X Xr :.| ;X;X;X;X;X;X;X;X;X;X;X;X;X",
";X;X;Xh & _ ;X;X;X;X;X;X;X X=.@.-XOX+X;X;X;Xd.d.;X;X;X;X;X;X;X;X",
";X;X;X;X+   H y.d.;X;Xa.d.'.^.+.=X#X@X&.d.d.d.Q ;X;X;X;X;X;X;X;X",
";X;X;X;Xp     O c a.t.a.a.d. XM.z.R.B.i.a.d.U ;X;X- * = ;X;X;X;X",
";X;X;X;X;X6 . {. Xz L I q.a.d.d.d.p.^ d.R L.;X;Xw = V 9 b ;X;X;X",
";X;X;X;X;X;X]. X X X X X X$X*X*X*X&Xe.E d.*XZ.;X;XL K F ;X;X;X;X",
";X;X;X;X;XN.< o. X X X#.U.T.T.(.(.~.r.r.r.(.n u g Y Y s ;X;X;X;X",
";X;X;X;X;Xr.r.v X.0 ;.;.B 8 c. X Xv.oXr.r.Y.H K Y Y Y ;X;X;X;X;X",
";X;X;X;XO.r.~ r.r.r.=.r.%.*.: Q._. X$. .;.l.Y i Y k ;X;X;X;X;X;X",
";X;X;X;X..r.r.r.r.r.r.w.4.%Xa  Xb. XoX0.r.` y Y K b ;X;X;X;X;X;X",
";X;X;X;X;X-.> 6.r.r.1.s.l } <.r.W W a W 2.r.f.;Xj ;X;X;X;X;X;X;X",
";X;X;X;X;X;Xx 3.C ;X;X[. X X X X, f E.r.r.P.;X;X;X;X;X;X;X;X;X;X",
";X;X;X;X;X;X;X;X;X;X;X}. X X X Xr.T ; ' r.@ ;X;X;X;X;X;X;X;X;X;X",
";X;X;X;X;X;X;X;X;X;X;Xr.r. X X Xr.H.Y Y V.Y.8.;X;X;X;X;X;X;X;X;X",
";X;X;X;X;X;X;X;X;X;X;XJ.7.r.r.r.r.H.4 Y.Y.Y.F.;X;X;X;X;X;X;X;X;X",
";X;X;X;X;X;X;X;X;X;X;X X X X XW.!.Y.h.Y.Y.Y.Y.Y.;X;X;X;X;X;X;X;X",
";X;X;X;X;X;X;X;X/ m. X XG. X). X% o Y.Y.Y.Y.D.g.;X;X;X;X;X;X;X;X",
";X;X;X;X;X;X;X! {  X/. X X X X XY Y.$ Y.j.Y.S.Y.;X;X;X;X;X;X;X;X",
";X;X;X;X;X;X1 r.5.K. X X X Xx.Y Y Y A.X Y.Y.n.;X;X;X;X;X;X;X;X;X",
";X;X;X;X;X;X;Xq r.r.r.I.|. Xk.7 Y Y Y G # C.J ;X;X;X;X;X;X;X;X;X",
";X;X;X;X;X;X;X;XY N r.9.T T A ;X;Xg e Y L D ;X;X;X;X;X;X;X;X;X;X",
";X;X;X;X;X;X;X;XY Y Y Y F t ;X;XJ g g Y Z ;X;X;X;X;X;X;X;X;X;X;X",
";X;X;X;X;X;X;X3 ,.r.r.m ;X;X;X;XY Y Y Y Y b d ;X;X;X;X;X;X;X;X;X",
";X;X;X;X;X;X;X2 r.r.r.S ;X;X;X;X;X;X;Xi M Y Y Y e ;X;X;X;X;X;X;X",
";X;X;X;X;X;X;X[ r.r.r.r.P ;X;X;X;X;X;X;X;X;X;X;X;X;X;X;X;X;X;X;X",
";X;X;X;X;X;X;X5 ,.r.r.r.>.;X;X;X;X;X;X;X;X;X;X;X;X;X;X;X;X;X;X;X",
";X;X;X;X;X;X;X;X;X;X;X;X;X;X;X;X;X;X;X;X;X;X;X;X;X;X;X;X;X;X;X;X",
";X;X;X;X;X;X;X;X;X;X;X;X;X;X;X;X;X;X;X;X;X;X;X;X;X;X;X;X;X;X;X;X"
};
